<?xml version="1.0" encoding="utf-8"?>
<!-- Generator: Adobe Illustrator 29.6.0, SVG Export Plug-In . SVG Version: 9.03 Build 0)  -->
<svg version="1.0" id="Layer_1" xmlns="http://www.w3.org/2000/svg" xmlns:xlink="http://www.w3.org/1999/xlink" x="0px" y="0px"
	 viewBox="0 0 168.7 170.5" style="enable-background:new 0 0 168.7 170.5;" xml:space="preserve">
<style type="text/css">
	.st0{fill:#FFFFFF;}
	.st1{fill:none;stroke:#D42E27;stroke-width:4.6221;stroke-miterlimit:10;}
	.st2{fill:none;stroke:#D42E27;stroke-width:5.5999;stroke-miterlimit:10;}
	.st3{fill:none;stroke:#D42E27;stroke-width:6.7686;stroke-miterlimit:10;}
</style>
<g>
	<g>
		<path class="st0" d="M126.5,118.5c-0.6-1.9,0.2-3.9,1.8-5l40.4-30l-8.4-3.6c-3.7-1.2-2.6-3.1-1.3-7.6l6.2-20.5l-23.5,4.5
			c-2.3,0.3-3.8-1-4.2-2.3l-3-9.6l-18.6,19c-2.6,3-8,3-6.3-4l7.9-38.4L107,26c-3,1.5-6,1.8-7.7-1L84.4,0L69.4,25
			c-1.7,2.7-4.7,2.5-7.6,1l-10.6-5l7.9,38.4c1.6,7-3.7,7-6.3,4l-18.6-19l-3,9.6c-0.4,1.3-1.9,2.6-4.2,2.3L3.5,51.8l6.2,20.5
			c1.3,4.5,2.4,6.4-1.3,7.6L0,83.5l40.4,30c1.6,1.1,2.4,3.2,1.9,5l-3.5,21.5c13.2-1.4,25.1-2.6,38.2-4v34.6H81h3.3h3.4H90v-34.8
			c13.8,1.4,26.2,2.7,40.1,4.2L126.5,118.5z"/>
	</g>
	<g>
		<path class="st1" d="M113.9,79.5c-5.5,0-9.9,4.4-9.9,9.9c0,5.5,4.4,9.9,9.9,9.9c5.5,0,9.9-4.4,9.9-9.9
			C123.8,83.9,119.3,79.5,113.9,79.5z M113.9,96.6c-4,0-7.2-3.2-7.2-7.2c0-4,3.2-7.2,7.2-7.2c4,0,7.2,3.2,7.2,7.2
			C121.1,93.3,117.8,96.6,113.9,96.6z"/>
		<g>
			<line class="st2" x1="106.7" y1="95.1" x2="85.3" y2="112.2"/>
		</g>
	</g>
	<g>
		<g>
			<path class="st1" d="M84.7,35c-5.5,0-9.9,4.4-9.9,9.9c0,5.5,4.4,9.9,9.9,9.9c5.5,0,9.9-4.4,9.9-9.9C94.6,39.4,90.2,35,84.7,35z
				 M84.7,52.1c-4,0-7.2-3.2-7.2-7.2c0-4,3.2-7.2,7.2-7.2c4,0,7.2,3.2,7.2,7.2C91.9,48.8,88.7,52.1,84.7,52.1z"/>
			<line class="st3" x1="84.7" y1="53.6" x2="84.7" y2="128.9"/>
		</g>
		<path class="st3" d="M53.2,88.2c0,0,10.3,1.8,10.3,10.3s0,15.6,0,15.6s-0.1,11.9,19.3,11.3"/>
		<path class="st1" d="M43.3,76.9c-5.5,0-9.9,4.4-9.9,9.9c0,5.5,4.4,9.9,9.9,9.9c5.5,0,9.9-4.4,9.9-9.9
			C53.2,81.3,48.7,76.9,43.3,76.9z M43.3,94c-4,0-7.2-3.2-7.2-7.2c0-4,3.2-7.2,7.2-7.2c4,0,7.2,3.2,7.2,7.2
			C50.4,90.8,47.2,94,43.3,94z"/>
	</g>
</g>
</svg>
