<?xml version="1.0" encoding="utf-8"?>
<!-- Generator: Adobe Illustrator 21.0.2, SVG Export Plug-In . SVG Version: 6.00 Build 0)  -->
<svg version="1.1" id="Layer_1" xmlns="http://www.w3.org/2000/svg" xmlns:xlink="http://www.w3.org/1999/xlink" x="0px" y="0px"
	 viewBox="0 0 715 731.2" style="enable-background:new 0 0 715 731.2;" xml:space="preserve">
<style type="text/css">
	.background{fill:#000000;}
	.text{fill:#ffffff;}
	.dot{fill:#38bf8e;}
</style>

<g>
<path class="background" d="M177.6,0h359.8C635.5,0,715,79.5,715,177.6v376.1c0,98.1-79.5,177.6-177.6,177.6H177.6
	C79.5,731.2,0,651.7,0,553.6v-376C0,79.5,79.5,0,177.6,0z"/></g>
<g>
<path class="text" d="M512.6,452.9c7.6-7.6,22.2-14.5,37.6-14.5c31.1,0,51,18.7,51,54.7v73.3c0,12.6,0,12.6-13,12.6
	c-12.8,0-12.8,0-12.8-12.6v-71.6c0-19.5-10.3-30.6-28.7-30.6c-14,0-26.9,8.1-34.1,17v85.5c0,12.3,0,12.3-12.8,12.3
	c-13,0-13,0-13-12.3v-160c0-13.6,0-13.6,12.9-13.6s12.9,0,12.9,13.6V452.9z M406.4,436.3c29.8,0,47,17.7,51.9,31.3
	c1.5,4.3,2.6,8.5,2.6,11c0,3.3-2.3,3.9-9.2,6.1c-5.6,1.7-8.4,2.7-10.2,2.7c-2.7,0-2.9-2.7-5-7c-5.7-13-17.5-18.9-30-18.9
	c-19.7,0-32.3,12.8-33.6,30.5c-0.5,8.2-0.6,22.4,0,30.4c1.8,18.8,13.7,31.2,33.6,31.2c12.8,0,24.1-6,29.9-19.2
	c1.8-4.2,2.4-6.9,5.2-6.9c1.4,0,3.6,0.5,10.2,2.7c8,2.9,9.6,3.7,9.6,6.4c0,2.2-1.4,7-3.2,11.1c-4.9,11.5-19.3,31.2-52.1,31.2
	c-33.3,0-56.5-23.7-58.6-53.9c-0.8-10.4-0.6-25.4,0-35.9C349.1,458.2,373.3,436.3,406.4,436.3z M300.9,496.8c3.5,0,3.3,0,3.5-3.5
	c1-21.6-12.3-35.4-33.2-35.4c-23.7,0-35.1,14.8-34.6,38.9H300.9z M325.7,501.5c0,15.3-1.5,16.3-15.3,16.3h-74.3v3.8
	c0,21.7,14.7,33.3,35.3,33.3c11,0,19.9-1.7,28.3-5.5c3.8-1.7,6.4-3,8.3-3c2.7,0,4.2,2.3,7.4,9.4c2,4.6,2.7,6.8,2.7,8.4
	c0,2-1.4,3.5-6.6,6c-8.3,4.2-23.3,8.7-39.9,8.7c-36.4,0-57.6-23.1-59.9-56.1c-0.6-9.8-0.5-24,0.1-32.2c2.7-33.5,25.7-54.3,57.7-54.3
	c34.1,0,56.2,23.2,56.2,57.7L325.7,501.5L325.7,501.5z M187.9,576.9c-10.2,4.2-20.1,6.3-31.5,6.3c-29.5,0-42.6-20.1-42.6-46.5V424.1
	c0-13.8-0.1-13.8,13-13.8c13.2,0,13.2,0,13.2,13.8v18.2h36.5c12.7,0,12.7,0.4,12.7,12.6c0,11.9,0,11.9-12.7,11.9H140V537
	c0,13.1,6,21.2,19.5,21.2c7.5,0,13.5-1.6,18.9-3.5c2.5-0.8,5.1-1.4,6.6-1.4c3.3,0,4.2,2.4,6.8,9c2.5,6.7,2.5,7.7,2.5,8.8
	C194.3,573.5,192.1,575.1,187.9,576.9z M371.3,224.5c-21.9,0-31.1,13.1-32.5,31.5c-0.5,7.1-0.4,21.1,0,27.4
	c1.4,20.2,11,31.8,32.1,31.8c15.3,0,26.5-6.2,31.1-9.8v-72.7C400.7,231.8,387.7,224.5,371.3,224.5z M427.4,332.3
	c0,40.3-25.7,60.8-57.2,60.8c-18.2,0-32.1-5.1-42.8-11.2c-7.2-4-9.4-5.5-9.4-8.7c0-1.8,0.9-3.7,4.1-9.2c4.3-7.4,5.3-8.6,8.1-8.6
	c2.3,0,5.8,2.6,11.8,5.8c9.3,4.9,17,7.1,28.2,7.1c18.4,0,31.9-11.3,31.9-34.3v-4.1c-9,4.5-19.8,8.7-34.7,8.7
	c-32.4,0-50.9-19.8-53.9-52.3c-0.9-9.6-0.8-25.1,0-33.8c2.8-32.7,22.5-53.9,57.8-53.9c23.5,0,44.2,9.4,51.1,14.6
	c3.6,2.6,5,5.1,5,10.7V332.3z M270.5,202.9c12.8,0,12.8,0,12.8,13.4v112.6c0,12.3,0,12.3-12.8,12.3c-12.6,0-12.6,0-12.6-12.3V216.3
	C257.9,202.9,257.9,202.9,270.5,202.9z M202.4,285c0.6-8.4,0.4-23.7,0-30.6c-1.4-19.4-10.9-29.9-30.5-29.9
	c-13.9,0-27.3,4.9-32.7,8.3v72.9c5.1,4,19.2,9.6,30.3,9.6C189.5,315.3,200.6,305.2,202.4,285z M227.6,251.6c0.8,9.4,0.8,27.4,0,36.5
	c-2.5,31.9-23.2,53.1-57.6,53.1c-24.1,0-44.6-11.2-51.3-16.1c-3.9-2.6-5-5.3-5-9.8V168.7c0-13.3,0-13.3,12.8-13.3
	c12.7,0,12.7,0,12.7,13.3v38.7c8.5-3.7,21.7-7.4,34.2-7.4C206,200.1,225,219.6,227.6,251.6z"/></g>
	<g>
<path class="dot" d="M514.6,273.8c0,16.8,0,16.8-16.4,16.8c-16.1,0-16.1,0-16.1-16.8c0-16.3,0-16.3,16.1-16.3
	C514.6,257.5,514.6,257.5,514.6,273.8z"/></g>
</svg>
