<?xml version="1.0" encoding="utf-8"?>
<!-- Generator: Adobe Illustrator 21.0.0, SVG Export Plug-In . SVG Version: 6.00 Build 0)  -->
<svg version="1.1" id="Layer_1" xmlns="http://www.w3.org/2000/svg" xmlns:xlink="http://www.w3.org/1999/xlink" x="0px" y="0px"
	 viewBox="0 0 220 63" enable-background="new 0 0 220 63" xml:space="preserve">
<g>
	<g id="letter">
		<path fill="#009991" d="M10.8,33.2L10.8,33.2c-2,0-3.6-1.6-3.6-3.6v-17c0-2,1.6-3.6,3.6-3.6l0,0c2,0,3.6,1.6,3.6,3.6v17
			C14.4,31.7,12.7,33.2,10.8,33.2z"/>
		<path fill="#009991" d="M10.8,54L10.8,54c-2,0-3.6-1.6-3.6-3.6V40c0-2,1.6-3.6,3.6-3.6l0,0c2,0,3.6,1.6,3.6,3.6v10.4
			C14.4,52.3,12.7,54,10.8,54z"/>
		<path fill="#009991" d="M20.7,29.8L20.7,29.8c2,0,3.6,1.6,3.6,3.6v17c0,2-1.6,3.6-3.6,3.6l0,0c-2,0-3.6-1.6-3.6-3.6v-17
			C17.1,31.3,18.8,29.8,20.7,29.8z"/>
		<path fill="#009991" d="M20.7,9L20.7,9c2,0,3.6,1.6,3.6,3.6V23c0,2-1.6,3.6-3.6,3.6l0,0c-2,0-3.6-1.6-3.6-3.6V12.6
			C17.1,10.7,18.8,9,20.7,9z"/>
		<path fill="#009991" d="M30.9,54L30.9,54c-2,0-3.6-1.6-3.6-3.6v-6.3c0-2,1.6-3.6,3.6-3.6l0,0c2,0,3.6,1.6,3.6,3.6v6.3
			C34.5,52.3,32.9,54,30.9,54z"/>
		<path fill="#009991" d="M40.8,54L40.8,54c-2,0-3.6-1.6-3.6-3.6V40c0-2,1.6-3.6,3.6-3.6l0,0c2,0,3.6,1.6,3.6,3.6v10.4
			C44.4,52.3,42.7,54,40.8,54z"/>
	</g>
	<g id="word">
		<path d="M189.4,29.4c0,0.2-0.1,0.3-0.1,0.4c-0.3,0.8-1.1,1.2-1.9,0.8c-0.7-0.4-1.4-0.9-2.2-1.3c-0.2-0.1-0.4-0.3-0.6-0.4l-0.1,0.1
			c0.1,0.2,0.2,0.3,0.3,0.5c0.8,1.2,1.1,2.6,0.8,4c-0.4,2-1.5,3.1-3.3,3.7c-1.9,0.6-3.7,0.7-5.7,0.5c-0.4-0.1-0.9,0-1.4,0.1
			c-0.7,0.2-1.1,0.8-1.1,1.4c0,0.6,0.4,1.2,1.1,1.3c0.6,0.1,1.3,0.3,2.1,0.3c2.1,0.1,4.1,0,6.2,0.1c2.9,0.1,4.9,2.4,4.8,5.2
			c-0.1,2.1-1.1,3.6-2.7,4.7c-2,1.4-4.3,2-6.7,2c-1.5,0-3.1-0.1-4.5-0.5c-0.7-0.2-1.4-0.5-2.1-0.9c-1.7-1-2.4-3.6-0.2-5.2
			c0.7-0.5,1.5-0.9,2.4-1.4c0.1-0.1,0.3-0.2,0.5-0.3c-0.5-0.2-0.9-0.3-1.3-0.4c-1.2-0.5-2.1-1.3-2.3-2.8c-0.1-1.1,0.4-2.1,1.2-2.8
			c0.7-0.6,1.5-1,2.5-1.1c0.1,0,0.1,0,0.2-0.1c0,0,0.1-0.1,0.2-0.1c-0.2-0.1-0.3-0.2-0.4-0.2c-2.7-1.2-3.4-4.2-2.3-6.5
			c0.7-1.3,1.9-2.3,3.3-2.8c1.4-0.5,3-0.6,4.4-0.5c1.1,0.1,2.2,0.3,3.2,0.8c0.9,0.4,1.9,0.5,2.9,0c0.3-0.1,0.6-0.2,0.9-0.3
			c1.2-0.4,2,0,2.3,1.2L189.4,29.4z M179.6,44.3c-1.1,0.1-2.2,0.2-3.2,0.3c-0.3,0-0.7,0.1-1,0.3c-1.1,0.7-1.3,1.9-1.2,3
			c0.1,1.9,1.2,3,2.8,3.7c1.5,0.7,3.2,0.7,4.8,0.4c1.6-0.3,2.7-1.3,3.2-2.9c0.8-2.2-0.2-4.1-2.4-4.5
			C181.5,44.5,180.5,44.4,179.6,44.3z M182.1,32.5c0-1.2-0.2-2.3-0.7-3.3c-1-1.9-3.5-2-4.7-0.3c-1.2,1.7-1.3,5-0.2,6.9
			c1.1,1.7,3.4,1.9,4.6,0.2C181.9,35,182.1,33.7,182.1,32.5z"/>
		<path d="M93.9,44.2c-2.5,0-4.9,0-7.4,0c0,0,0-0.1-0.1-0.1c0.1-0.1,0.2-0.2,0.4-0.2c0.4-0.1,0.7-0.2,1.1-0.4
			c0.4-0.2,0.6-0.5,0.6-0.9c0-6.4,0-12.9,0-19.2c0-0.5-0.2-0.9-0.6-1.1c-0.3-0.2-0.6-0.3-1-0.5c-0.2-0.1-0.3-0.3,0-0.4
			c1.7-0.8,3.3-1.4,5-2.3c0,0,0.1,0,0.2,0c0,4,0,7.9,0,11.9h0.1c0.2-0.2,0.3-0.5,0.5-0.7c1.5-1.9,3.4-3,6-2.8c1.4,0.1,2.7,1,3,2.4
			c0.3,1,0.4,2.2,0.4,3.3c0.1,3.1,0,6.2,0,9.4c0,0.9,0.2,1.1,1.1,1.3c0.2,0.1,0.5,0.1,0.7,0.1c0.1,0,0.2,0.1,0.2,0.2
			c-0.1,0-0.2,0.1-0.3,0.1h-0.1c-2.4,0-4.7,0-7,0c-0.1,0-0.3-0.1-0.4-0.2c0.1-0.1,0.3-0.2,0.4-0.3c0.1,0,0.2,0,0.4,0
			c1.1-0.3,1.4-0.4,1.4-1.5c0-2.6,0-5.1,0-7.7c0-1.1,0-2.2-0.5-3.2c-0.4-0.8-1.1-1.3-2.2-1.4c-1.3-0.1-2.5,0.1-3.4,1.2
			c-0.2,0.3-0.4,0.7-0.4,1c0,3.6,0,7.1,0,10.7c0,0.6,0.3,0.9,1,1c0.2,0,0.4,0,0.6,0.1C93.9,43.9,93.9,44,93.9,44.2
			C94,44.1,94,44.2,93.9,44.2z"/>
		<path d="M60.6,18.8c3.1,0.7,6.2,0.5,9.1,0.5c2.7,0,5.3,0,8.1,0c1.5,0,3,0,4.5-0.1c0.8,0,1.5-0.3,2.4-0.4c0.3-0.1,0.5,0,0.6,0.3
			c0.3,1.9,0.6,3.7,0.9,5.4c0,0.2,0.1,0.4,0.1,0.5c0,0.2,0,0.3-0.1,0.5c-0.1-0.1-0.3-0.2-0.4-0.3c-0.6-0.9-1.1-2-1.7-2.9
			c-0.8-1.2-1.9-2.3-3.4-2.4c-0.6-0.1-1.3-0.1-2-0.1c-1,0-2.1,0-3.1,0c-0.3,0-0.4,0.1-0.4,0.4c0,6.4,0,12.9,0,19.2
			c0,0.6,0.1,1.3,0.1,2c0.1,0.7,0.5,1.3,1.1,1.6c0.6,0.2,1.2,0.4,1.9,0.6c0.2,0.1,0.4,0.2,0.5,0.3c-0.2,0.1-0.4,0.2-0.6,0.2
			c-3.7,0-7.3,0-11,0c-0.1,0-0.2,0-0.3,0s-0.2-0.1-0.3-0.1c0.1-0.1,0.2-0.2,0.3-0.2c0.4-0.1,0.9-0.2,1.3-0.3
			c0.7-0.2,1.3-0.6,1.7-1.1c0.2-0.2,0.3-0.5,0.3-0.8c0.1-0.8,0.2-1.5,0.2-2.4c0-1.2,0-2.5,0-3.7c0-5,0-10,0.1-15
			c0-0.4-0.1-0.6-0.5-0.6c-1.4,0.1-2.9,0.1-4.3,0.1c-1.6,0.1-2.9,0.8-3.7,2.1c-0.7,1-1.4,2.2-2.2,3.3c-0.1,0.1-0.2,0.2-0.3,0.3
			c0-0.1-0.1-0.3-0.1-0.4c0.3-2.2,0.7-4.2,1-6.4C60.6,18.9,60.6,18.9,60.6,18.8z"/>
		<path d="M128,44c0.1-0.1,0.3-0.2,0.4-0.3c0.7-0.2,1.3-0.4,2.1-0.7c0.6-0.2,0.9-0.7,1-1.3c0.1-1.1,0.3-2.4,0.3-3.5
			c0.1-4.9,0.1-10,0.1-14.9c0-0.6-0.1-1.1-0.2-1.6c-0.2-1-0.9-1.4-1.7-1.7c-0.4-0.2-0.8-0.2-1.2-0.3c-0.1,0-0.2-0.2-0.4-0.3
			c0.1-0.1,0.3-0.2,0.4-0.2c3.7,0,7.4,0,11.2,0c0.1,0,0.2,0.1,0.4,0.2c-0.1,0.1-0.2,0.2-0.3,0.2c-0.7,0.2-1.4,0.4-2.1,0.7
			c-0.9,0.5-1.2,1.3-1.2,2.4c0,1.6-0.1,3.4-0.1,5c0,3.8,0,7.7,0,11.5c0,0.8,0.1,1.7,0.2,2.6c0.1,1,0.3,1.2,1.3,1.5
			c1.7,0.5,3.4,0.4,5.1,0.3c1.5-0.1,3.1-0.4,4.5-1.2c1.4-0.8,2.5-2.2,3.2-3.6c0.3-0.5,0.5-1.1,0.8-1.6c0.1-0.1,0.2-0.2,0.3-0.3
			c0,0.1,0.1,0.3,0.1,0.4c-0.2,1.2-0.4,2.5-0.6,3.7c-0.2,1-0.4,2.2-0.5,3.2c-7.6,0-15.2,0-22.8,0C128.1,44.1,128.1,44.1,128,44z"/>
		<path d="M153.1,35.8c-0.1-4,2.7-7.6,6.7-8.3c4.2-0.8,8.2,1.3,9.6,5.2c1.7,5-1.1,10.5-6.3,11.5c-3.8,0.8-8-1.5-9.5-5.2
			C153.3,38,153.1,36.9,153.1,35.8z M165.9,35.3c-0.1-0.6-0.2-1.7-0.4-2.9c-0.3-1.3-0.8-2.7-1.9-3.7c-1.2-1.1-3.1-1.2-4.3,0
			c-0.8,0.8-1.3,1.9-1.6,3c-0.7,2.4-0.7,4.8-0.3,7.3c0.2,1.1,0.6,2.3,1.2,3.3c1.2,1.9,3.8,2.4,5.4,0.3c0.2-0.3,0.5-0.7,0.6-1
			C165.6,39.7,165.8,37.7,165.9,35.3z"/>
		<path d="M119.4,33.1c-0.2,0-0.4,0-0.5,0c-3.3,0-6.5,0-9.8,0c-0.4,0-0.5,0.1-0.5,0.5c0,1.7,0.2,3.5,1.1,5c1.9,3.2,6.2,3.9,8.8,1.4
			c0.3-0.3,0.5-0.7,0.8-1.1c0.1-0.1,0.2-0.2,0.3-0.3c0,0,0.1,0,0.1,0.1c0,0.2,0,0.3-0.1,0.5c-0.8,2.9-3.5,5.3-6.9,5.2
			c-3.9-0.1-6.8-2.9-7.6-6.6c-0.5-2.4-0.3-4.7,1-6.8c1.7-2.9,4.7-4.1,8-3.5c2,0.3,3.5,1.2,4.5,3C119.2,31.1,119.5,32.3,119.4,33.1z
			 M108.6,32.5c0.8,0,1.6,0,2.4,0c1,0,2.1,0,3.1-0.1c0.8,0,1.1-0.4,1.1-1.2c0-0.6-0.1-1.2-0.4-1.7c-0.7-1.5-2.7-2.1-3.9-1
			C109.7,29.4,109.1,30.8,108.6,32.5z"/>
		<path d="M201.7,34.7c0,1.5,0.3,3.1,1.2,4.5c1.2,1.8,3.1,2.5,5.3,2.3c1.9-0.2,3.3-1,4.2-2.5c0.1-0.1,0.2-0.1,0.3-0.2
			c0,0.1,0.1,0.2,0,0.3c-0.8,2.5-2.9,4.7-5.7,5.2c-3.3,0.5-6-0.6-7.8-3.5c-2.1-3.2-1.7-7.8,0.7-10.7c2.1-2.4,4.6-3.2,7.7-2.7
			c1.4,0.2,2.7,0.7,3.7,1.7c0.6,0.6,0.9,1.3,0.9,2.2c0.1,0.9-0.5,1.9-1.3,2.2c-0.8,0.3-1.9,0.1-2.4-0.5c-0.3-0.3-0.5-0.7-0.3-1.2
			c0.3-0.9,0.2-1.7-0.1-2.7c-0.5-1.2-2.1-1.7-3.4-1c-1.1,0.5-1.7,1.4-2.3,2.5C201.9,31.9,201.7,33.2,201.7,34.7z"/>
		<path d="M193,22.7c1.2,0,2.2,0.9,2.2,2.2c0,1.2-1,2.3-2.2,2.3c-1.2,0-2.2-1-2.2-2.3C190.9,23.6,191.8,22.7,193,22.7z"/>
		<path d="M191.4,30l3.6-1.2c0,0,0.1,8.6,0.1,13.5c0,1,0.6,1.4,1.4,1.5c0.3,0,0.7-0.1,0.8,0.4c-2.8,0-5.4,0-8.1,0l-0.1-0.1
			c0.1-0.1,0.2-0.2,0.3-0.3c0.3-0.1,0.6-0.1,0.9-0.2c0.8-0.2,1.1-0.6,1.1-1.4L191.4,30z"/>
	</g>
</g>
</svg>
