<?xml version="1.0" encoding="utf-8"?>
<!-- Generator: Adobe Illustrator 21.0.2, SVG Export Plug-In . SVG Version: 6.00 Build 0)  -->
<svg version="1.1" id="Layer_1" xmlns="http://www.w3.org/2000/svg" xmlns:xlink="http://www.w3.org/1999/xlink" x="0px" y="0px"
	 viewBox="0 0 305.5 305.5" style="enable-background:new 0 0 305.5 305.5;" xml:space="preserve">
<style type="text/css">
	.st0{clip-path:url(#SVGID_2_);}
	.st1{clip-path:url(#SVGID_4_);}
	.st2{clip-path:url(#SVGID_8_);fill:#191E27;}
	.st3{clip-path:url(#SVGID_8_);fill:none;stroke:#191E27;stroke-miterlimit:10;}
	.st4{clip-path:url(#SVGID_8_);fill:#F8B917;}
	.st5{clip-path:url(#SVGID_8_);fill:#3668B2;}
	.st6{clip-path:url(#SVGID_8_);fill:#557DBF;}
	.st7{clip-path:url(#SVGID_8_);fill:#EA4435;}
	.st8{clip-path:url(#SVGID_8_);fill:#36A852;}
	.st9{clip-path:url(#SVGID_8_);fill:#FFFFFF;}
	.st10{clip-path:url(#SVGID_10_);fill:#FFFFFF;}
	.st11{clip-path:url(#SVGID_12_);fill:#FFFFFF;}
	.st12{clip-path:url(#SVGID_14_);fill:#FFFFFF;}
	.st13{clip-path:url(#SVGID_16_);fill:#FFFFFF;}
	.st14{clip-path:url(#SVGID_18_);fill:#FFFFFF;}
	.st15{clip-path:url(#SVGID_20_);fill:#FFFFFF;}
	.st16{clip-path:url(#SVGID_22_);fill:#FFFFFF;}
	.st17{clip-path:url(#SVGID_24_);fill:#FFFFFF;}
	.st18{clip-path:url(#SVGID_26_);fill:#FFFFFF;}
	.st19{clip-path:url(#SVGID_28_);fill:#FFFFFF;}
	.st20{clip-path:url(#SVGID_30_);fill:#FFFFFF;}
	.st21{clip-path:url(#SVGID_32_);fill:#FFFFFF;}
	.st22{clip-path:url(#SVGID_34_);fill:#FFFFFF;}
	.st23{clip-path:url(#SVGID_36_);fill:#FFFFFF;}
	.st24{clip-path:url(#SVGID_38_);fill:#FFFFFF;}
	.st25{clip-path:url(#SVGID_40_);fill:#FFFFFF;}
	.st26{clip-path:url(#SVGID_42_);fill:#FFFFFF;}
	.st27{clip-path:url(#SVGID_44_);fill:#FFFFFF;}
	.st28{clip-path:url(#SVGID_46_);fill:#FFFFFF;}
	.st29{clip-path:url(#SVGID_48_);fill:#FFFFFF;}
	.st30{clip-path:url(#SVGID_50_);fill:#FFFFFF;}
	.st31{opacity:0;clip-path:url(#SVGID_52_);}
	.st32{clip-path:url(#SVGID_54_);}
	.st33{clip-path:url(#SVGID_56_);}
	.st34{clip-path:url(#SVGID_60_);}
	.st35{clip-path:url(#SVGID_64_);fill:#FFFFFF;}
	.st36{opacity:0.2261;clip-path:url(#SVGID_66_);}
	.st37{clip-path:url(#SVGID_68_);fill:none;stroke:#FFFFFF;stroke-linecap:square;stroke-miterlimit:10;}
	.st38{clip-path:url(#SVGID_70_);fill:none;stroke:#FFFFFF;stroke-linecap:square;stroke-miterlimit:10;}
	.st39{clip-path:url(#SVGID_66_);fill:#55BA5D;}
	.st40{clip-path:url(#SVGID_66_);}
	.st41{fill:#44BB8E;}
	.st42{clip-path:url(#SVGID_66_);fill:#FFFFFF;}
	.st43{clip-path:url(#SVGID_72_);fill:#FFFFFF;}
	.st44{clip-path:url(#SVGID_74_);fill:#44BB8E;}
	.st45{clip-path:url(#SVGID_76_);fill-rule:evenodd;clip-rule:evenodd;fill:#FFFFFF;}
	.st46{clip-path:url(#SVGID_78_);fill:#FFFFFF;}
	.st47{clip-path:url(#SVGID_80_);fill-rule:evenodd;clip-rule:evenodd;fill:#FFFFFF;}
	.st48{clip-path:url(#SVGID_82_);fill:#FFFFFF;}
	.st49{clip-path:url(#SVGID_84_);fill:#FFFFFF;}
	.st50{clip-path:url(#SVGID_86_);}
	.st51{fill:#FFFFFF;}
	.st52{opacity:0.6;clip-path:url(#SVGID_86_);}
	.st53{clip-path:url(#SVGID_88_);fill:none;stroke:#FFFFFF;stroke-width:2;stroke-linecap:square;stroke-miterlimit:10;}
	.st54{clip-path:url(#SVGID_86_);fill:#FFFFFF;}
	.st55{clip-path:url(#SVGID_90_);}
	.st56{clip-path:url(#SVGID_94_);fill:#191E27;}
	.st57{opacity:0.35;clip-path:url(#SVGID_94_);}
	.st58{clip-path:url(#SVGID_96_);}
	.st59{clip-path:url(#SVGID_98_);}
	.st60{clip-path:url(#SVGID_94_);}
	.st61{clip-path:url(#SVGID_94_);fill:#F8B917;}
	.st62{clip-path:url(#SVGID_94_);fill:#3668B2;}
	.st63{clip-path:url(#SVGID_94_);fill:#557DBF;}
	.st64{clip-path:url(#SVGID_94_);fill:#EA4435;}
	.st65{clip-path:url(#SVGID_94_);fill:#36A852;}
	.st66{clip-path:url(#SVGID_94_);fill:#FFFFFF;}
	.st67{clip-path:url(#SVGID_102_);fill:#FFFFFF;}
	.st68{clip-path:url(#SVGID_104_);fill:#FFFFFF;}
	.st69{clip-path:url(#SVGID_106_);fill:#FFFFFF;}
	.st70{clip-path:url(#SVGID_108_);fill:#FFFFFF;}
	.st71{clip-path:url(#SVGID_110_);fill:#FFFFFF;}
	.st72{clip-path:url(#SVGID_112_);fill:#FFFFFF;}
	.st73{clip-path:url(#SVGID_114_);fill:#FFFFFF;}
	.st74{clip-path:url(#SVGID_116_);fill:#FFFFFF;}
	.st75{clip-path:url(#SVGID_118_);fill:#FFFFFF;}
	.st76{clip-path:url(#SVGID_120_);fill:#FFFFFF;}
	.st77{clip-path:url(#SVGID_122_);fill:#FFFFFF;}
	.st78{clip-path:url(#SVGID_124_);fill:#FFFFFF;}
	.st79{clip-path:url(#SVGID_126_);fill:#FFFFFF;}
	.st80{clip-path:url(#SVGID_128_);fill:#FFFFFF;}
	.st81{clip-path:url(#SVGID_130_);fill:#FFFFFF;}
	.st82{clip-path:url(#SVGID_132_);fill:#FFFFFF;}
	.st83{clip-path:url(#SVGID_134_);fill:#FFFFFF;}
	.st84{clip-path:url(#SVGID_136_);fill:#FFFFFF;}
	.st85{clip-path:url(#SVGID_138_);fill:#FFFFFF;}
	.st86{clip-path:url(#SVGID_140_);fill:#FFFFFF;}
	.st87{clip-path:url(#SVGID_142_);fill:#FFFFFF;}
	.st88{opacity:0;clip-path:url(#SVGID_144_);}
	.st89{clip-path:url(#SVGID_146_);}
	.st90{clip-path:url(#SVGID_148_);}
	.st91{clip-path:url(#SVGID_152_);}
	.st92{clip-path:url(#SVGID_156_);fill:#FFFFFF;}
	.st93{opacity:0.2261;clip-path:url(#SVGID_158_);}
	.st94{clip-path:url(#SVGID_160_);fill:none;stroke:#FFFFFF;stroke-linecap:square;stroke-miterlimit:10;}
	.st95{clip-path:url(#SVGID_162_);fill:none;stroke:#FFFFFF;stroke-linecap:square;stroke-miterlimit:10;}
	.st96{clip-path:url(#SVGID_158_);fill:#55BA5D;}
	.st97{clip-path:url(#SVGID_158_);fill:#FFFFFF;}
	.st98{clip-path:url(#SVGID_164_);fill:#FFFFFF;}
	.st99{clip-path:url(#SVGID_166_);fill:#44BB8E;}
	.st100{clip-path:url(#SVGID_168_);}
	.st101{clip-path:url(#SVGID_170_);fill-rule:evenodd;clip-rule:evenodd;fill:#FFFFFF;}
	.st102{clip-path:url(#SVGID_172_);fill:#FFFFFF;}
	.st103{clip-path:url(#SVGID_174_);fill-rule:evenodd;clip-rule:evenodd;fill:#FFFFFF;}
	.st104{clip-path:url(#SVGID_176_);fill:#FFFFFF;}
	.st105{clip-path:url(#SVGID_178_);fill:#FFFFFF;}
	.st106{clip-path:url(#SVGID_180_);}
	.st107{opacity:0.6;clip-path:url(#SVGID_180_);}
	.st108{clip-path:url(#SVGID_182_);fill:none;stroke:#FFFFFF;stroke-width:2;stroke-linecap:square;stroke-miterlimit:10;}
	.st109{clip-path:url(#SVGID_180_);fill:#FFFFFF;}
	.st110{clip-path:url(#SVGID_184_);fill:#1D1F28;}
	.st111{clip-path:url(#SVGID_186_);fill:#FFFFFF;}
	.st112{clip-path:url(#SVGID_188_);fill:#43BB8E;}
	.st113{enable-background:new    ;}
	.st114{clip-path:url(#SVGID_192_);}
	.st115{clip-path:url(#SVGID_194_);}
	.st116{clip-path:url(#SVGID_196_);fill:#FFFFFF;}
	.st117{fill-rule:evenodd;clip-rule:evenodd;fill:none;}
</style>
<rect y="29.9" class="st117" width="305.5" height="305.5"/>
<g>
	<path class="st51" d="M299.5,264.8c-3,7.5-9.8,18.2-19.5,25.6c-5.6,4.3-12.3,8.5-21.5,11.2c-9.8,2.9-21.9,3.9-36.9,3.9H84
		c-15,0-27.1-1-36.9-3.9c-9.2-2.7-15.9-6.9-21.5-11.2C15.9,283,9,272.3,6,264.8c-6-15.2-6-32.4-6-43.3l0,0V84l0,0
		c0-10.9,0.1-28.1,6-43.3c3-7.5,9.8-18.2,19.5-25.6c5.6-4.3,12.3-8.5,21.5-11.2C56.9,1,69,0,84,0l0,0h137.5l0,0
		c15,0,27.1,1,36.9,3.9c9.2,2.7,15.9,6.9,21.5,11.2c9.7,7.5,16.6,18.1,19.5,25.6c6,15.2,6,32.4,6,43.3v137.5
		C305.5,232.4,305.5,249.6,299.5,264.8z M174.9,175.6c-4.6-4.8-12.6-7.9-22.1-7.9c-9.5,0-17.6,3.1-22.1,7.9
		c-2.4,2.5-3.7,5.1-4.1,8.8c-0.8,7.1-0.3,13.3,0.5,23.1c0.8,9.4,2.3,21.8,4.3,34.6c1.4,9.1,2.5,13.9,3.6,17.4
		c1.7,5.7,8,10.6,17.8,10.6c9.8,0,16.1-5,17.8-10.6c1-3.5,2.2-8.4,3.6-17.4c2-12.7,3.5-25.2,4.3-34.6c0.8-9.8,1.3-16,0.5-23.1
		C178.6,180.7,177.3,178.1,174.9,175.6z M127.8,132.5c0,13.8,11.2,25,25,25c13.8,0,25-11.2,25-25c0-13.8-11.2-25-25-25
		C139,107.5,127.8,118.7,127.8,132.5z M152.5,33.9C94,34,46.1,81.5,45.4,139.9c-0.6,47.4,29.6,87.9,71.9,102.7
		c1,0.4,2.1-0.5,1.9-1.6c-0.6-3.7-1.1-7.4-1.6-11c-0.2-1.3-1-2.4-2.2-2.9c-33.4-14.6-56.7-48-56.3-86.8c0.5-50.9,42-92.4,92.9-92.8
		c52-0.4,94.5,41.8,94.5,93.7c0,38.4-23.2,71.4-56.3,85.9c-1.2,0.5-2,1.6-2.2,2.9c-0.5,3.6-1,7.3-1.6,11c-0.2,1.1,0.9,1.9,1.9,1.6
		c41.8-14.7,71.9-54.6,71.9-101.4C260.2,82,211.9,33.7,152.5,33.9z M150.5,83.1c33.1-1.3,60.5,25.3,60.5,58.2
		c0,16.7-7.1,31.8-18.4,42.4c-1,0.9-1.5,2.2-1.4,3.5c0.2,4,0.1,7.9-0.1,12.3c-0.1,1.2,1.2,1.9,2.2,1.3c19-13,31.5-34.8,31.5-59.5
		c0-40.6-33.8-73.5-74.8-71.9c-38.1,1.5-68.6,32.9-69.1,71c-0.3,25.1,12.2,47.3,31.5,60.4c1,0.7,2.3-0.1,2.2-1.3
		c-0.3-4.4-0.3-8.3-0.1-12.3c0.1-1.3-0.4-2.6-1.4-3.5c-11.7-11-18.8-26.7-18.4-44C95.4,109.3,120,84.3,150.5,83.1z"/>
</g>
</svg>
