<?xml version="1.0" encoding="utf-8"?>
<!-- Generator: Adobe Illustrator 21.0.2, SVG Export Plug-In . SVG Version: 6.00 Build 0)  -->
<svg version="1.1" id="Layer_1" xmlns="http://www.w3.org/2000/svg" xmlns:xlink="http://www.w3.org/1999/xlink" x="0px" y="0px"
	 viewBox="0 0 305.5 305.5" style="enable-background:new 0 0 305.5 305.5;" xml:space="preserve">
<style type="text/css">
	.st0{fill:#FFFFFF;}
</style>
<g>
	<g>
		<path class="st0" d="M152.8,0C68.4,0,0,68.4,0,152.8s68.4,152.8,152.8,152.8s152.8-68.4,152.8-152.8C305.5,68.4,237.1,0,152.8,0z
			 M222.8,220.3c-2.7,4.5-8.6,5.9-13.1,3.2c-35.9-21.9-81-26.9-134.2-14.7c-5.1,1.2-10.2-2-11.4-7.2c-1.2-5.1,2-10.2,7.2-11.4
			c58.2-13.3,108.1-7.6,148.4,17C224.1,210,225.6,215.8,222.8,220.3z M241.5,178.7c-3.5,5.6-10.8,7.4-16.4,3.9
			c-41.1-25.2-103.6-32.5-152.2-17.8c-6.3,1.9-13-1.6-14.9-7.9c-1.9-6.3,1.7-12.9,7.9-14.9c55.5-16.8,124.5-8.7,171.6,20.3
			C243.2,165.8,244.9,173.1,241.5,178.7z M243.1,135.4c-49.2-29.2-130.5-31.9-177.5-17.7c-7.5,2.3-15.5-2-17.8-9.5
			c-2.3-7.6,2-15.5,9.5-17.8c54-16.4,143.7-13.2,200.3,20.4c6.8,4,9,12.8,5,19.6C258.7,137.2,249.9,139.5,243.1,135.4z"/>
	</g>
</g>
</svg>
