<?xml version="1.0" encoding="utf-8"?>
<!-- Generator: Adobe Illustrator 19.2.1, SVG Export Plug-In . SVG Version: 6.00 Build 0)  -->
<svg version="1.1" class="mitacs" id="layer" xmlns="http://www.w3.org/2000/svg" xmlns:xlink="http://www.w3.org/1999/xlink" x="0px" y="0px"
viewBox="20 234 600 220" style="enable-background:new 20 234 600 220;" xml:space="preserve">
<polyline points="170.9,405.1 133.5,405.1 151.4,317.1 111.6,405.1 77.5,405.1 73.9,317.1 55.8,405.1 20.3,405.1 43.5,293.1 
	104.6,293.1 104.7,359.3 132.3,293.1 194,293.1 "/>
<polyline points="227.5,405.1 188.2,405.1 205.8,319.7 245.1,319.7 "/>
<path d="M528.6,346.9c-4.4-2.7-10.6-4.4-15.7-4.4c-14.2,0-25.1,10.7-25.1,25.2c0,10.1,7.5,14.8,16.8,14.8c6.4,0,12.6-1.5,18.1-4.9
	l-4.2,25.4c-9.6,3-19.8,4-29.9,4c-21.6,0-42.6-7.7-42.6-33.6c0-37.3,27.4-55.4,61.1-55.4c9.3,0,18.8,0.8,27.8,3.7"/>
<path d="M613.2,343.7c-7.8-3.2-16.2-5.4-24.7-5.4c-3.6,0-13.2,0.3-13.2,5.7c0,9.7,39.5,7.2,39.5,29.4c0,28.9-29.9,33.6-51.9,33.6
	c-11.4,0-22.8-1.7-33.8-4.7l6.5-23.4c7.8,4.3,16.8,7,25.8,7c4.1,0,15.5-0.3,15.5-6.4c0-8.1-38.5-5.2-38.5-29.4
	c0-26.9,31.8-32.4,52.1-32.4c10.1,0,20.1,1.7,29.9,4"/>
<path d="M404.6,319.6c-0.3,0-0.4,1.8-0.5,3c-6.3-2.8-14.1-4.2-22.3-4.2c-6.9,0-13.3,1-19.2,2.7l31,22.8l0,0c5.9,3,7.8,10.3,5.8,18.6
	c-2.7,11.2-11.2,19.8-22.1,19.8c-3.3,0-5.9-0.8-8-2.1l0,0l-0.1-0.1l-1-0.8l-38.9-30.2c-2,4.3-3.3,8.8-4,13.5
	c-3.5,24.9,12.3,44,44,44c5.4,0,12.3-2.4,18.7-6.4c-0.4,1.8-0.7,3.5-1,4.8h40.7c0.5-3.9,0.5-8.2,2.6-18.8l13.8-66.7
	C437.2,319.7,404.6,319.6,404.6,319.6"/>
<path d="M270.1,305.2l-2.9,14.4h-13.9l-5.1,24.5h13.9l-6.2,29.7c-0.8,3.9-1.3,7.7-1.3,11.8c0,16.3,10.1,21.3,24.5,21.3
	c12.1,0,22.4-2.3,28.6-4.2l4.1-24.7c-2.8,1-5.9,1.5-8.8,1.5c-4.4,0-7-1.7-7-6.5c0-1.5,0.2-2.9,0.5-4.4l5.1-24.5h17.8l0.5-2.4
	l-47.8-37.1"/>
<path d="M258.8,255.2c0,11.4-8.9,20.6-20,20.6c-11,0-20-9.2-20-20.6c0-11.4,8.9-20.5,20-20.5C249.9,234.7,258.8,243.9,258.8,255.2"
	/>
</svg>
