<svg class="ad-block-bt-logo" xmlns="http://www.w3.org/2000/svg" xmlns:xlink="http://www.w3.org/1999/xlink" viewBox="0 0 398.8 179.26">
  <defs>
    <style>.cls-1{fill:none;}.cls-2{opacity:0.8;}.cls-3{fill:#1d1f28;}.cls-4{clip-path:url(#clip-path);}.cls-5{clip-path:url(#clip-path-2);}.cls-6{fill:#42b88b;}</style>
    <clipPath id="clip-path" transform="translate(2.7 2.78)">
      <path class="cls-1" d="M280.78,19.36a18.67,18.67,0,0,1,12.31-4.7c10.22,0,16.75,6.06,16.75,17.71V56.1c0,4.07,0,4.07-4.29,4.07s-4.19,0-4.19-4.07V32.92c0-6.31-3.4-9.91-9.42-9.91a15.25,15.25,0,0,0-11.19,5.51V56.19c0,4,0,4-4.2,4s-4.28,0-4.28-4V4.4c0-4.4,0-4.4,4.24-4.4s4.24,0,4.24,4.4Zm-35.27-4.7c9.88,0,15.61,5.76,17.22,10.17a12.16,12.16,0,0,1,.84,3.56c0,1.06-.76,1.27-3.05,2a17.58,17.58,0,0,1-3.43.86c-.89,0-1-.89-1.65-2.29a10.46,10.46,0,0,0-10-6.14c-6.53,0-10.72,4.15-11.15,9.91a85.7,85.7,0,0,0,0,9.88c.6,6.1,4.54,10.13,11.15,10.13a10.3,10.3,0,0,0,9.92-6.23c.6-1.36.81-2.25,1.74-2.25a13.78,13.78,0,0,1,3.39.89c2.68.93,3.18,1.19,3.18,2.08a11.32,11.32,0,0,1-1.06,3.6C261,54.56,256.21,61,245.32,61c-11.07,0-18.74-7.71-19.46-17.5a94.5,94.5,0,0,1,0-11.66C226.48,21.78,234.53,14.66,245.51,14.66Zm-36.36,20c1.15,0,1.06,0,1.15-1.14.34-7-4-11.53-10.73-11.53-7.67,0-11.36,4.83-11.19,12.67Zm9,1.15c0,5-.51,5.3-5.09,5.3H188.38v1.22c0,7,4.87,10.81,11.74,10.81a22.5,22.5,0,0,0,9.41-1.78,9,9,0,0,1,2.76-1c.89,0,1.4.76,2.46,3a7.28,7.28,0,0,1,.89,2.71c0,.63-.47,1.14-2.21,2a32.1,32.1,0,0,1-13.27,2.84c-12.12,0-19.16-7.5-19.92-18.22a83.13,83.13,0,0,1,0-10.47c.89-10.89,8.56-17.63,19.2-17.63,11.37,0,18.7,7.54,18.7,18.73ZM172.55,58.9a25.73,25.73,0,0,1-10.17,2c-9.54,0-13.78-6.49-13.78-15V9.53c0-4.45,0-4.45,4.2-4.45s4.28,0,4.28,4.45v5.89h11.79c4.11,0,4.11.13,4.11,4.07s0,3.86-4.11,3.86H157.09V46.06c0,4.24,1.95,6.87,6.32,6.87a17.2,17.2,0,0,0,6.1-1.15,9.13,9.13,0,0,1,2.12-.46c1.06,0,1.36.76,2.21,2.92s.8,2.5.8,2.84c0,.76-.7,1.27-2.06,1.86ZM85.87,22.8c-7.29,0-10.35,4.19-10.81,10.13a86.3,86.3,0,0,0,0,8.81C75.52,48.22,78.7,52,85.74,52a18,18,0,0,0,10.35-3.09V25.51A20.89,20.89,0,0,0,85.9,22.84Zm18.7,34.79c0,13-8.57,19.54-19.08,19.54A29.13,29.13,0,0,1,71.2,73.52c-2.42-1.27-3.14-1.78-3.14-2.79,0-.6.3-1.19,1.36-3C70.86,65.36,71.2,65,72.13,65c.76,0,2,.84,3.94,1.86a19,19,0,0,0,9.42,2.29c6.14,0,10.64-3.65,10.64-11V56.82a25.61,25.61,0,0,1-11.58,2.79c-10.81,0-17-6.35-18-16.82a70.18,70.18,0,0,1,0-10.85c.93-10.51,7.5-17.33,19.29-17.33,7.84,0,14.75,3,17,4.7a3.57,3.57,0,0,1,1.66,3.44ZM52.32,15.42c4.28,0,4.28,0,4.28,4.32V56.19c0,4,0,4-4.28,4s-4.2,0-4.2-4V19.74C48.09,15.42,48.09,15.42,52.32,15.42ZM29.67,42.67a98.1,98.1,0,0,0,0-10c-.46-6.36-3.64-9.79-10.17-9.79A23.77,23.77,0,0,0,8.6,25.59v23.9a20.23,20.23,0,0,0,10.09,3.14C25.39,52.59,29.09,49.25,29.67,42.67Zm8.42-11.1a96.09,96.09,0,0,1,0,12C37.24,54,30.33,61,18.84,61a32.13,32.13,0,0,1-17.13-5.3A3.28,3.28,0,0,1,.09,52.46V4.36C.09,0,.09,0,4.37,0S8.61,0,8.61,4.36V17.08A30.66,30.66,0,0,1,20,14.66C30.9,14.66,37.22,21.06,38.09,31.57Z" />
    </clipPath>
    <clipPath id="clip-path-2" transform="translate(2.7 2.78)">
      <path class="cls-1" d="M130.54,38c0,4.79,0,4.79-4.76,4.79s-4.67,0-4.67-4.79,0-4.65,4.67-4.65S130.54,33.31,130.54,38Z" />
    </clipPath>
  </defs>
  <g id="Layer_2" data-name="Layer 2">
    <g id="Layer_1-2" data-name="Layer 1">
      <g class="cls-2">
        <path class="cls-3" d="M25.15,110.58c-.55,0-.66.37-.84,1.18-1.29,5.09-2.45,9.83-3.57,14.73a.2.2,0,0,1-.2.17c-.13,0-.17-.06-.2-.17-1.14-4.77-2.08-8.65-3.47-14-.46-1.8-.46-1.8-2.87-1.8s-2.33,0-2.79,1.8c-1.2,4.53-2.26,9.18-3.4,14a.18.18,0,0,1-.2.17.2.2,0,0,1-.22-.17c-1.2-5.14-2.3-9.46-3.64-14.73-.19-.83-.31-1.18-.92-1.18a7.62,7.62,0,0,0-1.42.22c-1.24.28-1.41.43-1.41.92a10.81,10.81,0,0,0,.33,1.6l4.12,15c.46,1.8.46,1.8,2.9,1.8,2.72,0,2.72,0,3.12-1.8l3.38-13.25a.2.2,0,0,1,.2-.14.18.18,0,0,1,.19.14l3.32,13.25c.41,1.8.41,1.8,3,1.8s2.56,0,3-1.8l4.11-15a8.89,8.89,0,0,0,.3-1.62c0-.4-.17-.55-1.44-.84A7.19,7.19,0,0,0,25.15,110.58Z" transform="translate(2.7 2.78)" />
        <path class="cls-3" d="M34,110.71c-1.81,0-1.81,0-1.81,1.87v15.8c0,1.73,0,1.73,1.81,1.73s1.86,0,1.86-1.73v-15.8C35.88,110.71,35.88,110.71,34,110.71Zm2.08-4.89c0-2,0-2-2.08-2s-2,0-2,2,0,2.12,2,2.12,2.07,0,2.07-2.12Z" transform="translate(2.7 2.78)" />
        <path class="cls-3" d="M52.36,129.58c.59-.26.9-.48.9-.81a3.48,3.48,0,0,0-.35-1.23c-.37-.94-.49-1.27-.95-1.27a3.69,3.69,0,0,0-.92.2,7.29,7.29,0,0,1-2.65.5c-1.89,0-2.74-1.14-2.74-3v-9.82h5.11c1.78,0,1.78,0,1.78-1.68s0-1.76-1.78-1.76H45.65v-2.55c0-1.93,0-1.93-1.85-1.93s-1.82,0-1.82,1.93v15.78c0,3.71,1.84,6.52,6,6.52A11,11,0,0,0,52.36,129.58Z" transform="translate(2.7 2.78)" />
        <path class="cls-3" d="M61.22,112.42v-6.49c0-1.91,0-1.91-1.84-1.91s-1.84,0-1.84,1.91v22.45c0,1.73,0,1.73,1.86,1.73s1.82,0,1.82-1.73v-12A6.55,6.55,0,0,1,66.07,114c2.6,0,4.07,1.56,4.07,4.3v10c0,1.76,0,1.76,1.82,1.76s1.86,0,1.86-1.76V118.06c0-5-2.83-7.68-7.26-7.68A8,8,0,0,0,61.22,112.42Z" transform="translate(2.7 2.78)" />
      </g>
      <path class="cls-3" d="M280.78,19.36a18.67,18.67,0,0,1,12.31-4.7c10.22,0,16.75,6.06,16.75,17.71V56.1c0,4.07,0,4.07-4.29,4.07s-4.19,0-4.19-4.07V32.92c0-6.31-3.4-9.91-9.42-9.91a15.25,15.25,0,0,0-11.19,5.51V56.19c0,4,0,4-4.2,4s-4.28,0-4.28-4V4.4c0-4.4,0-4.4,4.24-4.4s4.24,0,4.24,4.4Zm-35.27-4.7c9.88,0,15.61,5.76,17.22,10.17a12.16,12.16,0,0,1,.84,3.56c0,1.06-.76,1.27-3.05,2a17.58,17.58,0,0,1-3.43.86c-.89,0-1-.89-1.65-2.29a10.46,10.46,0,0,0-10-6.14c-6.53,0-10.72,4.15-11.15,9.91a85.7,85.7,0,0,0,0,9.88c.6,6.1,4.54,10.13,11.15,10.13a10.3,10.3,0,0,0,9.92-6.23c.6-1.36.81-2.25,1.74-2.25a13.78,13.78,0,0,1,3.39.89c2.68.93,3.18,1.19,3.18,2.08a11.32,11.32,0,0,1-1.06,3.6C261,54.56,256.21,61,245.32,61c-11.07,0-18.74-7.71-19.46-17.5a94.5,94.5,0,0,1,0-11.66C226.48,21.78,234.53,14.66,245.51,14.66Zm-36.36,20c1.15,0,1.06,0,1.15-1.14.34-7-4-11.53-10.73-11.53-7.67,0-11.36,4.83-11.19,12.67Zm9,1.15c0,5-.51,5.3-5.09,5.3H188.38v1.22c0,7,4.87,10.81,11.74,10.81a22.5,22.5,0,0,0,9.41-1.78,9,9,0,0,1,2.76-1c.89,0,1.4.76,2.46,3a7.28,7.28,0,0,1,.89,2.71c0,.63-.47,1.14-2.21,2a32.1,32.1,0,0,1-13.27,2.84c-12.12,0-19.16-7.5-19.92-18.22a83.13,83.13,0,0,1,0-10.47c.89-10.89,8.56-17.63,19.2-17.63,11.37,0,18.7,7.54,18.7,18.73ZM172.55,58.9a25.73,25.73,0,0,1-10.17,2c-9.54,0-13.78-6.49-13.78-15V9.53c0-4.45,0-4.45,4.2-4.45s4.28,0,4.28,4.45v5.89h11.79c4.11,0,4.11.13,4.11,4.07s0,3.86-4.11,3.86H157.09V46.06c0,4.24,1.95,6.87,6.32,6.87a17.2,17.2,0,0,0,6.1-1.15,9.13,9.13,0,0,1,2.12-.46c1.06,0,1.36.76,2.21,2.92s.8,2.5.8,2.84c0,.76-.7,1.27-2.06,1.86ZM85.87,22.8c-7.29,0-10.35,4.19-10.81,10.13a86.3,86.3,0,0,0,0,8.81C75.52,48.22,78.7,52,85.74,52a18,18,0,0,0,10.35-3.09V25.51A20.89,20.89,0,0,0,85.9,22.84Zm18.7,34.79c0,13-8.57,19.54-19.08,19.54A29.13,29.13,0,0,1,71.2,73.52c-2.42-1.27-3.14-1.78-3.14-2.79,0-.6.3-1.19,1.36-3C70.86,65.36,71.2,65,72.13,65c.76,0,2,.84,3.94,1.86a19,19,0,0,0,9.42,2.29c6.14,0,10.64-3.65,10.64-11V56.82a25.61,25.61,0,0,1-11.58,2.79c-10.81,0-17-6.35-18-16.82a70.18,70.18,0,0,1,0-10.85c.93-10.51,7.5-17.33,19.29-17.33,7.84,0,14.75,3,17,4.7a3.57,3.57,0,0,1,1.66,3.44ZM52.32,15.42c4.28,0,4.28,0,4.28,4.32V56.19c0,4,0,4-4.28,4s-4.2,0-4.2-4V19.74C48.09,15.42,48.09,15.42,52.32,15.42ZM29.67,42.67a98.1,98.1,0,0,0,0-10c-.46-6.36-3.64-9.79-10.17-9.79A23.77,23.77,0,0,0,8.6,25.59v23.9a20.23,20.23,0,0,0,10.09,3.14C25.39,52.59,29.09,49.25,29.67,42.67Zm8.42-11.1a96.09,96.09,0,0,1,0,12C37.24,54,30.33,61,18.84,61a32.13,32.13,0,0,1-17.13-5.3A3.28,3.28,0,0,1,.09,52.46V4.36C.09,0,.09,0,4.37,0S8.61,0,8.61,4.36V17.08A30.66,30.66,0,0,1,20,14.66C30.9,14.66,37.22,21.06,38.09,31.57Z" transform="translate(2.7 2.78)" />
      <g class="cls-4">
        <rect class="cls-3" width="315.34" height="82.72" />
      </g>
      <g class="cls-5">
        <rect class="cls-6" x="121.03" y="33.31" width="14.99" height="14.99" />
      </g>
      <path class="cls-3" d="M148,127.69c-.85.49-1.68,1-2.54,1.45-1.53.8-3.06,1.6-4.65,2.29a13.82,13.82,0,0,1-3.14.93c-1.19.2-1.89-.51-2.28-1.61s-1.2-1.38-2-.43a8.3,8.3,0,0,1-3.21,2.1,2.77,2.77,0,0,1-3.49-1.81c0-.1-.06-.2-.08-.3-.23-2.26.8-3.68,2.4-5,.64-.5,1.13-1.18,1.77-1.67a26.35,26.35,0,0,1,3.1-2.15c.85-.48,1.55,0,2.08.73a14.85,14.85,0,0,0,1.1,1.28l1.5-1.57c.32-.34.6-.88,1-1s.88.24,1.26.49c.21.14.29.5.49.9-1.19,1.58-2.49,3.19-3.65,4.89a7.6,7.6,0,0,0-.79,2.26c0,.16.18.56.31.58.84.12,1.61.58,2.55.1,2.41-1.25,4.91-2.34,7.34-3.54.41-.21.67-.71,1.06-1a34,34,0,0,0,6.71-5.73,9.15,9.15,0,0,1,2.56-1.85c.85-.49,1.64-.41,2.09.86-.89.9-1.82,1.9-2.81,2.83A32.6,32.6,0,0,1,154,124c-.55.43-1.18.74-1.73,1.16a3.4,3.4,0,0,0-1,1c-1,1.86-2,3.76-2.89,5.57l1.38,1.66a14,14,0,0,0,2-.61,35.54,35.54,0,0,0,5.34-2.68c3.44-2.41,6.77-5,10-7.64.65-.53.82-1.64,1.3-2.43.21-.35.69-.85,1-.8a10,10,0,0,1,1.88.8c.42,1.53-.78,2.31-1.3,3.34-1,1.9-2.14,3.72-3.18,5.6-.85,1.55-1.61,3.15-2.47,4.7-.33.62-.82,1.15-1.2,1.74s-.56,1-.83,1.46l.32.3c2.25-1.17,4.52-2.29,6.74-3.53,1.64-.91,3.17-2,4.81-2.93a2.78,2.78,0,0,0,1.46-2.73,5.35,5.35,0,0,1,.9-2.87c.68-1.22,1.16-2.55,1.78-3.81.24-.5.65-.91.94-1.39,1.88-3.12,3.69-6.29,5.64-9.36,1.37-2.14,2.94-4.14,4.41-6.21s2.73-4,4.26-5.9c2-2.46,4.17-4.79,6.33-7.13.85-.92,1.86-1.69,2.79-2.55,2.2-2,5.06-2.71,7.73-3.77a2.44,2.44,0,0,1,.85-.08c2.81,0,3.45,1.64,2.93,3.87a12.63,12.63,0,0,1-2.35,4.81c-1,1.34-1.8,2.82-2.81,4.15s-2.11,2.35-3.13,3.56-1.82,2.38-2.8,3.51a16.55,16.55,0,0,1-2.55,2.54,10.16,10.16,0,0,0-2.69,3,4.33,4.33,0,0,1-1.36,1.16,9.46,9.46,0,0,0-2.42,2.3,14.76,14.76,0,0,1-2.63,2.3c-.62.53-1.25,1-1.9,1.53a7.65,7.65,0,0,1-1,.58,6.43,6.43,0,0,1-.95,1.46c-1.62,1.37-3.3,2.67-5,4-1.19.95-2.44,1.83-3.55,2.86a3.6,3.6,0,0,0-1.31,3.37.81.81,0,0,1-.18.58c-1.27,1.6-1.42,3.56-1.65,5.45-.16,1.35,1.51,2.93,3,3.17,2.2.37,4-.57,5.74-1.74,2.33-1.6,4.58-3.32,6.77-5.1,2.93-2.37,5.82-4.8,8.64-7.3a33.11,33.11,0,0,0,2.47-2.94,34.21,34.21,0,0,1,3-3.09c1-.88,2-.34,2.2,1a1.15,1.15,0,0,0,.43.72,3.91,3.91,0,0,1,1.54,3.56,7.84,7.84,0,0,1-1.84,4.21c-.91,1.26-1.68,2.64-2.68,3.82a13.41,13.41,0,0,1-5,3.79c-.45.19-.89.38-1.34.54-1.36.5-2.2-.28-3-1.21a2.57,2.57,0,0,1-.18-2.66,21.56,21.56,0,0,1,1.3-2.9l-.2-.21a37.56,37.56,0,0,1-3.13,2.9c-1.38,1.16-2.81,2.25-4.24,3.35-2.33,1.78-4.7,3.55-7.62,4.21a12.5,12.5,0,0,1-4,.16,3.31,3.31,0,0,1-3-3.1c-.15-1-.13-2.11-.19-3.17a8,8,0,0,0-.07-1.23c-1,.6-1.79,1.18-2.67,1.63-1.39.72-2.84,1.34-4.25,2-1.71.82-3.36,1.79-5.13,2.44s-2.55,2.33-3.45,3.81-1.56,2.7-2.32,4.07c-1,1.88-2,3.79-3.09,5.65-.84,1.46-1.76,2.87-2.67,4.29a5.12,5.12,0,0,1-.71.76c-.24.26-.62.49-.68.79-.3,1.45-1.46,2.35-2.23,3.47a34.52,34.52,0,0,1-4.23,5.33,85.09,85.09,0,0,1-8.06,7,19.67,19.67,0,0,1-5,2.34c-1.42.53-3.47-.07-3.56-2,0-.14-.18-.26-.24-.41-.19-.49-.6-1-.51-1.49a32.42,32.42,0,0,1,1.38-5.84,31.06,31.06,0,0,1,2.94-5.25c1.21-1.87,2.56-3.65,3.87-5.46a35.63,35.63,0,0,1,7.09-7c1.56-1.24,3-2.59,4.63-3.81a15,15,0,0,1,2.18-1.21c.7-.39,1.39-.82,2.11-1.17.94-.47,1.91-.86,2.85-1.3,2.26-1.07,4.52-2.12,6.74-3.24a2.45,2.45,0,0,0,.86-1l3-5.82c.77-1.5,1.49-3,2.28-4.51a6.87,6.87,0,0,0,.8-1.39.67.67,0,0,0-.38.07c-1.52,1.11-3,2.28-4.57,3.33-1.32.89-2.73,1.65-4.11,2.46-.18.11-.43.16-.54.32-1.12,1.53-2.78,1.92-4.48,2.41a16,16,0,0,1-1.93.48,2.8,2.8,0,0,1-3.2-1.33,3.65,3.65,0,0,1,.08-4c.32-.42.61-.86.91-1.3l-.13-.2m-19.55,38.28c0,.22.21.74,0,1-1.2,2-1.3,4.11-1.34,6.27a1.68,1.68,0,0,0,1.65,1.71,1.79,1.79,0,0,0,.51-.07,19.72,19.72,0,0,0,7.31-3.61,47.19,47.19,0,0,0,10.81-11.78c1.68-2.52,3.22-5.14,4.8-7.73,1-1.69,2.07-3.4,3.06-5.13s1.94-3.48,2.89-5.23a3.4,3.4,0,0,0,.17-.83l-2.15.91c-1.67.7-3.1,2-5,2.08-.16,0-.32.21-.46.34s-.49.61-.81.74c-.84.35-1.73.58-2.58.89a2.08,2.08,0,0,0-.76.51,19.2,19.2,0,0,1-1.37,1.48c-.51.41-1.19.6-1.7,1s-1.11,1.11-1.7,1.62c-1.53,1.33-3.2,2.53-4.62,4s-2.27,3-3.6,4.37a23.87,23.87,0,0,0-3.52,5c-.31.54-.47,1.16-.79,1.7a3.89,3.89,0,0,1-.81.76m50.85-42.32a7.28,7.28,0,0,0,.88-.56,37.82,37.82,0,0,1,3.56-2.74,75.64,75.64,0,0,0,6.6-5.52c1.4-1.21,2.78-2.45,4.16-3.68,1.86-1.68,3.77-3.31,5.55-5.08,1.45-1.44,2.72-3.06,4.07-4.62,1.54-1.78,3.15-3.52,4.59-5.39a37.24,37.24,0,0,0,2.79-4.34,17.85,17.85,0,0,0,1.51-3.26c.35-1.09-.35-1.84-1.49-1.68a11.51,11.51,0,0,0-2.65.7,30.33,30.33,0,0,0-6.87,4.12,4,4,0,0,0-.59.57c-1.17,1.33-2.15,2.94-3.57,3.9-1,.68-1.46,1.78-2.51,2.31a2.43,2.43,0,0,0-.94.86,21.45,21.45,0,0,1-3,3.84,32.84,32.84,0,0,0-3.17,4.5q-1.83,2.76-3.63,5.53c-.38.58-.74,1.18-1.07,1.8a14.54,14.54,0,0,1-.91,1.86,18.67,18.67,0,0,0-3.34,6.88m28.83.16a3.74,3.74,0,0,0-.28-1.14A1.55,1.55,0,0,0,207,122a1.09,1.09,0,0,0-.89.45c-1.48,3.11-4.06,5.31-6.42,7.67a5.94,5.94,0,0,0-2,2.64,8.9,8.9,0,0,0-.07,1.71,11,11,0,0,0,1.62,0,2,2,0,0,0,.95-.44c1-.76,1.89-1.56,2.83-2.35a19.14,19.14,0,0,0,4.2-5.19,14.27,14.27,0,0,0,.9-2.7m-79.62,5.85c.27.37.54.87.64.84q1.5-.49,3-1.14c.35-.15.58-.54.91-.74a7.57,7.57,0,0,0,1.83-1,13.22,13.22,0,0,0,1.67-2.68.91.91,0,0,0-.18-.88,3.07,3.07,0,0,0-3.54.38q-1.53,1.69-3,3.44c-.46.55-.86,1.14-1.36,1.8m26.06-8,.24.28,1.88-1.59-.24-.28-1.88,1.59" transform="translate(2.7 2.78)" />
      <path class="cls-3" d="M219.54,91.25c-.42-2.47,2.16-3.5,2.91-5.73-1.41-.34-2.74-.75-4.1-1-2.58-.41-5.18-.69-7.77-1-1.75-.23-3.49-.5-5.24-.72-2.79-.36-5.58-.78-8.38-1-3.17-.26-6.36-.37-9.54-.51-3.77-.16-7.53-.36-11.3-.42s-7.48,0-11.22.08c-3.38,0-6.76.07-10.14.16a49.89,49.89,0,0,0-5.47.34c-.34,0-.66.65-.88,1.06a3.7,3.7,0,0,0-.08,1.15c-.83-.58-1.26-.36-1.77.27a11.82,11.82,0,0,1-2.48,2.31,12.88,12.88,0,0,0-3.16,3.5c-3.4,4.85-6.9,9.62-10.27,14.47-1,1.43-1.68,3.06-2.58,4.56-1.71,2.85-3.47,5.67-5.21,8.5l-.19.26c-1.53,2.7-3,5.4-4.61,8.08-.94,1.59-2,3.12-2.93,4.71-2.1,3.56-4.28,7.07-6.2,10.72-1.68,3.19-3.05,6.53-4.54,9.81-.26.56-.44,1.15-.65,1.72l.37.19,3.34-5.38.46.23a31,31,0,0,1-1,3,21.23,21.23,0,0,1-1.57,2.63c-.69,1.1-1.44,2.17-2.24,3.2a1.47,1.47,0,0,1-1.26.3,1.13,1.13,0,0,1-.55-1,21.23,21.23,0,0,1,1.17-4.71c1.34-3,2.91-5.9,4.45-8.81,1.64-3.09,3.34-6.14,5-9.2.88-1.57,1.81-3.11,2.76-4.65,2.88-4.7,5.8-9.38,8.67-14.1,1.4-2.29,2.61-4.7,4.08-7,3.24-5,6.53-10,9.92-14.84,2.31-3.33,4.83-6.53,7.25-9.79l.65-.93h-2.53a36.15,36.15,0,0,0-3.75.13c-1,.07-2,.26-3,.37-3.5.39-7,.72-10.5,1.15-2,.26-4.08.66-6.13,1-2.57.39-5.16.72-7.73,1.13-2.25.37-4.5.81-6.74,1.24s-4.3.82-6.43,1.28a10.85,10.85,0,0,0-1.75.66c-.88.38-1.75.78-2.63,1.17-.6.26-1.19.57-1.8.78-.35.11-.87.24-1.11.08a1.73,1.73,0,0,1-.87-2,1.56,1.56,0,0,1,1-.71c1.71-.36,3.44-.67,5.17-1,2.19-.37,4.39-.67,6.57-1.06,3.71-.67,7.4-1.45,11.12-2.07,2.74-.46,5.51-.77,8.27-1.12,2.52-.32,5-.63,7.57-.91,1.93-.21,3.86-.37,5.79-.55,3.12-.29,6.24-.61,9.36-.85,2.14-.16,4.29-.24,6.44-.32q3.48-.15,7-.23c3.17-.06,6.34-.08,9.5-.13,2.2,0,4.4-.13,6.59-.17.67,0,1.33.12,2,.12,1.69,0,3.38-.07,5.06,0,2.65.12,5.3.33,7.95.52l14.31,1c2.91.23,5.82.47,8.71.87,1.92.26,3.79,1,5.7,1.16a32,32,0,0,1,6.91,1.46c.47.14.84.62,1.25.94-.32.34-.58.83-1,1a6.87,6.87,0,0,0-3.25,2.6,12.86,12.86,0,0,1-2.4,2.14l-.35-.28" transform="translate(2.7 2.78)" />
      <path class="cls-3" d="M222.54,118.66l1.45.46c0,2.24-1,4.43.36,6.51.07.1.14.25.24.3a5,5,0,0,0,4.76.24c1.87-1,3.85-1.77,5.6-2.92.64-.42,1.6-.58,2-1.59.22-.56,1.18-.89,1.87-1.17.21-.09.63.34,1,.53a2.66,2.66,0,0,0,.07.39c-1,.65-2.29,1.09-2.93,2a7.4,7.4,0,0,1-2.41,2c-1.4.84-2.95,1.39-4.38,2.18a6.74,6.74,0,0,1-3.62.86,5.7,5.7,0,0,1-3.26-1.58c-1.47-1.2-1.29-2.79-1.69-4.46a4.34,4.34,0,0,0-.72.7c-.49.8-.9,1.65-1.42,2.43-.65,1-1.38,1.89-2.09,2.82-1.18,1.55-2.28,3.17-3.6,4.59-.73.78-1.07,1.92-2.28,2.34-.68.24-1.09.08-1.31-.36a1.58,1.58,0,0,1,0-1.31c1.11-1.88,2.3-3.72,3.46-5.56,1.48-2.34,3-4.66,4.42-7,.64-1,1.16-2.17,1.87-3.16s1.63-1.94,2.46-2.89,1.2.07,1.71.29c.18.08.23.94,0,1.29a18.27,18.27,0,0,1-1.56,2.06m-2.63,3.6c-.2,0-.5,0-.59.15-1.18,1.53-2.33,3.08-3.48,4.63l.34.26c1-1.18,1.93-2.35,2.86-3.56a11,11,0,0,0,.84-1.5c.35-.24.69-.49,1.07-.74-.42-1.16,1.23-1.22,1.32-2.27a12.24,12.24,0,0,0-1.69,1.44,6.54,6.54,0,0,0-.67,1.59" transform="translate(2.7 2.78)" />
      <path class="cls-3" d="M317,75.67a11,11,0,0,1,4.84,1.58c4.81,2.52,6.2,8.87,4.94,13.19-.81,2.76-1.68,5.5-2.58,8.23a36.56,36.56,0,0,1-1.88,4.85c-1.16,2.31-2.43,4.58-3.81,6.77-1.06,1.68-2.35,3.2-3.52,4.8-.76,1-1.39,2.21-2.24,3.18-1.33,1.5-2.2,3.31-3.54,4.79s-2.78,3.12-4.13,4.7l-6,7.1a3.86,3.86,0,0,1-.71.63,7.32,7.32,0,0,0-2,2,18.47,18.47,0,0,1-3.36,3.07c-.43.38-.81.8-1.25,1.15-1.15.92-2.6,1.48-3.29,3-.22.46-.93.69-1.41,1-1.72,1.21-3.52,2.32-5.14,3.65a23.32,23.32,0,0,1-7.61,3.71,11.17,11.17,0,0,1-6.4.29c-4.13-1.07-6.41-4-8.3-7.54a31.84,31.84,0,0,1-2.23-6.93,11,11,0,0,1-.16-2.29c-.05-1.14-.1-2.28-.09-3.42,0-2.17-.07-4.35.13-6.51a35.25,35.25,0,0,1,2.32-10.58,78.32,78.32,0,0,1,3.44-7.23c1.43-2.68,3-5.28,4.56-7.88a33.13,33.13,0,0,1,2-2.85,71.58,71.58,0,0,1,4.91-6.21c1.46-1.53,2.66-3.55,5-4a2.85,2.85,0,0,1,2.94.85c.44.5,1,.91,1.41,1.43a2.69,2.69,0,0,1,.26.92c-.3.06-.68.26-.89.15-1.38-.8-2.61-.13-4,.19s-1.78,1.67-2.77,2.38a19,19,0,0,0-2.67,2.78c-.85.92-1.73,1.81-2.5,2.79-1,1.3-2,2.65-2.89,4-1.2,1.89-2.29,3.85-3.43,5.79-.45.77-.92,1.53-1.31,2.33-.81,1.71-1.64,3.41-2.34,5.17a31.13,31.13,0,0,0-.94,3.53c-.18.71-.35,1.43-.49,2.14a13.47,13.47,0,0,0-.23,1.55c0,.21.11.47,0,.63-1.09,2-.43,4.24-.53,6.36s.15,3.93.15,5.89a14.47,14.47,0,0,0,.74,4.66c.28,1.14.61,2.26,1,3.37,1.06,2.33,2.94,3.86,4.8,5.44.34.28.92.26,1.37.45,2.27,1,4.55.32,6.8,0a8.79,8.79,0,0,0,2.81-1.22,87.11,87.11,0,0,0,7.78-4.63c2.29-1.64,4.29-3.68,6.42-5.55,1.8-1.59,3.63-3.15,5.39-4.79.94-.88,1.71-1.94,2.6-2.87.57-.6,1.28-1.07,1.81-1.69,2.66-3.08,5.37-6.12,7.88-9.32s5-6.7,7.35-10.14a54,54,0,0,0,6.91-13.2c.33-1,.81-1.88,1.2-2.81a6.36,6.36,0,0,0,.43-1.2c.4-2,.82-4.06,1.11-6.11a7.82,7.82,0,0,0-.2-2.41,8.57,8.57,0,0,0-3.68-6,1.58,1.58,0,0,0-.66-.26c-1.83-.15-3.67-.33-5.52-.38a5.62,5.62,0,0,0-1.93.5c-1.75.62-3.53,1.19-5.24,1.93a21.85,21.85,0,0,0-2.84,1.68c-.23.15-.43.42-.69.47-1.84.42-3,1.87-4.52,2.82a47.76,47.76,0,0,0-4.26,2.94c-1.66,1.31-3.22,2.76-4.83,4.12-.56.47-1.2.84-1.73,1.34s-.6.93-1,1.3c-1.59,1.51-3.22,3-4.83,4.46a13.13,13.13,0,0,0-1.17,1.07c-2.34,2.79-4.69,5.58-7,8.43a24.63,24.63,0,0,0-1.64,2.75,6.49,6.49,0,0,1-.7.78,6.67,6.67,0,0,0-.81,1c-.69,1.27-1.28,2.59-2,3.84-.63,1.09-1.47,2.06-2.05,3.17a44.32,44.32,0,0,0-4.6,11.8c-.43,2.23.1,4.28,0,6.41a3.63,3.63,0,0,0,.66,1.64c.42.82.93,1.6,1.3,2.44a2.88,2.88,0,0,1,0,1.17c-.39-.17-1-.22-1.15-.52-.51-.82-.78-1.8-1.31-2.61-1-1.48-.82-3.2-1.08-4.8a11.46,11.46,0,0,1,.33-4.36,66.73,66.73,0,0,1,2.54-8.18,38,38,0,0,1,3.22-6c2-3.18,4-6.34,6.18-9.4,1.48-2.09,3.21-4,4.87-6s3.22-3.93,5-5.72c2.54-2.53,5.23-4.9,7.88-7.32.84-.77,1.78-1.45,2.63-2.22a60,60,0,0,1,9.82-6.74,32.3,32.3,0,0,1,8.48-3.9c1.26-.32,2.55-.53,3.82-.79" transform="translate(2.7 2.78)" />
      <path class="cls-3" d="M365.27,129c-.5.34-1,.64-1.49,1-1,.78-1.89,1.61-2.86,2.38a20.19,20.19,0,0,1-3.43,2.52,23.58,23.58,0,0,1-5.23,1.85c-1.4.32-3.71-1.41-4.09-2.83a8.31,8.31,0,0,1-.4-2.67,8,8,0,0,1,.74-2.18,9,9,0,0,1,.68-1.81c1.14-1.7,1.88-3.67,3.53-5,.53-.44.7-1.29,1.17-1.84.84-1,1.78-1.87,2.67-2.81.27-.27.49-.58.87-.65l1-.41a1.68,1.68,0,0,1,.39-.16c.79-.16,2.38,1.6,2.34,2.39a4.75,4.75,0,0,1-1.85,3.32c-1.34,1.25-2.7,2.47-4,3.72-.72.68-1.34,1.46-2.08,2.1a16.79,16.79,0,0,1-1.93,1.31,3.28,3.28,0,0,0-1.17,4c.49,1.59.92,1.91,2.64,1.68a10.19,10.19,0,0,0,2.71-.8,18.78,18.78,0,0,0,3.23-1.7c1.17-.79,2.23-1.77,3.34-2.66.58-.45,1.2-.87,1.8-1.31l1.5-1.11a22.88,22.88,0,0,0,2.26-1.52,19.6,19.6,0,0,0,3.48-3.51,39,39,0,0,1,3.07-4,4.7,4.7,0,0,1,3.08-1.88,1.09,1.09,0,0,1,.91.52,1.16,1.16,0,0,1-.3,1,5.75,5.75,0,0,1-1.3.68c-.61.34-1.34.55-1.34,1.47,0,.14-.27.28-.4.43-1,1.05-1.94,2.07-2.84,3.16s-1.88,2.52-2.88,3.75c-.33.43-1.44.3-.87,1.44.82-.51,1.69-1,2.47-1.55,1.71-1.25,3.36-2.58,5.06-3.84,1-.77,2.34-1.11,3.27-2.09a1.3,1.3,0,0,1,1.23-.25,3.33,3.33,0,0,1,1.09,1.45,3.41,3.41,0,0,1,.18,1.76,10.15,10.15,0,0,1-.76,2.08c-.29.71-.63,1.41-.93,2.12a6.59,6.59,0,0,0-.66,1.71,2.78,2.78,0,0,0,.32,1.72,1.49,1.49,0,0,0,1.29.4c1.63-.43,3.19-1.08,4.82-1.48,2.3-.58,3.83-2.33,5.69-3.57a25.69,25.69,0,0,0,3.17-3,2.35,2.35,0,0,1,.77-.56,2.43,2.43,0,0,1,.85,0c0,.31.07.75-.09.91-1.42,1.33-2.86,2.64-4.33,3.91-.59.51-1.3.87-1.87,1.39a13.74,13.74,0,0,1-4.73,2.69,22.29,22.29,0,0,1-2.64,1,10.56,10.56,0,0,1-2.79.39,2.63,2.63,0,0,1-2.46-2.79v-.06c.43-2.06,1.09-4.08,1.66-6.12a5.47,5.47,0,0,0,.26-.9c.06-.77-.4-1.09-1-.65-1.6,1.08-3.22,2.16-4.71,3.38-2.05,1.69-4,3.57-6,5.25a6.13,6.13,0,0,1-2.41.9c-.55.13-1.24-1.15-.92-1.69a7.75,7.75,0,0,1,.9-1c.28-.33.53-.68.79-1l-.45-.43m-5.61-10.45c-.58-.07-1.31-.4-1.59-.17a24.59,24.59,0,0,0-2.51,2.69c-.54.63-1,1.35-1.52,2-.81,1-1.67,1.94-2.49,2.92a.49.49,0,0,0,0,.47.64.64,0,0,0,.52.19,3.26,3.26,0,0,0,1-.55c1.18-1,2.36-2,3.47-3a15.76,15.76,0,0,0,1.93-2.31,18.67,18.67,0,0,0,1.17-2.21" transform="translate(2.7 2.78)" />
      <path class="cls-3" d="M343.49,119.32c-.24-.35-.82-.82-.85-1.32a1.55,1.55,0,0,1,1.37-1.54,5.9,5.9,0,0,1,2-.28,2.07,2.07,0,0,1,1.95,2.2,1.91,1.91,0,0,1-.13.62,24.71,24.71,0,0,1-3.68,8.27c-1,1.29-1.82,2.76-3.35,3.6-.48.26-.76.88-1.13,1.33-.1.14-.18.32-.32.39-2.35,1.19-4.47,2.85-7.14,3.36a3.69,3.69,0,0,1-3.83-2.62,9.61,9.61,0,0,1-.68-2.41c.1-1.69.49-3.37.75-5,.07-.42.14-.83.2-1.24l-.28-.14a20.08,20.08,0,0,0-2,1.42Q321,131,315.6,136a27.87,27.87,0,0,1-2.74,2.58,7.34,7.34,0,0,1-2.73,1.08c-.81.16-1.83-1.73-1.54-2.63a35.07,35.07,0,0,1,4.8-8.89c1.39-2,2.68-4.08,4.09-6.06s2.8-3.65,4.14-5.51c.9-1.23,1.73-2.53,2.53-3.83.65-1.07,1.24-1.35,2.08-.86a2.21,2.21,0,0,1,.65,2.79c-.26.34-.63.57-.92.89q-1.69,1.92-3.37,3.86c0,.05-.08.12-.13.17a64.29,64.29,0,0,0-5.88,7.09,32,32,0,0,0-2.41,4.17c-.3.52-.65,1-.95,1.53-.62,1.1-1.23,2.21-1.81,3.33-.1.19,0,.46-.06.92a16.79,16.79,0,0,0,1.95-1.28c1.83-1.6,3.61-3.26,5.41-4.89,1.44-1.3,2.87-2.6,4.33-3.88,2-1.71,3.92-3.41,5.91-5.08a9.84,9.84,0,0,1,1.52-.85c1.14,1,1.21,2.46.65,4.11a34.87,34.87,0,0,0-1.46,5.86,6.54,6.54,0,0,0,.57,2.65.86.86,0,0,0,.67.46c.88,0,1.81.47,2.63-.39.34-.36,1.05-.34,1.53-.6a36.56,36.56,0,0,0,3.18-1.9,16.6,16.6,0,0,0,1.55-1.47,21.7,21.7,0,0,0,4.48-5.65,29,29,0,0,0,1.75-4,5.24,5.24,0,0,0,.11-1.63l-.28-.22-2.42,1.48" transform="translate(2.7 2.78)" />
    </g>
  </g>
</svg>
