<svg class="ad-block-bt-logo-sm" xmlns="http://www.w3.org/2000/svg" xmlns:xlink="http://www.w3.org/1999/xlink" viewBox="0 0 183.35 48.1"><defs><style>.cls-1{fill:none;}.cls-2{fill:#1d1f28;}.cls-3{clip-path:url(#clip-path);}.cls-4{clip-path:url(#clip-path-2);}.cls-5{fill:#42b88b;}</style><clipPath id="clip-path" transform="translate(1.52 1.57)"><path class="cls-1" d="M163.31,11.3a10.79,10.79,0,0,1,7.17-2.73c5.94,0,9.74,3.52,9.74,10.3V32.66c0,2.37,0,2.37-2.49,2.37s-2.44,0-2.44-2.37V19.19c0-3.68-2-5.77-5.47-5.77a8.84,8.84,0,0,0-6.51,3.2V32.71c0,2.32,0,2.32-2.44,2.32s-2.49,0-2.49-2.32V2.6c0-2.56,0-2.56,2.46-2.56s2.47,0,2.47,2.56ZM142.8,8.57c5.75,0,9.07,3.35,10,5.91a7,7,0,0,1,.49,2.07c0,.62-.44.74-1.77,1.16a10,10,0,0,1-2,.51c-.52,0-.57-.51-1-1.33a6.08,6.08,0,0,0-5.8-3.57c-3.79,0-6.24,2.42-6.48,5.77a50,50,0,0,0,0,5.74,6.47,6.47,0,0,0,12.25,2.27c.35-.79.47-1.31,1-1.31a7.66,7.66,0,0,1,2,.52c1.56.54,1.85.69,1.85,1.2a7,7,0,0,1-.61,2.1c-.94,2.17-3.73,5.89-10.06,5.89a10.91,10.91,0,0,1-11.26-10.14,58.81,58.81,0,0,1,0-6.77c.32-5.88,5-10,11.39-10ZM121.66,20.22c.66,0,.62,0,.66-.66.2-4.09-2.31-6.71-6.23-6.71-4.46,0-6.61,2.81-6.51,7.37Zm5.25.67c0,2.88-.3,3.08-3,3.08H109.58v.71c0,4.09,2.83,6.28,6.83,6.28a13.15,13.15,0,0,0,5.47-1,5.1,5.1,0,0,1,1.6-.57c.52,0,.82.45,1.43,1.78a4.16,4.16,0,0,1,.52,1.57c0,.37-.27.67-1.28,1.14a18.54,18.54,0,0,1-7.72,1.65c-7.05,0-11.14-4.36-11.58-10.6a47.44,47.44,0,0,1,0-6.08c.52-6.34,5-10.25,11.17-10.25,6.61,0,10.87,4.38,10.87,10.89ZM100.4,34.36a15,15,0,0,1-5.92,1.18c-5.55,0-8-3.77-8-8.75V5.58C86.48,3,86.48,3,88.92,3s2.49,0,2.49,2.58V9h6.85c2.39,0,2.39.07,2.39,2.36s0,2.25-2.39,2.25H91.41v13.2c0,2.47,1.13,4,3.67,4a10,10,0,0,0,3.55-.67,5.28,5.28,0,0,1,1.24-.27c.61,0,.78.44,1.28,1.7a4.59,4.59,0,0,1,.47,1.65C101.61,33.67,101.19,34,100.4,34.36ZM50,13.36c-4.24,0-6,2.44-6.28,5.89a48.77,48.77,0,0,0,0,5.13c.27,3.77,2.12,5.93,6.21,5.93a10.35,10.35,0,0,0,6-1.82V14.87A12.42,12.42,0,0,0,50,13.36ZM60.87,33.55c0,7.54-5,11.36-11.1,11.36a17.12,17.12,0,0,1-8.31-2.09c-1.4-.74-1.82-1-1.82-1.63,0-.35.17-.69.79-1.73.84-1.37,1-1.6,1.58-1.6A8.92,8.92,0,0,1,44.3,39a11,11,0,0,0,5.47,1.33c3.58,0,6.19-2.12,6.19-6.41v-.76a14.84,14.84,0,0,1-6.73,1.62c-6.29,0-9.89-3.69-10.45-9.78a41.54,41.54,0,0,1,0-6.31C39.32,12.53,43.14,8.57,50,8.57a19,19,0,0,1,9.88,2.73,2.06,2.06,0,0,1,1,2ZM30.47,9C33,9,33,9,33,11.52V32.71C33,35,33,35,30.47,35S28,35,28,32.71V11.52C28,9,28,9,30.47,9ZM17.3,24.85a56.88,56.88,0,0,0,0-5.84c-.27-3.65-2.12-5.65-5.92-5.65a13.68,13.68,0,0,0-6.33,1.58v13.9a11.87,11.87,0,0,0,5.87,1.82C14.81,30.62,17,28.7,17.3,24.85Zm4.91-6.49a54.5,54.5,0,0,1,0,7c-.5,6.09-4.51,10.13-11.2,10.13A18.63,18.63,0,0,1,1,32.41a1.9,1.9,0,0,1-1-1.87v-28C0,0,0,0,2.5,0S5,0,5,2.54V9.93a18,18,0,0,1,6.63-1.4C18,8.57,21.69,12.29,22.21,18.36Z"/></clipPath><clipPath id="clip-path-2" transform="translate(1.52 1.57)"><path class="cls-1" d="M76,22.12c0,2.78,0,2.78-2.76,2.78s-2.72,0-2.72-2.78,0-2.71,2.72-2.71S76,19.41,76,22.12Z"/></clipPath></defs><g id="Layer_2" data-name="Layer 2"><g id="Layer_1-2" data-name="Layer 1"><path class="cls-2" d="M163.31,11.3a10.79,10.79,0,0,1,7.17-2.73c5.94,0,9.74,3.52,9.74,10.3V32.66c0,2.37,0,2.37-2.49,2.37s-2.44,0-2.44-2.37V19.19c0-3.68-2-5.77-5.47-5.77a8.84,8.84,0,0,0-6.51,3.2V32.71c0,2.32,0,2.32-2.44,2.32s-2.49,0-2.49-2.32V2.6c0-2.56,0-2.56,2.46-2.56s2.47,0,2.47,2.56ZM142.8,8.57c5.75,0,9.07,3.35,10,5.91a7,7,0,0,1,.49,2.07c0,.62-.44.74-1.77,1.16a10,10,0,0,1-2,.51c-.52,0-.57-.51-1-1.33a6.08,6.08,0,0,0-5.8-3.57c-3.79,0-6.24,2.42-6.48,5.77a50,50,0,0,0,0,5.74,6.47,6.47,0,0,0,12.25,2.27c.35-.79.47-1.31,1-1.31a7.66,7.66,0,0,1,2,.52c1.56.54,1.85.69,1.85,1.2a7,7,0,0,1-.61,2.1c-.94,2.17-3.73,5.89-10.06,5.89a10.91,10.91,0,0,1-11.26-10.14,58.81,58.81,0,0,1,0-6.77c.32-5.88,5-10,11.39-10ZM121.66,20.22c.66,0,.62,0,.66-.66.2-4.09-2.31-6.71-6.23-6.71-4.46,0-6.61,2.81-6.51,7.37Zm5.25.67c0,2.88-.3,3.08-3,3.08H109.58v.71c0,4.09,2.83,6.28,6.83,6.28a13.15,13.15,0,0,0,5.47-1,5.1,5.1,0,0,1,1.6-.57c.52,0,.82.45,1.43,1.78a4.16,4.16,0,0,1,.52,1.57c0,.37-.27.67-1.28,1.14a18.54,18.54,0,0,1-7.72,1.65c-7.05,0-11.14-4.36-11.58-10.6a47.44,47.44,0,0,1,0-6.08c.52-6.34,5-10.25,11.17-10.25,6.61,0,10.87,4.38,10.87,10.89ZM100.4,34.36a15,15,0,0,1-5.92,1.18c-5.55,0-8-3.77-8-8.75V5.58C86.48,3,86.48,3,88.92,3s2.49,0,2.49,2.58V9h6.85c2.39,0,2.39.07,2.39,2.36s0,2.25-2.39,2.25H91.41v13.2c0,2.47,1.13,4,3.67,4a10,10,0,0,0,3.55-.67,5.28,5.28,0,0,1,1.24-.27c.61,0,.78.44,1.28,1.7a4.59,4.59,0,0,1,.47,1.65C101.61,33.67,101.19,34,100.4,34.36ZM50,13.36c-4.24,0-6,2.44-6.28,5.89a48.77,48.77,0,0,0,0,5.13c.27,3.77,2.12,5.93,6.21,5.93a10.35,10.35,0,0,0,6-1.82V14.87A12.42,12.42,0,0,0,50,13.36ZM60.87,33.55c0,7.54-5,11.36-11.1,11.36a17.12,17.12,0,0,1-8.31-2.09c-1.4-.74-1.82-1-1.82-1.63,0-.35.17-.69.79-1.73.84-1.37,1-1.6,1.58-1.6A8.92,8.92,0,0,1,44.3,39a11,11,0,0,0,5.47,1.33c3.58,0,6.19-2.12,6.19-6.41v-.76a14.84,14.84,0,0,1-6.73,1.62c-6.29,0-9.89-3.69-10.45-9.78a41.54,41.54,0,0,1,0-6.31C39.32,12.53,43.14,8.57,50,8.57a19,19,0,0,1,9.88,2.73,2.06,2.06,0,0,1,1,2ZM30.47,9C33,9,33,9,33,11.52V32.71C33,35,33,35,30.47,35S28,35,28,32.71V11.52C28,9,28,9,30.47,9ZM17.3,24.85a56.88,56.88,0,0,0,0-5.84c-.27-3.65-2.12-5.65-5.92-5.65a13.68,13.68,0,0,0-6.33,1.58v13.9a11.87,11.87,0,0,0,5.87,1.82C14.81,30.62,17,28.7,17.3,24.85Zm4.91-6.49a54.5,54.5,0,0,1,0,7c-.5,6.09-4.51,10.13-11.2,10.13A18.63,18.63,0,0,1,1,32.41a1.9,1.9,0,0,1-1-1.87v-28C0,0,0,0,2.5,0S5,0,5,2.54V9.93a18,18,0,0,1,6.63-1.4C18,8.57,21.69,12.29,22.21,18.36Z" transform="translate(1.52 1.57)"/><g class="cls-3"><rect class="cls-2" width="183.35" height="48.1"/></g><g class="cls-4"><rect class="cls-5" x="70.37" y="19.36" width="8.72" height="8.72"/></g></g></g></svg>
