<svg id="Layer_1" data-name="Layer 1" xmlns="http://www.w3.org/2000/svg" viewBox="0 0 174 154.5"><defs><style>.cls-1{fill:#00aeef;}.cls-2{fill:#4f5858;}.cls-3{fill:#f36c23;}</style></defs><title>Artboard 4</title><rect class="cls-1" x="115.68" y="39.2" width="6.57" height="6.57"/><rect class="cls-1" x="108.68" y="49.29" width="5.52" height="5.52"/><rect class="cls-1" x="118.08" y="31.77" width="5.52" height="5.52"/><rect class="cls-1" x="105.8" y="42.91" width="5.51" height="5.52"/><rect class="cls-1" x="84.42" y="6.57" width="5.52" height="5.52"/><rect class="cls-1" x="122.51" y="25.31" width="5.52" height="5.52"/><rect class="cls-1" x="100.85" y="55.7" width="10.95" height="10.95"/><rect class="cls-1" x="103.28" y="68.65" width="8.56" height="8.56"/><rect class="cls-1" x="105.67" y="33.4" width="8.56" height="8.56"/><rect class="cls-1" x="111.5" y="14.46" width="8.57" height="8.57"/><rect class="cls-1" x="117.43" y="7.36" width="8.57" height="8.57"/><rect class="cls-1" x="106.22" y="78.93" width="3.19" height="3.19"/><rect class="cls-1" x="98.85" y="71.55" width="3.19" height="3.19"/><rect class="cls-1" x="93.69" y="69.08" width="3.19" height="3.19"/><rect class="cls-1" x="120.45" y="59.43" width="3.2" height="3.19"/><rect class="cls-1" x="121.54" y="17.13" width="3.19" height="3.19"/><rect class="cls-1" x="125.04" y="20.15" width="3.19" height="3.19"/><rect class="cls-1" x="79.19" y="28.6" width="3.78" height="3.78"/><rect class="cls-1" x="94.12" y="28.07" width="5.63" height="5.63"/><rect class="cls-1" x="93.28" y="35.35" width="5.47" height="5.47"/><rect class="cls-1" x="95.55" y="44.56" width="8.73" height="8.73"/><rect class="cls-1" x="109.89" y="24.1" width="10.95" height="10.95"/><rect class="cls-1" x="90.91" y="50.44" width="10.95" height="10.95"/><rect class="cls-1" x="95.92" y="63.33" width="6.13" height="6.13"/><rect class="cls-1" x="83.87" y="27.04" width="8.69" height="8.69"/><rect class="cls-1" x="76.97" y="34.33" width="5.04" height="5.05"/><rect class="cls-1" x="83" y="21.3" width="5.05" height="5.05"/><rect class="cls-1" x="95.24" y="13.14" width="5.04" height="5.05"/><rect class="cls-1" x="85.22" y="37.13" width="10.95" height="10.95"/><rect class="cls-1" x="82.49" y="49.24" width="6.67" height="6.67"/><rect class="cls-1" x="51.39" y="17.46" width="6.67" height="6.67"/><rect class="cls-1" x="45.11" y="10.67" width="6.67" height="6.67"/><rect class="cls-1" x="58.97" y="10.95" width="6.67" height="6.67"/><rect class="cls-1" x="83.46" y="12.9" width="6.67" height="6.67"/><rect class="cls-1" x="90.36" y="19.7" width="6.67" height="6.67"/><rect class="cls-1" x="82.49" y="57.11" width="4.57" height="4.57"/><rect class="cls-1" x="79.4" y="40.67" width="7.41" height="7.41"/><rect class="cls-1" x="70.17" y="49.75" width="10.95" height="10.95"/><rect class="cls-1" x="70.17" y="62.37" width="10.95" height="10.95"/><rect class="cls-1" x="73.21" y="74.25" width="5.2" height="5.2"/><rect class="cls-1" x="112.77" y="69.81" width="5.2" height="5.2"/><rect class="cls-1" x="68.16" y="78.22" width="3.25" height="3.25"/><rect class="cls-1" x="82.81" y="62.79" width="2.3" height="2.3"/><rect class="cls-1" x="76.89" y="26.3" width="2.3" height="2.3"/><rect class="cls-1" x="93.86" y="8.95" width="2.3" height="2.3"/><rect class="cls-1" x="125.02" y="33.55" width="2.3" height="2.3"/><rect class="cls-1" x="90.91" y="11.01" width="2.3" height="2.3"/><rect class="cls-1" x="112.29" y="10.92" width="2.3" height="2.3"/><rect class="cls-1" x="56.81" y="24.1" width="10.95" height="10.95"/><rect class="cls-1" x="65.94" y="41.47" width="8.48" height="8.48"/><rect class="cls-1" x="57.37" y="46.93" width="10.95" height="10.95"/><rect class="cls-1" x="60.69" y="59.41" width="7.62" height="7.62"/><rect class="cls-1" x="112.62" y="57.38" width="7.17" height="7.17"/><rect class="cls-1" x="63.22" y="68.61" width="6.39" height="6.39"/><rect class="cls-1" x="116.19" y="48.54" width="7.01" height="7.01"/><rect class="cls-1" x="51.5" y="36.18" width="7.33" height="7.34"/><rect class="cls-1" x="59.89" y="37.25" width="5.24" height="5.24"/><rect class="cls-1" x="53.03" y="45.41" width="3.42" height="3.42"/><rect class="cls-1" x="48.75" y="30.82" width="3.42" height="3.42"/><rect class="cls-1" x="52.21" y="27.32" width="3.42" height="3.42"/><rect class="cls-1" x="67.52" y="35.42" width="3.42" height="3.42"/><rect class="cls-1" x="55.85" y="6.46" width="3.42" height="3.42"/><rect class="cls-1" x="63.9" y="6.94" width="3.42" height="3.42"/><rect class="cls-1" x="45.54" y="22.91" width="3.42" height="3.42"/><rect class="cls-1" x="56.27" y="60.35" width="3.44" height="3.44"/><rect class="cls-1" x="56.96" y="67.05" width="3.75" height="3.76"/><rect class="cls-1" x="79.93" y="19.59" width="3.19" height="3.19"/><rect class="cls-1" x="96.3" y="5.2" width="3.19" height="3.19"/><rect class="cls-1" x="127.01" y="13.54" width="4.47" height="4.47"/><rect class="cls-1" x="130.7" y="5.68" width="3.19" height="3.19"/><rect class="cls-1" x="91.4" y="15.54" width="3.19" height="3.19"/><rect class="cls-1" x="79.28" y="6.7" width="3.19" height="3.19"/><rect class="cls-1" x="59.24" y="18.45" width="3.19" height="3.19"/><rect class="cls-1" x="63.71" y="20.01" width="3.19" height="3.19"/><rect class="cls-1" x="46.8" y="17.77" width="3.19" height="3.19"/><rect class="cls-1" x="79.06" y="12.82" width="3.19" height="3.19"/><rect class="cls-1" x="41.55" y="6.11" width="3.2" height="3.19"/><rect class="cls-1" x="41.26" y="13.3" width="3.19" height="3.19"/><rect class="cls-1" x="50.49" y="7.77" width="3.2" height="3.19"/><rect class="cls-1" x="53.7" y="12.14" width="3.2" height="3.19"/><rect class="cls-1" x="113.22" y="7.4" width="2.3" height="2.3"/><rect class="cls-1" x="127.7" y="9.34" width="2.3" height="2.3"/><path class="cls-2" d="M36.23,100.42h-2l-1.61-4.93L31,100.42H29l-2.75-10h2.57l1.3,5.28,1.62-5.28h1.74l1.61,5.28,1.31-5.28H39Z"/><path class="cls-2" d="M45.34,100.42l-.46-1.49H41.8l-.49,1.49H38.74l3.64-10h1.89l3.64,10Zm-2-6.21-.9,2.67h1.74Z"/><path class="cls-2" d="M52.4,92.61v7.81H50V92.61H47.49V90.42h7.37v2.19Z"/><path class="cls-2" d="M56.29,100.42v-10h6.8v2.19H58.75v1.67h3.71v2.19H58.75v1.76h4.34v2.19Z"/><path class="cls-2" d="M69.88,100.42,68.11,96.7h-.82v3.72H64.83v-10h4a3.2,3.2,0,0,1,3.41,3.22,2.87,2.87,0,0,1-1.63,2.61l2.16,4.17Zm-1.2-7.79H67.29v2h1.39a1,1,0,1,0,0-2Z"/><path class="cls-2" d="M74,100.42v-10h2.46v7.81h4.2v2.19Z"/><path class="cls-2" d="M88,99.38a4,4,0,0,1-5.59,0c-1-1-1-2.46-1-4s0-2.91,1-4a4,4,0,0,1,5.59,0c1,1.05,1,2.46,1,4S89,98.33,88,99.38ZM86.17,93a1.23,1.23,0,0,0-1-.43,1.25,1.25,0,0,0-1,.43c-.22.3-.36.64-.36,2.46s.14,2.15.36,2.44a1.26,1.26,0,0,0,1,.45,1.24,1.24,0,0,0,1-.45c.22-.29.36-.61.36-2.44S86.39,93.26,86.17,93Z"/><path class="cls-2" d="M97,99.38a4,4,0,0,1-5.58,0c-1.06-1-1-2.46-1-4s-.05-2.91,1-4a4,4,0,0,1,5.58,0c1.06,1.05,1,2.46,1,4S98,98.33,97,99.38ZM95.15,93a1.33,1.33,0,0,0-2,0c-.23.3-.37.64-.37,2.46s.14,2.15.37,2.44a1.29,1.29,0,0,0,2,0c.23-.29.37-.61.37-2.44S95.38,93.26,95.15,93Z"/><path class="cls-2" d="M108.38,100.42l-.46-1.49h-3.08l-.49,1.49h-2.57l3.64-10h1.89l3.64,10Zm-1.95-6.21-.9,2.67h1.74Z"/><path class="cls-2" d="M117,100.42l-1.76-3.72h-.83v3.72H112v-10h4a3.2,3.2,0,0,1,3.41,3.22,2.87,2.87,0,0,1-1.63,2.61l2.17,4.17Zm-1.2-7.79h-1.39v2h1.39a1,1,0,1,0,0-2Z"/><path class="cls-2" d="M121.11,100.42v-10h6.8v2.19h-4.34v1.67h3.71v2.19h-3.71v1.76h4.34v2.19Z"/><path class="cls-2" d="M135.24,100.42l-.47-1.49H131.7l-.49,1.49h-2.57l3.64-10h1.89l3.64,10Zm-2-6.21-.9,2.67h1.74Z"/><path class="cls-2" d="M137.48,94.14V90.42h2.31v2.07Z"/><path class="cls-2" d="M144.45,100.5a4.87,4.87,0,0,1-3.79-1.32l1.57-1.57a3.24,3.24,0,0,0,2.23.7c1,0,1.43-.32,1.43-.89a.82.82,0,0,0-.19-.59,1.1,1.1,0,0,0-.66-.27l-1.21-.17a3.39,3.39,0,0,1-2-.89,2.76,2.76,0,0,1-.69-2c0-1.83,1.38-3.16,3.66-3.16a4.47,4.47,0,0,1,3.37,1.19l-1.55,1.55a2.44,2.44,0,0,0-1.9-.59c-.85,0-1.2.49-1.2.92a.68.68,0,0,0,.19.47,1.17,1.17,0,0,0,.69.29l1.21.17a3.43,3.43,0,0,1,2,.83,2.92,2.92,0,0,1,.74,2.19C148.31,99.39,146.55,100.5,144.45,100.5Z"/><path class="cls-2" d="M12.5,109.65v12H8.73v-12H5v-3.36h11.3v3.36Z"/><path class="cls-2" d="M27.66,120a5.63,5.63,0,0,1-4.29,1.73A5.62,5.62,0,0,1,19.09,120c-1.62-1.61-1.55-3.76-1.55-6.07s-.07-4.45,1.55-6.07a5.61,5.61,0,0,1,4.28-1.72,5.62,5.62,0,0,1,4.29,1.72c1.61,1.62,1.55,3.77,1.55,6.07S29.27,118.41,27.66,120Zm-2.78-9.84a1.91,1.91,0,0,0-1.51-.66,1.88,1.88,0,0,0-1.5.66c-.35.46-.56,1-.56,3.77s.21,3.3.56,3.75a1.9,1.9,0,0,0,1.5.69,1.92,1.92,0,0,0,1.51-.69c.34-.45.56-1,.56-3.75S25.22,110.64,24.88,110.18Z"/><path class="cls-2" d="M37.88,116.15h-2.3v5.47H31.81V106.29h6.07a4.94,4.94,0,1,1,0,9.86Zm-.17-6.48H35.58v3.1h2.13a1.55,1.55,0,1,0,0-3.1Z"/><path class="cls-2" d="M50.09,121.62V106.29H60.51v3.36H53.86v2.56h5.68v3.36H53.86v2.69h6.65v3.36Z"/><path class="cls-2" d="M73.71,121.62v-7.34l-2.18,3.78H69.12L67,114.28v7.34H63.18V106.29h3.7l3.44,6.76,3.45-6.76h3.7v15.33Z"/><path class="cls-2" d="M86.64,116.15h-2.3v5.47H80.57V106.29h6.07a4.94,4.94,0,1,1,0,9.86Zm-.17-6.48H84.34v3.1h2.13a1.55,1.55,0,1,0,0-3.1Z"/><path class="cls-2" d="M94.07,121.62V106.29h3.77v12h6.44v3.36Z"/><path class="cls-2" d="M115.53,120a6.16,6.16,0,0,1-8.56,0c-1.62-1.61-1.55-3.76-1.55-6.07s-.07-4.45,1.55-6.07a6.19,6.19,0,0,1,8.56,0c1.62,1.62,1.55,3.77,1.55,6.07S117.15,118.41,115.53,120Zm-2.77-9.84a2.06,2.06,0,0,0-3,0c-.34.46-.56,1-.56,3.77s.22,3.3.56,3.75a2,2,0,0,0,3,0c.34-.45.56-1,.56-3.75S113.1,110.64,112.76,110.18Z"/><path class="cls-2" d="M126.32,115.37v6.25h-3.77v-6.25l-4.63-9.08H122l2.41,5.51,2.39-5.51H131Z"/><path class="cls-2" d="M132.5,121.62V106.29h10.42v3.36h-6.66v2.56H142v3.36h-5.69v2.69h6.66v3.36Z"/><path class="cls-2" d="M153.34,121.62l-2.72-5.71h-1.27v5.71h-3.76V106.29h6.07a4.9,4.9,0,0,1,5.23,4.93,4.39,4.39,0,0,1-2.5,4l3.32,6.4Zm-1.86-12h-2.13v3.1h2.13a1.55,1.55,0,1,0,0-3.1Z"/><path class="cls-2" d="M164,121.75c-2.34,0-4.26-.43-5.81-2l2.41-2.41a5,5,0,0,0,3.42,1.08c1.49,0,2.2-.5,2.2-1.38a1.27,1.27,0,0,0-.3-.9,1.67,1.67,0,0,0-1-.41l-1.86-.26a5.22,5.22,0,0,1-3.07-1.36,4.24,4.24,0,0,1-1.06-3.08c0-2.8,2.11-4.84,5.6-4.84a6.83,6.83,0,0,1,5.17,1.83l-2.37,2.37a3.79,3.79,0,0,0-2.91-.91c-1.31,0-1.85.76-1.85,1.42a1,1,0,0,0,.3.71,1.72,1.72,0,0,0,1.06.46l1.85.25a5.16,5.16,0,0,1,3,1.28,4.43,4.43,0,0,1,1.14,3.35C169.91,120,167.22,121.75,164,121.75Z"/><path class="cls-3" d="M54.84,146.1l8.33-9.44A3.14,3.14,0,0,0,64,134.1c0-1,0-2.15-2.26-2.15-1.36,0-2.26.49-2.26,1.39v1.57H54.84v-1.52c0-2.31,3.08-4.22,6.92-4.22,4.8,0,6.83,2.29,6.83,4.87,0,1.88-.09,2.37-1.53,4l-6.79,7.86h8.32v2.78H54.84Z"/><path class="cls-3" d="M72.57,133.34c0-2.59,3.21-4.17,6.87-4.17s6.88,1.58,6.88,4.17v11.37c0,2.58-3.21,4.16-6.88,4.16s-6.87-1.58-6.87-4.16Zm4.61,11.37c0,.79.95,1.39,2.26,1.39s2.27-.6,2.27-1.39V133.34c0-.79-.95-1.39-2.27-1.39s-2.26.6-2.26,1.39Z"/><path class="cls-3" d="M94,132.28l-4.61,2v-2.94l4.61-2h4.61v19.37H94Z"/><path class="cls-3" d="M111.33,140.57l-.09,0a5.48,5.48,0,0,1-1.95.24,6,6,0,0,1-3.89-1.25c-.81-.76-1-1.44-1-4.51,0-2.53.18-3.08,1-3.95,1.17-1.2,3.3-1.88,5.83-1.88a8.41,8.41,0,0,1,5.79,1.88c.9.87,1.08,1.42,1.08,3.95s-.22,2.93-.86,4l-6.05,9.74h-5.16ZM109,136.93c0,.84,1.08,1.39,2.26,1.39s2.26-.55,2.26-1.39v-3.59c0-.85-1.08-1.39-2.26-1.39s-2.26.54-2.26,1.39Z"/></svg>