<?xml version="1.0" encoding="utf-8"?>
<!-- Generator: Adobe Illustrator 22.0.1, SVG Export Plug-In . SVG Version: 6.00 Build 0)  -->
<svg version="1.1" xmlns="http://www.w3.org/2000/svg" xmlns:xlink="http://www.w3.org/1999/xlink" x="0px" y="0px"
	 viewBox="0 0 143.5 143.5" style="enable-background:new 0 0 143.5 143.5;" xml:space="preserve">
<style type="text/css">
	.st0{clip-path:url(#SVGID_2_);}
	.st1{fill:#FFFFFF;}
	.st2{fill:url(#SVGID_5_);}
	.st3{fill:url(#SVGID_6_);}
	.st4{fill:url(#SVGID_7_);}
	.st5{fill-rule:evenodd;clip-rule:evenodd;fill:#FFFFFF;}
	.st6{stroke:#000000;stroke-width:0.6557;stroke-miterlimit:10;}
	.st7{fill-rule:evenodd;clip-rule:evenodd;}
	.st8{fill:#F7941D;}
</style>
<g id="Layer_1">
</g>
<g id="text">
	<g>
		<g>
			<defs>
				<circle id="SVGID_1_" cx="71.7" cy="71.7" r="56.5"/>
			</defs>
			<clipPath id="SVGID_2_">
				<use xlink:href="#SVGID_1_"  style="overflow:visible;"/>
			</clipPath>
			<g class="st0">
				<g>
					<g>
						<g>
							<g>
								<defs>
									<path id="SVGID_3_" d="M47.2,127.2c-2.3-0.4-3.1-2.4-1.9-4.4l24.1-38.1c1.7-2.3,1.6-5.6,0.1-7.9L35.4,23.1
										c-1.5-2.3-0.4-4.2,2.3-4.2h7.8c2.7,0,3.9-1.8,5.4,0.5l27.3,43.4c1.5,2.3,3.8,2.3,5.3,0l25.1-39.7c1.5-2.3,4.9-4.2,7.6-4.2
										l7.8,0c2.7,0,3.8,1.9,2.3,4.2L61,125.8c-1.2,2-4.1,3.2-6.4,2.8L47.2,127.2z M197.6-89.1"/>
								</defs>
								<clipPath id="SVGID_4_">
									<use xlink:href="#SVGID_3_"  style="overflow:visible;"/>
								</clipPath>
							</g>
						</g>
					</g>
					<g>
						<g>
							<path class="st1" d="M-34.2,162.4c-2.3-0.4-3.1-2.4-1.9-4.4l46.5-73.7c1.2-2,1.2-5.2,0-7.2l-15-23.6c-1.2-2-2.8-5.4-3.5-7.6
								c0,0-10.1-32.9-0.8-49.9c9.4-17,42.5-26.1,42.5-26.1c2.2-0.6,5.8-1.1,8-1.1c2.2,0,5.8,0.3,8.1,0.7l27.4,9.2
								c2.1,1.1,5.4,1.1,7.5,0l27.4-9.2c2.3-0.4,5.9-0.7,8.1-0.7c2.2,0,5.8,0.5,8,1.1c0,0,33.2,9.1,42.5,26.1
								c9.4,17-0.8,49.9-0.8,49.9c-0.7,2.2-2.3,5.7-3.5,7.6L85,181.5c-1.2,2-4.1,3.2-6.4,2.8L-34.2,162.4z"/>
						</g>
						<g>
							<path class="st1" d="M-26.2,158.9c-2.3-0.4-3.1-2.4-1.9-4.4l44.3-70.3c1.2-2,1.2-5.2,0-7.2L-0.5,50.9c-1.2-2-2.8-5.4-3.5-7.6
								c0,0-9.1-29.4-0.6-44.9C3.9-17,33.6-25.1,33.6-25.1c2.2-0.6,5.8-1.1,8-1.1c2.2,0,5.8,0.4,8.1,0.8l27.5,10.3
								c2,1.2,5.3,1.2,7.3,0L112-25.4c2.3-0.4,5.9-0.8,8.1-0.8c2.2,0,5.8,0.5,8,1.1c0,0,29.7,8.1,38.2,23.5
								c8.5,15.4-0.6,44.9-0.6,44.9c-0.7,2.2-2.3,5.7-3.5,7.6L82.6,176c-1.2,2-4.1,3.2-6.4,2.8L-26.2,158.9z"/>
						</g>
						<g>
							<linearGradient id="SVGID_5_" gradientUnits="userSpaceOnUse" x1="31.5405" y1="100.2776" x2="59.8828" y2="54.865">
								<stop  offset="0" style="stop-color:#144A9B"/>
								<stop  offset="1" style="stop-color:#3BC6F4"/>
							</linearGradient>
							<path class="st2" d="M-18.2,155.5c-2.3-0.4-3.1-2.4-1.9-4.4l42.1-66.8c1.2-2,1.2-5.2,0-7.2L3.7,48.3c-1.2-2-2.8-5.4-3.5-7.6
								c0,0-8.1-26-0.5-39.8c7.6-13.8,33.9-21,33.9-21c2.2-0.6,5.8-1.1,8-1.1c2.2,0,5.8,0.4,8.1,0.9L77.3-8.6c1.9,1.3,5.1,1.3,7,0
								L112-20.4c2.3-0.5,5.9-0.9,8.1-0.9c2.2,0,5.8,0.5,8,1.1c0,0,26.3,7.1,33.9,21c7.6,13.8-0.5,39.8-0.5,39.8
								c-0.7,2.2-2.3,5.7-3.5,7.6L80.3,170.6c-1.2,2-4.1,3.2-6.4,2.8L-18.2,155.5z"/>
						</g>
						<g>
							<path class="st1" d="M-9,151.5c-2.3-0.4-3.1-2.4-1.9-4.4l39.6-62.8c1.2-2,1.2-5.2,0-7.2L8.5,45.2c-1.2-2-2.8-5.4-3.5-7.6
								c0,0-6.9-22.1-0.3-34.1c6.6-12,28.9-18,28.9-18c2.2-0.6,5.8-1.1,8-1.1c2.2,0,5.8,0.5,8,1.1l28,14.3c1.8,1.5,4.7,1.5,6.5,0
								l28-14.3c2.3-0.6,5.9-1.1,8-1.1c2.2,0,5.8,0.5,8,1.1c0,0,22.3,6.1,28.9,18.1c6.6,12-0.3,34.1-0.3,34.1
								c-0.7,2.2-2.3,5.7-3.5,7.6l-75.6,119c-1.2,2-4.1,3.2-6.4,2.8L-9,151.5z"/>
						</g>
						<g>
							<linearGradient id="SVGID_6_" gradientUnits="userSpaceOnUse" x1="31.6946" y1="100.0214" x2="60.0698" y2="54.5562">
								<stop  offset="0" style="stop-color:#144A9B"/>
								<stop  offset="1" style="stop-color:#3BC6F4"/>
							</linearGradient>
							<path class="st3" d="M0.2,147.5c-2.3-0.4-3.1-2.4-1.9-4.4l37.1-58.9c1.2-2,1.2-5.2,0-7.2L13.2,42.2c-1.2-2-2.8-5.4-3.5-7.6
								c0,0-5.7-18.2-0.1-28.4c5.6-10.2,24-15.1,24-15.1c2.2-0.6,5.8-1.1,8-1.1c2.2,0,5.8,0.5,8,1.1L74.4,4.8c1.7,1.6,3.9,4,4.8,5.4
								c0.9,1.4,2.4,1.4,3.3,0c0.9-1.4,3-3.9,4.8-5.4l24.8-13.7c2.2-0.6,5.8-1.1,8-1.1c2.2,0,5.8,0.5,8,1.1c0,0,18.4,5,24,15.1
								c5.6,10.2-0.1,28.4-0.1,28.4c-0.7,2.2-2.3,5.6-3.5,7.6L74.9,158c-1.2,2-4.1,3.2-6.4,2.8L0.2,147.5z"/>
						</g>
						<g>
							<path class="st1" d="M10.5,143.1c-2.3-0.4-3.1-2.4-1.9-4.4l34.3-54.4c1.2-2,1.2-5.2,0-7.2L18.6,38.8c-1.2-2-2.8-5.4-3.5-7.6
								c0,0-4.3-13.8,0.1-21.9C19.6,1.2,33.6-2.5,33.6-2.5c2.2-0.6,5.9-1.1,8-1.1c2.2,0,5.8,0.5,8,1.1L69.1,8.2
								c1.7,1.6,4.1,4.5,5.4,6.4l4.1,6.5c1.2,2,3.3,2,4.5,0l4.1-6.5c1.2-2,3.7-4.9,5.4-6.4l19.5-10.7c2.2-0.6,5.8-1.1,8-1.1
								c2.2,0,5.8,0.5,8,1.1c0,0,14,3.7,18.4,11.8c4.4,8.1,0.1,21.9,0.1,21.9c-0.7,2.2-2.3,5.6-3.5,7.6L71.8,150.9
								c-1.2,2-4.1,3.2-6.4,2.8L10.5,143.1z"/>
						</g>
						<g>
							<linearGradient id="SVGID_7_" gradientUnits="userSpaceOnUse" x1="31.8545" y1="99.7538" x2="60.2809" y2="54.2065">
								<stop  offset="0" style="stop-color:#144A9B"/>
								<stop  offset="1" style="stop-color:#3BC6F4"/>
							</linearGradient>
							<path class="st4" d="M20.8,138.6c-2.3-0.4-3.1-2.4-1.9-4.4l31.5-50c1.2-2,1.2-5.2,0-7.2L24,35.4c-1.2-2-2.8-5.4-3.6-7.6
								c0,0-3-9.4,0.3-15.4c3.3-6,12.8-8.6,12.8-8.6c2.3-0.6,5.9-1.1,8-1.1c2.2,0,5.8,0.5,8,1.1l14.1,7.8c1.7,1.6,4.2,4.4,5.4,6.4
								l9.5,15c1.2,2,3.3,2,4.5,0l9.5-15c1.2-2,3.7-4.9,5.4-6.4l14.1-7.8c2.2-0.6,5.8-1.1,8-1.1c2.2,0,5.8,0.5,8,1.1
								c0,0,9.5,2.5,12.8,8.6c3.3,6,0.3,15.4,0.3,15.4c-0.7,2.2-2.3,5.6-3.6,7.6L68.8,143.9c-1.2,2-4.1,3.2-6.4,2.8L20.8,138.6z"/>
						</g>
						<g>
							<path class="st1" d="M61.3,84.1c1.2-2,1.2-5.2,0-7.2L31.7,30.5c-1.2-2-2.9-5.4-3.6-7.6c0,0-1-3.1,0.7-6.1
								c1.7-3.1,4.8-3.8,4.8-3.8c2.3-0.6,5.9-1,8-1c2.2,0,5.8-0.1,8.1-0.3c0,0,2.3,1.1,4,2.2c1.7,1,4.1,3.5,5.4,5.5l19.5,30.9
								c1.2,2,3.3,2,4.5,0l17.2-27.3c1.2-2,3.7-4.8,5.4-6.4l6.3-3.5c2.2-0.6,5.8-1.2,8-1.2c2.2,0,5.8,0.5,8,1c0,0,3.1,0.8,4.8,3.8
								c1.7,3.1,0.7,6.1,0.7,6.1c-0.7,2.2-2.3,5.6-3.6,7.6L64.4,133.7c-1.2,2-4.1,3.2-6.4,2.8l-22.2-4.3c-2.3-0.4-3.1-2.4-1.9-4.4
								L61.3,84.1z"/>
						</g>
						<g>
							<g>
								<defs>
									<path id="SVGID_8_" d="M47.2,127.2c-2.3-0.4-3.1-2.4-1.9-4.4l24.1-38.1c1.7-2.3,1.6-5.6,0.1-7.9L35.4,23.1
										c-1.5-2.3-0.4-4.2,2.3-4.2h7.8c2.7,0,3.9-1.8,5.4,0.5l27.3,43.4c1.5,2.3,3.8,2.3,5.3,0l25.1-39.7c1.5-2.3,4.9-4.2,7.6-4.2
										l7.8,0c2.7,0,3.8,1.9,2.3,4.2L61,125.8c-1.2,2-4.1,3.2-6.4,2.8L47.2,127.2z M197.6-89.1"/>
								</defs>
								<linearGradient id="SVGID_9_" gradientUnits="userSpaceOnUse" x1="48.6624" y1="75.1113" x2="67.7333" y2="44.2025">
									<stop  offset="0" style="stop-color:#0DB14B"/>
									<stop  offset="1" style="stop-color:#005826"/>
								</linearGradient>
								<use xlink:href="#SVGID_8_"  style="overflow:visible;fill:url(#SVGID_9_);"/>
								<clipPath id="SVGID_10_">
									<use xlink:href="#SVGID_8_"  style="overflow:visible;"/>
								</clipPath>
							</g>
						</g>
					</g>
					<g>
						<g>
							<g>
								<defs>
									<path id="SVGID_11_" d="M47.2,127.2c-2.3-0.4-3.1-2.4-1.9-4.4l24.1-38.1c1.7-2.3,1.6-5.6,0.1-7.9L35.4,23.1
										c-1.5-2.3-0.4-4.2,2.3-4.2h7.8c2.7,0,3.9-1.8,5.4,0.5l27.3,43.4c1.5,2.3,3.8,2.3,5.3,0l25.1-39.7c1.5-2.3,4.9-4.2,7.6-4.2
										l7.8,0c2.7,0,3.8,1.9,2.3,4.2L61,125.8c-1.2,2-4.1,3.2-6.4,2.8L47.2,127.2z M197.6-89.1"/>
								</defs>
								<clipPath id="SVGID_12_">
									<use xlink:href="#SVGID_11_"  style="overflow:visible;"/>
								</clipPath>
							</g>
						</g>
					</g>
				</g>
			</g>
		</g>
		<path class="st5" d="M143.5,71.7c0,39.6-32.1,71.7-71.7,71.7C32.1,143.5,0,111.4,0,71.7C0,32.1,32.1,0,71.7,0
			C111.4,0,143.5,32.1,143.5,71.7z M71.7,23.6c-26.6,0-48.1,21.6-48.1,48.1s21.6,48.1,48.1,48.1c26.6,0,48.1-21.6,48.1-48.1
			S98.3,23.6,71.7,23.6z"/>
		<g>
			<g>
				<g>
					<g>
						<path d="M36.5,111.3c1.4,1.2,1,2.9-0.1,4.2l-3.8,4.3c-1.1,1.3-2.8,1.8-4.1,0.6c-1.4-1.2-1-2.7,0.1-4l0.8-0.9l0.9,0.8l-0.8,0.9
							c-0.6,0.7-0.7,1.5-0.1,2.1c0.7,0.6,1.4,0.4,2-0.3l4-4.6c0.6-0.7,0.7-1.5,0-2.1c-0.7-0.6-1.4-0.4-2.1,0.3l-0.8,0.9l-0.9-0.8
							l0.8-0.9C33.7,110.6,35.2,110.1,36.5,111.3z"/>
						<path d="M30.4,105.3l-1.8,2.2l1.3,1.6l2.5-1.5l0.9,1l-10.2,6l-0.9-1.1l7.4-9.2L30.4,105.3z M24.6,112.4l4.1-2.5l-1-1.2
							L24.6,112.4z"/>
						<path d="M26,99l-3.5,5l-1.3,1.8l6.5-4.2l0.7,1.1l-9.8,6.3l-0.6-0.9l3.6-5l1.3-1.7l-6.6,4.2l-0.7-1.1l9.8-6.3L26,99z"/>
						<path d="M22.8,92.6l-2.4,1.6l0.9,1.9l2.8-0.7l0.5,1.2l-11.5,2.9l-0.6-1.3l9.7-6.8L22.8,92.6z M15.2,97.8l4.7-1.3l-0.7-1.4
							L15.2,97.8z"/>
						<path d="M20.8,87l0.8,2.6l-11.2,3.4l-0.8-2.6c-0.5-1.7,0.5-2.8,2.3-3.4l5.1-1.6C18.7,84.9,20.2,85.3,20.8,87z M12.4,88.3
							c-1.1,0.3-1.5,0.9-1.3,1.7l0.4,1.2l8.2-2.5l-0.4-1.2c-0.3-0.8-1-1.1-2-0.7L12.4,88.3z"/>
						<path d="M18.9,78.5l-2.7,0.9l0.3,2l2.9,0l0.2,1.3L7.8,82.6l-0.2-1.4l11.2-4L18.9,78.5z M10.2,81.5l4.8,0l-0.2-1.6L10.2,81.5z"
							/>
						<path d="M10.7,76.9l-0.5,0c0-0.5-0.5-0.8-1.2-0.7l0,0.5l-2,0.1L7,75.7l1.7-0.1C9.8,75.5,10.6,75.9,10.7,76.9z"/>
						<path d="M18.8,70.3c0,1.6-1.3,2.6-3,2.5l-0.8,0l0-1.3l0.5,0c1.2,0,1.8-0.4,1.8-1.2c0-0.8-0.6-1.3-1.5-1.3
							c-1,0-1.7,0.3-2.6,1.5c-0.9,1-2,2.1-3.7,2.1c-1.7,0-2.9-1-2.9-2.6c0-1.5,1.3-2.5,3-2.4l0.8,0l0,1.3l-0.5,0
							c-1,0-1.8,0.3-1.8,1.2c0,0.7,0.5,1.1,1.3,1.2c1,0,1.6-0.3,2.7-1.7c1.1-1.4,2.1-2,3.6-1.9C17.6,67.6,18.8,68.8,18.8,70.3z"/>
						<path d="M10.2,56.9l9.9,2.3l-0.3,1.3l-9.9-2.3l-0.4,1.9l-1.5-0.3l1.2-5.1l1.5,0.3L10.2,56.9z"/>
						<path d="M22.1,53.2c-0.6,1.7-2.3,2-4.1,1.3l-5.1-1.9c-1.8-0.7-2.8-2-2.2-3.7c0.6-1.7,2.3-2,4-1.3l5.1,1.9
							C21.7,50.2,22.8,51.5,22.1,53.2z M14.2,48.9c-0.9-0.3-1.8-0.2-2.1,0.6c-0.3,0.8,0.2,1.5,1.2,1.8l5.4,2
							c0.9,0.3,1.8,0.2,2.1-0.6c0.3-0.8-0.2-1.5-1.1-1.8L14.2,48.9z"/>
						<path d="M21.1,43.8L20.4,45l4.1,2.2l-0.6,1.2l-10.3-5.5l1.3-2.4c0.7-1.4,2-1.5,3.4-0.7l1.4,0.8C21.2,41.3,21.8,42.4,21.1,43.8
							z M17.7,41c-0.7-0.4-1.2-0.4-1.5,0.2l-0.7,1.3l3.6,2l0.7-1.3c0.3-0.6,0-1-0.7-1.3L17.7,41z"/>
						<path d="M29.5,39.3l-9-7.4l2.8-3.4l1.2,1l-2,2.4l2.6,2.1l1.4-1.7l1.1,0.9l-1.4,1.7l3,2.5l2-2.4l1.2,1L29.5,39.3z"/>
						<path d="M38.2,30.3l-6-6.8l1.2,1.9l3.6,6l-1,0.9l-5.5-4.3l-1.8-1.4l6,6.8l-0.9,0.8l-7.7-8.7l1.4-1.3l5.8,4.6l1.8,1.4l-1.2-1.9
							L30,22l1.4-1.3l7.7,8.7L38.2,30.3z"/>
						<path d="M41.1,22.7l-1.2,0.8l2.5,3.9l-1.1,0.7L35,18.3l2.3-1.5c1.3-0.8,2.4-0.3,3.3,1.1l0.9,1.4
							C42.4,20.6,42.4,21.8,41.1,22.7z M39.5,18.5c-0.4-0.7-0.8-0.9-1.4-0.6l-1.2,0.8l2.2,3.5l1.2-0.8c0.5-0.3,0.5-0.8,0.1-1.5
							L39.5,18.5z"/>
						<path d="M47.4,24.4l-4.9-10.6l1.2-0.6l4.3,9.2l2.7-1.3l0.6,1.4L47.4,24.4z"/>
						<path d="M55.6,21.3c-1.7,0.5-3-0.6-3.6-2.4l-1.7-5.2c-0.6-1.8-0.2-3.4,1.5-4c1.7-0.6,3,0.6,3.6,2.4l1.7,5.2
							C57.7,19.1,57.3,20.8,55.6,21.3z M54.1,12.4c-0.3-0.9-0.9-1.5-1.8-1.2c-0.8,0.3-1,1.1-0.7,2l1.8,5.5c0.3,1,0.9,1.5,1.8,1.2
							c0.8-0.3,1-1.1,0.7-2L54.1,12.4z"/>
						<path d="M62.3,14.6l0.8,4.6l-1.3,0.2L61,14.8l-3.5-6.5l1.4-0.3l2.5,5L62,7.6l1.3-0.2L62.3,14.6z"/>
						<path d="M67.1,18.7L66.6,7.1L71,6.8l0.1,1.5L68,8.5l0.2,3.3l2.2-0.1l0.1,1.4l-2.2,0.1l0.2,3.9l3.1-0.1l0.1,1.5L67.1,18.7z"/>
						<path d="M78.9,19.1c-1.1-0.1-1.4-0.5-1.3-1.7l0.2-2.3c0.1-0.8-0.2-1.4-0.9-1.4l-1.3-0.1l-0.4,5.1l-1.4-0.1l1-11.6l2.8,0.2
							c1.5,0.1,2.1,1.1,2,2.8l-0.1,1.3C79.3,12.3,79,13,78,13.1c0.9,0.3,1.2,1.2,1.1,2.1l-0.2,2.1c0,0.3,0.1,0.5,0.4,0.5l-0.1,1.2
							L78.9,19.1z M78.2,9.8c0.1-0.7-0.1-1.2-0.8-1.2L76,8.4l-0.3,3.9l1.3,0.1c0.7,0.1,1.1-0.4,1.1-1.2L78.2,9.8z"/>
						<path d="M83.4,20.1c-1.5-0.3-2.3-1.8-1.9-3.5l0.2-0.8l1.3,0.3l-0.1,0.5c-0.3,1.2,0,1.9,0.9,2c0.8,0.2,1.4-0.3,1.6-1.2
							c0.2-1,0-1.7-1-2.9c-0.9-1.1-1.7-2.4-1.3-4.1c0.4-1.6,1.5-2.7,3.1-2.3c1.5,0.3,2.2,1.8,1.8,3.4l-0.2,0.7l-1.3-0.3l0.1-0.5
							c0.2-1,0-1.8-0.9-2c-0.7-0.2-1.2,0.3-1.4,1c-0.2,1,0,1.6,1.1,3c1.1,1.4,1.5,2.5,1.2,3.9C86.2,19.5,84.8,20.4,83.4,20.1z"/>
						<path d="M96.9,13.6l-1.4,3.3l2.1,0.9L97,19.1l-2.1-0.9l-2.1,4.7l-1.2-0.5l4.7-10.7l4,1.8l-0.6,1.4L96.9,13.6z"/>
						<path d="M99.4,26.6c-1.5-0.9-1.5-2.6-0.5-4.2l2.9-4.7c1-1.6,2.5-2.4,4-1.5c1.5,0.9,1.5,2.6,0.5,4.2l-2.9,4.7
							C102.4,26.7,100.9,27.5,99.4,26.6z M105.2,19.6c0.5-0.9,0.5-1.7-0.2-2.1c-0.8-0.5-1.5-0.1-2,0.8l-3,4.9
							c-0.5,0.9-0.5,1.7,0.2,2.1c0.8,0.5,1.5,0.1,2-0.8L105.2,19.6z"/>
						<path d="M107.7,32.5c-0.8-0.7-0.9-1.2-0.1-2.1l1.4-1.8c0.5-0.6,0.6-1.2,0.1-1.7l-1-0.9l-3.2,3.9l-1-0.9l7.4-9l2.1,1.8
							c1.2,1,1.1,2.2,0.1,3.4l-0.8,1c-0.7,0.9-1.4,1.2-2.3,0.8c0.6,0.7,0.3,1.7-0.3,2.4l-1.3,1.6c-0.2,0.2-0.2,0.4,0,0.6l-0.8,1
							L107.7,32.5z M112.4,24.5c0.4-0.5,0.5-1,0.1-1.4l-1.1-0.9l-2.5,3l1,0.8c0.5,0.4,1.1,0.3,1.6-0.4L112.4,24.5z"/>
						<path class="st6" d="M116.9,35.5l-3.6,3l-1-1.2l3.6-3l3.7-6.4l1,1.3l-3,4.8l5.2-2.1l1,1.2L116.9,35.5z"/>
						<path class="st6" d="M117,44.2c-1-1.7-0.3-3.3,1.3-4.3l4.7-2.9c1.6-1,3.3-0.9,4.4,0.8c1,1.7,0.3,3.3-1.3,4.3l-4.7,2.9
							C119.7,46,118,45.9,117,44.2z M125.4,40.8c0.9-0.5,1.2-1.3,0.7-2.1c-0.5-0.8-1.4-0.9-2.2-0.3l-4.9,3c-0.9,0.5-1.2,1.3-0.7,2.1
							c0.5,0.8,1.4,0.9,2.2,0.4L125.4,40.8z"/>
						<path class="st6" d="M120.7,51.5c-0.7-1.6-0.1-3.1,1.7-3.9l8.2-3.4l0.6,1.4L123,49c-1,0.4-1.3,1-0.9,1.9
							c0.4,0.9,1.1,1.1,2,0.7l8.2-3.4l0.6,1.4l-8.2,3.4C122.9,53.8,121.3,53.1,120.7,51.5z"/>
						<path class="st6" d="M124,61.3l4.9-3.9l1.8-1.3l-7.5,1.8l-0.3-1.4l11.3-2.7l0.3,1.2l-5,3.8l-1.8,1.3l7.6-1.8l0.3,1.4
							l-11.3,2.7L124,61.3z"/>
						<path class="st6" d="M125,69.8l0.9-0.4c-0.8-0.3-1.2-1-1.3-2c-0.1-1.8,1.2-2.9,3-3l5.8-0.5c1.7-0.1,3.3,0.7,3.4,2.7
							c0.2,2-1.1,2.9-3,3.1l-0.7,0.1l-0.1-1.4l0.9-0.1c0.8-0.1,1.5-0.5,1.4-1.5c-0.1-1-0.9-1.4-1.7-1.3l-6.1,0.5
							c-0.8,0.1-1.5,0.6-1.5,1.6c0.1,1,0.9,1.4,1.7,1.3l1.8-0.1l-0.1-1.4l1.4-0.1l0.2,2.8l-6,0.5L125,69.8z"/>
						<path class="st6" d="M129,80.3l0.2-1.6l-4.6-0.6l0.2-1.5l11.5,1.6l-0.4,3c-0.2,1.7-1.4,2.3-3,2.1l-1.6-0.2
							C129.7,82.9,128.8,82,129,80.3z M133.2,81.8c0.8,0.1,1.2-0.1,1.3-0.8l0.2-1.6l-4.1-0.6l-0.2,1.6c-0.1,0.7,0.3,1,1.1,1.1
							L133.2,81.8z"/>
						<path class="st6" d="M123.5,84.2l11.2,3.2l-1.4,4.7l-1.4-0.4l0.9-3.3l-3.2-0.9l-0.7,2.4l-1.4-0.4l0.7-2.4l-3.7-1.1l-0.9,3.3
							l-1.4-0.4L123.5,84.2z"/>
						<path class="st6" d="M120.1,93.4c0.8-1.8,2.5-2.1,4.3-1.3l5,2.2c1.7,0.8,2.6,2.2,1.8,4.1c-0.8,1.8-2.5,2.1-4.2,1.3l-5-2.2
							C120.2,96.7,119.2,95.2,120.1,93.4z M127.7,98.4c0.9,0.4,1.8,0.3,2.2-0.6c0.4-0.9-0.1-1.6-1-2l-5.3-2.4
							c-0.9-0.4-1.8-0.3-2.2,0.6c-0.4,0.9,0.1,1.6,1,2L127.7,98.4z"/>
						<path class="st6" d="M120.2,103.4l0.8-1.3l-3.9-2.5l0.8-1.3l9.8,6.3l-1.7,2.6c-0.9,1.4-2.2,1.5-3.6,0.6l-1.4-0.9
							C119.7,106.1,119.3,104.9,120.2,103.4z M123.3,106.6c0.6,0.4,1.2,0.4,1.5-0.2l0.9-1.3l-3.5-2.2l-0.9,1.3
							c-0.4,0.6-0.1,1,0.5,1.5L123.3,106.6z"/>
						<path class="st6" d="M113.6,104.7l8.9,7.6l-1,1.1l-7.7-6.6l-2.2,2.6l-1.1-1L113.6,104.7z"/>
						<path class="st6" d="M109,109.8l7.8,8.7l-3.7,3.3l-1-1.1l2.6-2.3l-2.2-2.5l-1.8,1.7l-1-1.1l1.8-1.7l-2.6-2.9l-2.6,2.3l-1-1.1
							L109,109.8z"/>
					</g>
				</g>
			</g>
			<g>
				<path class="st7" d="M38.1,124.7c-0.2-0.2-0.3-0.4-0.3-0.4c0,0,0.1,0.1,0.3,0.2c0.1,0.1,0.6,0,0.7,0c0.2,0,0.6-0.1,0.5-0.3
					c-0.1-0.2-0.5-0.8-0.6-1c-0.1-0.2-0.4-1.3,0-1c0.1-0.2,0.2-0.7,0.3-0.7c0,0,0.2-0.2,0.2-0.3c0-0.1,0.1-0.4,0.1-0.4
					c0,0,0.2-0.2,0.2-0.3c0-0.2,0.1-0.4,0.2-0.3c0,0.2,0.4,0.3,0.4,0.4c0,0.1,0.2,0.2,0.2,0.1c0,0,0.1,0.1,0.2,0.2
					c0.1,0.2,0.3,0.6,0.4,0.5c0.1,0,0.2-0.1,0.3,0.1s0.2,0.6,0.2,0.9c-0.1,0.3,0.5,0.7,0.6,0.4c0.1-0.3,0.3-1.3,0.4-1.4
					c0-0.1,0.2-0.5,0.3-0.6c0.4-0.8,0.4-0.3,0.5-0.2c0.1,0.1,0.5,0.3,0.7,0.1c0.2-0.2,0.8-0.6,0.8-0.5c0,0.1,0.2,0.2,0.3,0.1
					c0.1-0.1,0.4-0.2,0.5-0.2c0,0,0.2,0,0.4-0.1c0.2-0.1,0.5-0.2,0.4,0c-0.1,0.2-0.1,0.5-0.2,0.6c-0.1,0.1-0.1,0.4,0,0.4
					c0.1,0,0.1,0.2-0.1,0.4c-0.2,0.2-0.2,0.8,0,0.8c0.2,0.1,0.5,0.2,0.4,0.4c-0.1,0.2-0.5,0.5-0.5,0.5c0,0-0.3,0.2-0.7,0.4
					c-0.4,0.1-0.6,0.9-0.2,0.8c0.4-0.2,1.5,0,1.5,0c0,0.1,0.1,0.3,0.3,0.3c0.2,0,0.6,0,0.6,0c0,0,0.1,0.1,0.2,0.1
					c0.1,0,0.4,0.1,0.4,0.1c0,0,0.1,0.1,0.3,0.1c0.2,0,0.5,0.3,0.4,0.4c-0.2,0.1-0.7,0.2-0.7,0.2c0,0-0.1,0.1-0.2,0.2
					c-0.1,0-0.4,0.2-0.4,0.2c0,0,0,0.2-0.2,0.2c-0.2,0-0.7,0.4-0.6,0.5c0.1,0.1,0.2,0.4,0,0.4c-0.1,0-0.6,0.1-0.9,0.1
					s-1.1,0.1-0.9,0.4c0.2,0.2,0.6,0.9,0.6,0.9c0,0,0.1,0.2,0.2,0.4c0.1,0.2,0.2,0.6,0,0.5c-0.3-0.2-0.7-0.1-0.8-0.2
					c-0.1-0.1-0.4-0.2-0.4-0.2c0,0.1-0.2-0.1-0.4-0.3c-0.2-0.2-0.8-0.5-0.9-0.4c0,0.1-0.2,0-0.4-0.4c-0.2-0.4-0.8-0.9-1-0.4
					c-0.4,0.9,0.1,1.6,0,1.6c-0.1,0-0.5,0-0.5-0.6c0-0.5,0.2-1.3,0.4-1.9c-0.2,0.1-0.8,0.3-0.9,0.3c-0.2,0-0.8-0.2-1-0.4
					c-0.2-0.2-0.6-0.7-0.6-0.8c0-0.1-0.1-0.3-0.2-0.3C38.6,125.6,38.3,124.9,38.1,124.7z"/>
			</g>
			<g>
				<path class="st7" d="M105.1,124.7c0.2-0.2,0.3-0.4,0.3-0.4c0,0-0.1,0.1-0.3,0.2c-0.1,0.1-0.6,0-0.7,0c-0.2,0-0.6-0.1-0.5-0.3
					c0.1-0.2,0.5-0.8,0.6-1c0.1-0.2,0.4-1.3,0-1c-0.1-0.2-0.2-0.7-0.3-0.7c0,0-0.2-0.2-0.2-0.3c0-0.1-0.1-0.4-0.1-0.4
					c0,0-0.2-0.2-0.2-0.3c0-0.2-0.1-0.4-0.2-0.3c0,0.2-0.4,0.3-0.4,0.4c0,0.1-0.2,0.2-0.2,0.1c0,0-0.1,0.1-0.2,0.2
					c-0.1,0.2-0.3,0.6-0.4,0.5c-0.1,0-0.2-0.1-0.3,0.1c0,0.1-0.2,0.6-0.2,0.9c0.1,0.3-0.5,0.7-0.6,0.4c-0.1-0.3-0.3-1.3-0.4-1.4
					c0-0.1-0.2-0.5-0.3-0.6c-0.4-0.8-0.4-0.3-0.5-0.2c-0.1,0.1-0.5,0.3-0.7,0.1c-0.2-0.2-0.8-0.6-0.8-0.5c0,0.1-0.2,0.2-0.3,0.1
					s-0.4-0.2-0.5-0.2c0,0-0.2,0-0.4-0.1c-0.2-0.1-0.5-0.2-0.4,0c0.1,0.2,0.1,0.5,0.2,0.6c0.1,0.1,0.1,0.4,0,0.4
					c-0.1,0-0.1,0.2,0.1,0.4c0.2,0.2,0.2,0.8,0,0.8c-0.2,0.1-0.5,0.2-0.4,0.4c0.1,0.2,0.5,0.5,0.5,0.5c0,0,0.3,0.2,0.7,0.4
					c0.4,0.1,0.6,0.9,0.2,0.8c-0.4-0.2-1.5,0-1.5,0c0,0.1-0.1,0.3-0.3,0.3c-0.2,0-0.6,0-0.6,0c0,0-0.1,0.1-0.2,0.1
					c-0.1,0-0.4,0.1-0.4,0.1c0,0-0.1,0.1-0.3,0.1c-0.2,0-0.5,0.3-0.4,0.4c0.2,0.1,0.7,0.2,0.7,0.2c0,0,0.1,0.1,0.2,0.2
					c0.1,0,0.4,0.2,0.4,0.2c0,0,0,0.2,0.2,0.2c0.2,0,0.7,0.4,0.6,0.5c-0.1,0.1-0.2,0.4,0,0.4c0.1,0,0.6,0.1,0.9,0.1
					c0.4,0,1.1,0.1,0.9,0.4c-0.2,0.2-0.6,0.9-0.6,0.9c0,0-0.1,0.2-0.2,0.4c-0.1,0.2-0.2,0.6,0,0.5c0.3-0.2,0.7-0.1,0.8-0.2
					c0.1-0.1,0.4-0.2,0.4-0.2c0,0.1,0.2-0.1,0.4-0.3c0.2-0.2,0.8-0.5,0.9-0.4c0,0.1,0.2,0,0.4-0.4c0.2-0.4,0.8-0.9,1-0.4
					c0.4,0.9-0.1,1.6,0,1.6c0.1,0,0.5,0,0.5-0.6c0-0.5-0.2-1.3-0.4-1.9c0.2,0.1,0.8,0.3,0.9,0.3c0.2,0,0.8-0.2,1-0.4
					c0.2-0.2,0.6-0.7,0.6-0.8c0-0.1,0.1-0.3,0.2-0.3C104.7,125.6,105,124.9,105.1,124.7z"/>
			</g>
		</g>
	</g>
	<g>
		<path class="st8" d="M53.8,132.8l2.4-2c2.4-2,2.8-2.5,3-3.4c0-0.2,0.3-1.4-0.7-1.7c-0.8-0.2-1.3,0.9-1.5,1.6l-1.9-1
			c0.3-0.9,1.4-3.3,4.1-2.7c2.7,0.6,2.4,3.1,2.2,4c-0.4,1.7-1.5,2.8-3.5,4.3l-1.6,1.2l3.5,0.8l-0.5,2l-6.1-1.4L53.8,132.8z"/>
		<path class="st8" d="M67.5,125c2.8,0.2,3.2,3.2,3,6.4c-0.2,3.1-1.1,6.1-3.9,5.9c-2.8-0.2-3.2-3.3-3-6.4
			C63.9,127.7,64.7,124.8,67.5,125z M66.8,135.2c0.8,0.1,1.2-0.9,1.5-4c0.2-3.3-0.1-4.1-0.9-4.1c-0.8-0.1-1.2,0.7-1.5,4
			C65.7,134.2,65.9,135.2,66.8,135.2z"/>
		<path class="st8" d="M76,125.3l2.1-0.2l0.9,11.8l-2.3,0.2l-0.7-8.8l-1.7,2.2l-1.2-1.7L76,125.3z"/>
		<path class="st8" d="M86.1,131.1L86.1,131.1c-0.2,0.2-0.6,0.3-1,0.4c-0.8,0.2-2.5-0.3-3.1-3.1c-0.6-2.8,0.5-4.3,2.3-4.7
			c1.8-0.4,3.4,0.8,4.1,3.5c0.5,2.2-0.1,4.4-0.7,6.3l-0.6,1.9l-2.6,0.6L86.1,131.1z M85.6,129.3c0.3-0.1,0.6-0.3,0.6-0.4
			c0-0.1,0.1-0.8-0.1-1.7c-0.3-1.2-0.8-1.5-1.3-1.4c-0.7,0.2-0.8,1.1-0.6,2C84.4,129,84.8,129.5,85.6,129.3z"/>
	</g>
</g>
</svg>
