<?xml version="1.0" encoding="UTF-8"?>
<svg width="287px" height="56px" viewBox="0 0 287 56" version="1.1" xmlns="http://www.w3.org/2000/svg" xmlns:xlink="http://www.w3.org/1999/xlink">
    <title>Group</title>
    <defs>
        <polygon id="path-1" points="0 0 79 0 79 44 0 44"></polygon>
    </defs>
    <g id="Page-1" stroke="none" stroke-width="1" fill="none" fill-rule="evenodd">
        <g id="Landing-Page-Copy" transform="translate(-577, -5046)">
            <g id="Group" transform="translate(577, 5046)">
                <line x1="114.5" y1="0.5" x2="114.5" y2="55.5" id="Line-2" stroke="#00D26F" stroke-linecap="square"></line>
                <g id="CIGI-logo-acronym-reverse-RGB" transform="translate(0, 6)">
                    <mask id="mask-2" fill="white">
                        <use xlink:href="#path-1"></use>
                    </mask>
                    <g id="Clip-2"></g>
                    <path d="M20,19.8328263 L20,24.3134506 C17.7891807,22.484063 15.500087,21.5710885 13.1361976,21.5710885 C10.530527,21.5710885 8.33536267,22.4960984 6.5524439,24.3461182 C4.75560967,26.185822 3.85806227,28.4364502 3.85806227,31.0980029 C3.85806227,33.726888 4.75560967,35.9448486 6.5524439,37.7518847 C8.3475387,39.5589208 10.5461819,40.4632985 13.1535919,40.4632985 C14.4981736,40.4632985 15.6427205,40.2466605 16.5837537,39.8133845 C17.1090624,39.5967465 17.653505,39.3061764 18.2188207,38.9365163 C18.7823969,38.5685756 19.3755436,38.1267028 20,37.60574 L20,42.1671737 C17.8100539,43.389631 15.5105236,44 13.1031484,44 C9.47990955,44 6.38719777,42.7517524 3.82675248,40.2518185 C1.27500435,37.7295331 0,34.6897236 0,31.1306705 C0,27.9378389 1.06801183,25.0923158 3.20229605,22.592382 C5.8288398,19.5319402 9.22769177,18 13.398852,18 C15.6757697,18 17.8761524,18.610369 20,19.8328263" id="Fill-1" fill="#FFFFFF" mask="url(#mask-2)"></path>
                    <polygon id="Fill-3" fill="#FFFFFF" mask="url(#mask-2)" points="28 43 32 43 32 18 28 18"></polygon>
                    <path d="M55.4296244,30.4879725 L66,30.4879725 L66,31.3161512 C66,33.1975945 65.7736048,34.862543 65.3208143,36.3127148 C64.8785539,37.652921 64.1326781,38.9072165 63.0849421,40.0738832 C60.7086697,42.6924399 57.6883117,44 54.022113,44 C50.4436644,44 47.3776764,42.7353952 44.8276588,40.2044674 C42.2758863,37.6632302 41,34.6134021 41,31.056701 C41,27.4226804 42.2987013,24.3419244 44.8925939,21.8109966 C47.4882415,19.2697595 50.6472446,18 54.3696034,18 C56.3685504,18 58.2358722,18.4003436 59.969814,19.1993127 C61.6265356,20 63.2551773,21.2972509 64.8574939,23.0927835 L62.1056511,25.6718213 C60.008424,22.9347079 57.4513865,21.5687285 54.4362934,21.5687285 C51.7300807,21.5687285 49.4608635,22.4810997 47.6268866,24.3092784 C45.7946648,26.104811 44.8767989,28.3539519 44.8767989,31.056701 C44.8767989,33.8453608 45.8982099,36.1443299 47.9427869,37.9501718 C49.8522289,39.6254296 51.9231309,40.4639175 54.1554932,40.4639175 C56.0544051,40.4639175 57.7602668,39.8367698 59.2730783,38.5824742 C60.7858898,37.3178694 61.6318006,35.8041237 61.8073008,34.0412371 L55.4296244,34.0412371 L55.4296244,30.4879725" id="Fill-4" fill="#FFFFFF" mask="url(#mask-2)"></path>
                    <polygon id="Fill-5" fill="#FFFFFF" mask="url(#mask-2)" points="75 43 79 43 79 18 75 18"></polygon>
                    <polygon id="Fill-6" fill="#FFFFFF" mask="url(#mask-2)" points="0 6 79 6 79 0 0 0"></polygon>
                </g>
                <g id="DPH-logo" transform="translate(149, 2)" fill="#FFFFFF" fill-rule="nonzero">
                    <path d="M0,21 L8.12995246,21 C14.548336,21 18,16.8790323 18,10.6129032 C18,4.23387097 14.4912837,0 8.35816165,0 L0,0 L0,21 Z M3.96513471,17.6693548 L3.96513471,3.33064516 L7.98732171,3.33064516 C12.1521395,3.33064516 13.9492868,6.23790323 13.9492868,10.6129032 C13.9492868,15.016129 12.066561,17.6693548 7.87321712,17.6693548 L3.96513471,17.6693548 Z" id="Shape"></path>
                    <path d="M20,3.47177419 L24,3.47177419 L24,0 L20,0 L20,3.47177419 Z M20.0615385,21 L23.9692308,21 L23.9692308,5.92741935 L20.0615385,5.92741935 L20.0615385,21 Z" id="Shape"></path>
                    <path d="M34.0962672,26 C36.1591356,26 37.9469548,25.5367847 39.1571709,24.5286104 C40.3123772,23.520436 41,22.0217984 41,19.9782016 L41,6.38147139 L37.6168959,6.38147139 L37.6168959,8.26158038 L37.5618861,8.26158038 C36.6817289,6.70844687 35.2789784,6 33.21611,6 C29.6954813,6 27,8.77929155 27,13.1389646 C27,17.4713896 29.8330059,20.1416894 33.4086444,20.1416894 C35.3614931,20.1416894 36.654224,19.3514986 37.5618861,17.9073569 L37.6444008,17.9073569 C37.6168959,18.3978202 37.589391,19.133515 37.589391,19.9237057 L37.589391,20.2779292 C37.589391,22.3760218 36.3791749,23.4659401 34.0412574,23.4659401 C32.1159136,23.4659401 30.9882122,22.866485 30.740668,21.6675749 L27.3850688,21.6675749 C27.7426326,24.4196185 30.1630648,26 34.0962672,26 Z M34.0412574,17.4713896 C31.7583497,17.4713896 30.4656189,15.7547684 30.4656189,13.0844687 C30.4656189,10.4141689 31.7308448,8.69754768 34.0137525,8.69754768 C36.5166994,8.69754768 37.7269155,10.4414169 37.7269155,13.0299728 C37.7269155,15.5640327 36.7092338,17.4713896 34.0412574,17.4713896 Z" id="Shape"></path>
                    <path d="M44,3.47177419 L48,3.47177419 L48,0 L44,0 L44,3.47177419 Z M44.0615385,21 L47.9692308,21 L47.9692308,5.92741935 L44.0615385,5.92741935 L44.0615385,21 Z" id="Shape"></path>
                    <path d="M50,8.24964739 L52.3503185,8.24964739 L52.3503185,17.4739069 C52.3503185,20.1255289 54.0414013,21 56.5063694,21 C57.4808917,21 58.3121019,20.887165 58.9140127,20.77433 L58.9140127,17.9816643 L58.7420382,17.9816643 C58.455414,18.0380818 57.9394904,18.0944993 57.566879,18.0944993 C56.5350318,18.0944993 55.933121,17.7842031 55.933121,16.6840621 L55.933121,8.24964739 L59,8.24964739 L59,5.7954866 L55.933121,5.7954866 L55.933121,1 L52.3503185,1 L52.3503185,5.7954866 L50,5.7954866 L50,8.24964739 Z" id="Path"></path>
                    <path d="M70.5070994,20.6292335 L74,20.6292335 L74,20.372549 C73.6592292,20.144385 73.4320487,19.4884135 73.4320487,18.2335116 L73.4320487,10.2192513 C73.4320487,8.1942959 72.693712,6.73975045 71.2738337,5.88413547 C70.2799189,5.25668449 68.9452333,5 67.2129817,5 C62.8965517,5 60.851927,7.36720143 60.7383367,9.96256684 L64.1460446,9.96256684 C64.2312373,8.45098039 65.2251521,7.50980392 67.2413793,7.50980392 C69.0588235,7.50980392 69.9675456,8.39393939 69.9675456,9.70588235 C69.9675456,11.0748663 68.7180527,11.4741533 66.2190669,11.7878788 C62.6125761,12.2156863 60,13.0427807 60,16.4937611 C60,19.459893 62.2150101,21 65.168357,21 C67.5821501,21 68.9452333,20.0017825 69.9391481,18.6613191 L69.9959432,18.6613191 C70.0527383,19.688057 70.2515213,20.2869875 70.5070994,20.6292335 Z M66.2190669,18.5187166 C64.8275862,18.5187166 63.6064909,18.0338681 63.6064909,16.4081996 C63.6064909,14.7254902 64.8843813,14.2691622 67.0993915,13.8413547 C68.2068966,13.6131907 69.3427992,13.2994652 70.0527383,12.8431373 L70.0527383,15.0962567 C70.0527383,16.8074866 68.6896552,18.5187166 66.2190669,18.5187166 Z" id="Shape"></path>
                    <polygon id="Path" points="76 21 80 21 80 0 76 0"></polygon>
                    <path d="M0,49 L3.90243902,49 L3.90243902,41.0967742 L9.14285714,41.0967742 C13.5191638,41.0967742 16,38.5282258 16,34.5766129 C16,32.7137097 15.358885,31.1895161 14.2439024,29.9758065 C13.1010453,28.7056452 11.3170732,28 8.97560976,28 L0,28 L0,49 Z M3.90243902,31.358871 L8.58536585,31.358871 C10.8432056,31.358871 12.1254355,32.516129 12.1254355,34.6330645 C12.1254355,36.6653226 10.8989547,37.9637097 8.52961672,37.9637097 L3.90243902,37.9637097 L3.90243902,31.358871 Z" id="Shape"></path>
                    <path d="M25.5275735,50 C30.1047794,50 33,46.4822695 33,42 C33,37.4893617 30.1047794,34 25.5275735,34 C20.9503676,34 18,37.4893617 18,42 C18,46.4822695 20.9503676,50 25.5275735,50 Z M25.5,47.2765957 C22.9080882,47.2765957 21.5569853,45.035461 21.5569853,42 C21.5569853,38.9361702 22.9080882,36.6666667 25.5,36.6666667 C28.0643382,36.6666667 29.4430147,38.9361702 29.4430147,42 C29.4430147,45.035461 28.0643382,47.2765957 25.5,47.2765957 Z" id="Shape"></path>
                    <polygon id="Path" points="35 49 39 49 39 28 35 28"></polygon>
                    <path d="M42,31.4717742 L46,31.4717742 L46,28 L42,28 L42,31.4717742 Z M42.0615385,49 L45.9692308,49 L45.9692308,33.9274194 L42.0615385,33.9274194 L42.0615385,49 Z" id="Shape"></path>
                    <path d="M55.3957115,50 C59.2982456,50 61.7816764,47.5602837 62,44.0425532 L58.6159844,44.0425532 C58.4249513,46.0283688 57.2787524,47.1914894 55.3684211,47.1914894 C52.8304094,47.1914894 51.5204678,44.9787234 51.5204678,42 C51.5204678,38.9361702 52.8304094,36.751773 55.3684211,36.751773 C57.1150097,36.751773 58.2066277,37.8014184 58.5341131,39.4468085 L61.9181287,39.4468085 C61.3996101,36.1843972 59.0526316,34 55.3411306,34 C50.8654971,34 48,37.4893617 48,42 C48,46.4822695 50.8927875,50 55.3957115,50 Z" id="Path"></path>
                    <path d="M67.1115312,54 C69.5784499,54 70.8827977,53.0502793 72.1304348,49.7541899 L78,34 L74.3705104,34 L71.9603025,40.9273743 C71.3364839,42.7430168 70.6559546,45.5642458 70.6559546,45.5642458 L70.5992439,45.5642458 C70.5992439,45.5642458 69.9754253,42.7709497 69.3232514,40.9273743 L66.8279773,34 L63,34 L68.2173913,46.9608939 C68.5293006,47.7709497 68.3875236,49.1675978 68.3875236,49.4469274 C68.0756144,50.6480447 67.3950851,51.0949721 66.1758034,51.0949721 C65.8071834,51.0949721 64.8147448,51.0391061 64.6729679,50.9553073 L64.4744802,50.9553073 L64.4744802,53.8324022 C64.7296786,53.9162011 66.657845,54 67.1115312,54 Z" id="Path"></path>
                    <polygon id="Path" points="87 49 90.8712871 49 90.8712871 39.6854839 100.10066 39.6854839 100.10066 49 104 49 104 28 100.10066 28 100.10066 36.4395161 90.8712871 36.4395161 90.8712871 28 87 28"></polygon>
                    <path d="M120,48.6167883 L120,34 L116.522293,34 L116.522293,42.5675182 C116.522293,44.5930657 115.252654,46.0985401 113.265393,46.0985401 C111.498938,46.0985401 110.505308,45.0857664 110.505308,43.3613139 L110.505308,34 L107,34 L107,43.8540146 C107,47.0018248 108.876858,49 112.106157,49 C114.176221,49 115.473461,48.1240876 116.549894,46.5364964 L116.605096,46.5364964 L116.605096,48.6167883 L120,48.6167883 Z" id="Path"></path>
                    <path d="M131.807692,49 C135.630769,49 138,45.9921156 138,41.1905388 C138,36.499343 135.523077,33.4086728 131.834615,33.4086728 C129.788462,33.4086728 128.334615,34.4296978 127.392308,35.9750329 L127.311538,35.9750329 C127.365385,35.2023653 127.419231,34.0157687 127.419231,32.8567674 L127.419231,28 L124,28 L124,48.5308804 L127.311538,48.5308804 L127.311538,46.4060447 L127.392308,46.4060447 C128.253846,48.1445466 129.896154,49 131.807692,49 Z M131.080769,46.130092 C128.603846,46.130092 127.284615,44.0604468 127.284615,41.1905388 C127.284615,38.3758213 128.469231,36.1406045 131.080769,36.1406045 C133.369231,36.1406045 134.526923,38.2654402 134.526923,41.1629435 C134.526923,44.1156373 133.369231,46.130092 131.080769,46.130092 Z" id="Shape"></path>
                </g>
            </g>
        </g>
    </g>
</svg>