<?xml version="1.0" encoding="utf-8"?>
<!-- Generator: Adobe Illustrator 21.0.2, SVG Export Plug-In . SVG Version: 6.00 Build 0)  -->
<svg version="1.1" id="Layer_1" xmlns="http://www.w3.org/2000/svg" xmlns:xlink="http://www.w3.org/1999/xlink" x="0px" y="0px"
	 viewBox="0 0 305.5 305.5" style="enable-background:new 0 0 305.5 305.5;" xml:space="preserve">

		<path d="M152.8-0.1c84.4,0,152.8,68.4,152.8,152.8s-68.4,152.8-152.8,152.8C68.3,305.5-0.1,237.1-0.1,152.8
			C-0.1,68.3,68.3-0.1,152.8-0.1 M165.9,75V61.7c0-7.3-5.9-13.2-13.2-13.2s-13.2,5.9-13.2,13.2v13.2c0,7.3,5.9,13.2,13.2,13.2
			C160.1,88.2,165.9,82.3,165.9,75 M165.9,243.6v-13.2c0-7.3-5.9-13.2-13.2-13.2s-13.2,5.9-13.2,13.2v13.2c0,7.3,5.9,13.2,13.2,13.2
			S165.9,250.9,165.9,243.6 M165.9,190.8v-76c0-7.3-5.9-13.2-13.2-13.2s-13.2,5.9-13.2,13.2v76c0,7.3,5.9,13.2,13.2,13.2
			S165.9,198.1,165.9,190.8 M119.6,149.3V103c0-7.3-5.9-13.2-13.2-13.2c-7.3,0-13.2,5.9-13.2,13.2v46.3c0,7.3,5.9,13.2,13.2,13.2
			C113.8,162.6,119.6,156.8,119.6,149.3 M119.6,202.3v-13.2c0-7.3-5.9-13.2-13.2-13.2c-7.3,0-13.2,5.9-13.2,13.2v13.2
			c0,7.3,5.9,13.2,13.2,13.2C113.8,215.6,119.6,209.6,119.6,202.3 M212.2,202.3V156c0-7.3-5.9-13.2-13.2-13.2s-13.2,5.9-13.2,13.2
			v46.3c0,7.3,5.9,13.2,13.2,13.2C206.2,215.6,212.2,209.6,212.2,202.3 M212.2,116.3v-13.2c0-7.3-5.9-13.2-13.2-13.2
			s-13.2,5.9-13.2,13.2v13.2c0,7.3,5.9,13.2,13.2,13.2C206.2,129.6,212.2,123.6,212.2,116.3 M257,159.3v-13.2
			c0-7.3-5.9-13.2-13.2-13.2s-13.2,5.9-13.2,13.2v13.2c0,7.3,5.9,13.2,13.2,13.2C251.1,172.6,257,166.6,257,159.3 M74.5,159.3v-13.2
			c0-7.3-5.9-13.2-13.2-13.2s-13.2,5.9-13.2,13.2v13.2c0,7.3,5.9,13.2,13.2,13.2S74.5,166.6,74.5,159.3"/>

</svg>
