<svg class="large-logo"  xmlns="http://www.w3.org/2000/svg" viewBox="0 0 90 39.65">
  <path d="M6.2,10.15v1.14a2.73,2.73,0,0,0-1.73-.7,2.21,2.21,0,0,0-1.66.71A2.38,2.38,0,0,0,2.14,13a2.32,2.32,0,0,0,.67,1.69,2.26,2.26,0,0,0,1.66.69,2.08,2.08,0,0,0,.87-.16A2.46,2.46,0,0,0,5.75,15a3.8,3.8,0,0,0,.45-.34v1.16a3.4,3.4,0,0,1-1.74.47,3.21,3.21,0,0,1-2.33-1,3.17,3.17,0,0,1-1-2.32A3.32,3.32,0,0,1,4.54,9.69a3.28,3.28,0,0,1,1.66.46Z" transform="translate(-0.93 -0.48)" fill="#fff" />
  <path d="M9.94,13.63A.89.89,0,0,0,9,12.89a1.06,1.06,0,0,0-.31,0,1.17,1.17,0,0,0-.27.15.66.66,0,0,0-.21.23,1.09,1.09,0,0,0-.14.31Zm1,.76H8a1.29,1.29,0,0,0,.32.79,1,1,0,0,0,.74.29.94.94,0,0,0,.57-.16,2.35,2.35,0,0,0,.51-.62l.78.44a2.9,2.9,0,0,1-.38.53,2.16,2.16,0,0,1-.44.37,2,2,0,0,1-.5.21A2.58,2.58,0,0,1,9,16.3a1.86,1.86,0,0,1-1.44-.58A2.14,2.14,0,0,1,7,14.18a2.26,2.26,0,0,1,.53-1.55A1.86,1.86,0,0,1,9,12.05a1.81,1.81,0,0,1,1.41.57,2.21,2.21,0,0,1,.51,1.55v.22Z" transform="translate(-0.93 -0.48)" fill="#fff" />
  <path d="M11.93,12.16h.93v.37a1.54,1.54,0,0,1,1.1-.48,1.39,1.39,0,0,1,1.09.44,1.79,1.79,0,0,1,.34,1.23v2.47h-.93V13.94a1.45,1.45,0,0,0-.17-.82.63.63,0,0,0-.58-.23.73.73,0,0,0-.66.3,2.05,2.05,0,0,0-.19,1.05v2h-.93v-4Z" transform="translate(-0.93 -0.48)" fill="#fff" />
  <polygon points="16.6 12.55 16.6 15.71 15.67 15.71 15.67 12.55 15.27 12.55 15.27 11.69 15.67 11.69 15.67 10.21 16.6 10.21 16.6 11.69 17.32 11.69 17.32 12.55 16.6 12.55 16.6 12.55" fill="#fff" />
  <path d="M18.93,12.16h.93v.36a1.73,1.73,0,0,1,.46-.37,1.12,1.12,0,0,1,.47-.1,1.47,1.47,0,0,1,.77.24l-.42.85a1,1,0,0,0-.52-.19c-.51,0-.76.38-.76,1.15v2.09h-.93v-4Z" transform="translate(-0.93 -0.48)" fill="#fff" />
  <path d="M24.69,13.63a.89.89,0,0,0-.93-.74,1.07,1.07,0,0,0-.32,0,1.17,1.17,0,0,0-.27.15.93.93,0,0,0-.21.23,1.07,1.07,0,0,0-.13.31Zm1,.76H22.76a1.25,1.25,0,0,0,.33.79,1,1,0,0,0,.73.29.94.94,0,0,0,.57-.16,2.35,2.35,0,0,0,.51-.62l.78.44a2.9,2.9,0,0,1-.38.53,2.42,2.42,0,0,1-.43.37,2.21,2.21,0,0,1-.5.21,2.74,2.74,0,0,1-.59.06,1.86,1.86,0,0,1-1.44-.58,2.14,2.14,0,0,1-.55-1.54,2.26,2.26,0,0,1,.53-1.55,1.86,1.86,0,0,1,1.41-.58,1.81,1.81,0,0,1,1.41.57,2.21,2.21,0,0,1,.51,1.55v.22Z" transform="translate(-0.93 -0.48)" fill="#fff" />
  <path d="M30.22,13v3.16h-.94V13H29v-.87h.33V10.61a1.64,1.64,0,0,1,.27-1.07,1.27,1.27,0,0,1,1.06-.44,2,2,0,0,1,.62.14v.95l-.1,0a1.16,1.16,0,0,0-.49-.15.34.34,0,0,0-.34.18,1.91,1.91,0,0,0-.08.67v1.32h1V13Z" transform="translate(-0.93 -0.48)" fill="#fff" />
  <path d="M32.63,14.16a1.41,1.41,0,0,0,.32,1,1.15,1.15,0,0,0,.87.35,1.12,1.12,0,0,0,.87-.35,1.31,1.31,0,0,0,.33-.94,1.29,1.29,0,0,0-.33-.93,1.22,1.22,0,0,0-1.73,0,1.27,1.27,0,0,0-.33.91Zm-1,0a2,2,0,0,1,.62-1.49,2.14,2.14,0,0,1,1.52-.61,2.11,2.11,0,0,1,1.53.62,2.15,2.15,0,0,1,0,3,2.11,2.11,0,0,1-1.54.61,2.1,2.1,0,0,1-2.13-2.15Z" transform="translate(-0.93 -0.48)" fill="#fff" />
  <path d="M37,12.16h.93v.36a1.73,1.73,0,0,1,.46-.37,1.14,1.14,0,0,1,.48-.1,1.47,1.47,0,0,1,.76.24l-.42.85a1,1,0,0,0-.52-.19c-.5,0-.76.38-.76,1.15v2.09H37v-4Z" transform="translate(-0.93 -0.48)" fill="#fff" />
  <polygon points="42.94 9.33 42.94 15.71 41.98 15.71 41.98 9.33 42.94 9.33 42.94 9.33" fill="#fff" />
  <path d="M45.22,12.16h.93v.37a1.54,1.54,0,0,1,1.1-.48,1.41,1.41,0,0,1,1.1.44,1.84,1.84,0,0,1,.34,1.23v2.47h-.94V13.94a1.46,1.46,0,0,0-.16-.82.67.67,0,0,0-.59-.23.73.73,0,0,0-.66.3,2.17,2.17,0,0,0-.19,1.05v2h-.93v-4Z" transform="translate(-0.93 -0.48)" fill="#fff" />
  <polygon points="49.89 12.55 49.89 15.71 48.96 15.71 48.96 12.55 48.56 12.55 48.56 11.69 48.96 11.69 48.96 10.21 49.89 10.21 49.89 11.69 50.61 11.69 50.61 12.55 49.89 12.55 49.89 12.55" fill="#fff" />
  <path d="M55,13.63a.89.89,0,0,0-.93-.74,1.07,1.07,0,0,0-.32,0,1.17,1.17,0,0,0-.27.15.93.93,0,0,0-.21.23,1.07,1.07,0,0,0-.13.31Zm1,.76H53a1.19,1.19,0,0,0,.32.79,1,1,0,0,0,.73.29.94.94,0,0,0,.57-.16,2.35,2.35,0,0,0,.51-.62l.79.44a2.91,2.91,0,0,1-.39.53,2.11,2.11,0,0,1-.43.37,2.21,2.21,0,0,1-.5.21,2.65,2.65,0,0,1-.58.06,1.88,1.88,0,0,1-1.45-.58,2.18,2.18,0,0,1-.54-1.54,2.25,2.25,0,0,1,.52-1.55A1.87,1.87,0,0,1,54,12.05a1.79,1.79,0,0,1,1.4.57,2.21,2.21,0,0,1,.51,1.55v.22Z" transform="translate(-0.93 -0.48)" fill="#fff" />
  <path d="M56.92,12.16h.93v.36a1.9,1.9,0,0,1,.46-.37,1.14,1.14,0,0,1,.48-.1,1.47,1.47,0,0,1,.76.24l-.42.85a1,1,0,0,0-.52-.19c-.5,0-.76.38-.76,1.15v2.09h-.93v-4Z" transform="translate(-0.93 -0.48)" fill="#fff" />
  <path d="M60.38,12.16h.93v.37a1.52,1.52,0,0,1,1.1-.48,1.39,1.39,0,0,1,1.09.44,1.79,1.79,0,0,1,.34,1.23v2.47h-.93V13.94a1.45,1.45,0,0,0-.17-.82.63.63,0,0,0-.58-.23.73.73,0,0,0-.66.3,2.05,2.05,0,0,0-.19,1.05v2h-.93v-4Z" transform="translate(-0.93 -0.48)" fill="#fff" />
  <path d="M65.61,14.16a1.42,1.42,0,0,0,.31.94,1,1,0,0,0,.8.37,1.09,1.09,0,0,0,.84-.35,1.41,1.41,0,0,0,.32-.94,1.38,1.38,0,0,0-.32-.93,1.05,1.05,0,0,0-.83-.36,1,1,0,0,0-.8.36,1.37,1.37,0,0,0-.32.91Zm2.21-2h.93v4h-.93v-.43a1.78,1.78,0,0,1-1.24.54,1.8,1.8,0,0,1-1.38-.6,2.24,2.24,0,0,1-.54-1.54,2.2,2.2,0,0,1,.54-1.51,1.76,1.76,0,0,1,1.36-.6,1.69,1.69,0,0,1,1.26.58v-.47Z" transform="translate(-0.93 -0.48)" fill="#fff" />
  <polygon points="70.02 12.55 70.02 15.71 69.09 15.71 69.09 12.55 68.7 12.55 68.7 11.69 69.09 11.69 69.09 10.21 70.02 10.21 70.02 11.69 70.74 11.69 70.74 12.55 70.02 12.55 70.02 12.55" fill="#fff" />
  <path d="M73.39,12.16v4h-.93v-4Zm-1.07-1.67a.62.62,0,0,1,.6-.6.58.58,0,0,1,.43.18.58.58,0,0,1,.18.42.57.57,0,0,1-.18.43.56.56,0,0,1-.42.18.58.58,0,0,1-.43-.18.57.57,0,0,1-.18-.43Z" transform="translate(-0.93 -0.48)" fill="#fff" />
  <path d="M75.17,14.16a1.36,1.36,0,0,0,.32,1,1.26,1.26,0,0,0,1.74,0,1.31,1.31,0,0,0,.33-.94,1.29,1.29,0,0,0-.33-.93,1.22,1.22,0,0,0-1.73,0,1.27,1.27,0,0,0-.33.91Zm-1,0a2,2,0,0,1,.62-1.49,2.2,2.2,0,0,1,3,0,2.05,2.05,0,0,1,.62,1.51,2,2,0,0,1-.63,1.51,2.1,2.1,0,0,1-1.54.61,2.05,2.05,0,0,1-1.51-.62,2.07,2.07,0,0,1-.61-1.53Z" transform="translate(-0.93 -0.48)" fill="#fff" />
  <path d="M79.43,12.16h.93v.37a1.52,1.52,0,0,1,1.1-.48,1.39,1.39,0,0,1,1.09.44,1.79,1.79,0,0,1,.34,1.23v2.47H82V13.94a1.45,1.45,0,0,0-.17-.82.65.65,0,0,0-.58-.23.73.73,0,0,0-.66.3,2.05,2.05,0,0,0-.19,1.05v2h-.93v-4Z" transform="translate(-0.93 -0.48)" fill="#fff" />
  <path d="M84.82,14.16a1.42,1.42,0,0,0,.31.94,1,1,0,0,0,.8.37,1.09,1.09,0,0,0,.84-.35,1.41,1.41,0,0,0,.32-.94,1.38,1.38,0,0,0-.32-.93,1.05,1.05,0,0,0-.83-.36,1,1,0,0,0-.8.36,1.37,1.37,0,0,0-.32.91Zm2.21-2H88v4H87v-.43a1.78,1.78,0,0,1-2.61-.06,2.2,2.2,0,0,1-.55-1.54,2.16,2.16,0,0,1,.55-1.51,1.74,1.74,0,0,1,1.35-.6,1.69,1.69,0,0,1,1.26.58v-.47Z" transform="translate(-0.93 -0.48)" fill="#fff" />
  <polygon points="89.14 8.73 89.14 15.71 88.21 15.71 88.21 8.73 89.14 8.73 89.14 8.73" fill="#fff" />
  <path d="M4.76,23H7.4v.21a4.51,4.51,0,0,1-.17,1.28,2.65,2.65,0,0,1-.56.95,2.87,2.87,0,0,1-2.26,1,3.12,3.12,0,0,1-2.29-1,3.34,3.34,0,0,1,0-4.69,3.22,3.22,0,0,1,2.36-1,3.25,3.25,0,0,1,1.39.31,3.86,3.86,0,0,1,1.22,1l-.68.66a2.33,2.33,0,0,0-1.91-1.05,2.29,2.29,0,0,0-1.7.7,2.33,2.33,0,0,0-.69,1.72,2.25,2.25,0,0,0,.77,1.75,2.25,2.25,0,0,0,1.55.64,1.92,1.92,0,0,0,1.27-.48,1.66,1.66,0,0,0,.63-1.15H4.76V23Z" transform="translate(-0.93 -0.48)" fill="#fff" />
  <path d="M9.19,24.31a1.36,1.36,0,0,0,.32,1,1.24,1.24,0,0,0,1.74,0,1.31,1.31,0,0,0,.33-.94,1.33,1.33,0,0,0-.33-.94,1.24,1.24,0,0,0-1.73,0,1.31,1.31,0,0,0-.33.92Zm-.95,0a2,2,0,0,1,.62-1.48,2.2,2.2,0,0,1,3.05,0,2.15,2.15,0,0,1,0,3,2.11,2.11,0,0,1-1.54.61,2.06,2.06,0,0,1-1.52-.62,2.08,2.08,0,0,1-.61-1.54Z" transform="translate(-0.93 -0.48)" fill="#fff" />
  <polygon points="12.92 21.84 13.96 24.1 14.99 21.84 16.04 21.84 13.95 26.14 11.88 21.84 12.92 21.84 12.92 21.84" fill="#fff" />
  <path d="M20.16,23.78a.89.89,0,0,0-.94-.74,1.13,1.13,0,0,0-.32.05.89.89,0,0,0-.27.15.93.93,0,0,0-.21.23,1.44,1.44,0,0,0-.13.31Zm.95.76H18.23a1.19,1.19,0,0,0,.32.79,1.07,1.07,0,0,0,1.31.12,2.48,2.48,0,0,0,.5-.61l.79.44a2.8,2.8,0,0,1-.39.53,1.88,1.88,0,0,1-.43.37,1.69,1.69,0,0,1-.5.2,2.15,2.15,0,0,1-.58.07,1.9,1.9,0,0,1-1.45-.58,2.18,2.18,0,0,1-.54-1.54,2.26,2.26,0,0,1,.53-1.55,2,2,0,0,1,2.81,0,2.17,2.17,0,0,1,.52,1.55v.22Z" transform="translate(-0.93 -0.48)" fill="#fff" />
  <path d="M22.13,22.31h.93v.36a1.88,1.88,0,0,1,.45-.37,1.21,1.21,0,0,1,.48-.1,1.5,1.5,0,0,1,.77.24l-.43.85a.85.85,0,0,0-.51-.19c-.51,0-.76.38-.76,1.15v2.08h-.93v-4Z" transform="translate(-0.93 -0.48)" fill="#fff" />
  <path d="M25.42,22.31h.93v.37a1.54,1.54,0,0,1,1.1-.48,1.39,1.39,0,0,1,1.09.44,1.79,1.79,0,0,1,.34,1.23v2.46H28V24.09a1.37,1.37,0,0,0-.17-.82A.64.64,0,0,0,27.2,23a.73.73,0,0,0-.66.31,2.17,2.17,0,0,0-.19,1.05v1.94h-.93v-4Z" transform="translate(-0.93 -0.48)" fill="#fff" />
  <path d="M30.82,24.31a1.37,1.37,0,0,0,.31.94,1,1,0,0,0,.8.37,1.05,1.05,0,0,0,.83-.36,1.51,1.51,0,0,0,0-1.86,1.1,1.1,0,0,0-1.63,0,1.36,1.36,0,0,0-.31.91Zm2.2-2H34v4H33v-.42a1.78,1.78,0,0,1-2.61-.06,2.26,2.26,0,0,1-.54-1.54,2.2,2.2,0,0,1,.54-1.51,1.74,1.74,0,0,1,1.35-.6,1.69,1.69,0,0,1,1.26.58v-.47Z" transform="translate(-0.93 -0.48)" fill="#fff" />
  <path d="M35.13,22.31h.93v.37a1.54,1.54,0,0,1,1.1-.48,1.39,1.39,0,0,1,1.09.44,1.79,1.79,0,0,1,.34,1.23v2.46h-.93V24.09a1.45,1.45,0,0,0-.17-.82.64.64,0,0,0-.58-.24.73.73,0,0,0-.66.31,2.05,2.05,0,0,0-.19,1.05v1.94h-.93v-4Z" transform="translate(-0.93 -0.48)" fill="#fff" />
  <path d="M42.9,22.49v1.23a2.37,2.37,0,0,0-.57-.53,1.22,1.22,0,0,0-1.46.22,1.28,1.28,0,0,0-.34.92,1.36,1.36,0,0,0,.33.93,1.13,1.13,0,0,0,.86.36,1.22,1.22,0,0,0,.59-.14,2.56,2.56,0,0,0,.59-.55v1.23a2.54,2.54,0,0,1-1.14.29,2.17,2.17,0,0,1-1.56-.6,2,2,0,0,1-.62-1.51,2,2,0,0,1,.63-1.52,2.18,2.18,0,0,1,1.56-.62,2.38,2.38,0,0,1,1.13.29Z" transform="translate(-0.93 -0.48)" fill="#fff" />
  <path d="M46.77,23.78a.9.9,0,0,0-.94-.74,1.07,1.07,0,0,0-.32.05.89.89,0,0,0-.27.15.93.93,0,0,0-.21.23,1.07,1.07,0,0,0-.13.31Zm.95.76H44.84a1.19,1.19,0,0,0,.32.79,1,1,0,0,0,.73.29.94.94,0,0,0,.57-.17,2.27,2.27,0,0,0,.51-.61l.79.44a2.8,2.8,0,0,1-.39.53,2.11,2.11,0,0,1-.43.37,1.81,1.81,0,0,1-.5.2,2.15,2.15,0,0,1-.58.07,1.88,1.88,0,0,1-1.45-.58,2.18,2.18,0,0,1-.54-1.54,2.25,2.25,0,0,1,.52-1.55,1.83,1.83,0,0,1,1.42-.58,1.79,1.79,0,0,1,1.4.57,2.21,2.21,0,0,1,.51,1.55v.22Z" transform="translate(-0.93 -0.48)" fill="#fff" />
  <polygon points="51.68 19.48 51.68 25.86 50.71 25.86 50.71 19.48 51.68 19.48 51.68 19.48" fill="#fff" />
  <path d="M54,22.31h.93v.37A1.54,1.54,0,0,1,56,22.2a1.39,1.39,0,0,1,1.09.44,1.79,1.79,0,0,1,.34,1.23v2.46h-.93V24.09a1.45,1.45,0,0,0-.17-.82.64.64,0,0,0-.58-.24.73.73,0,0,0-.66.31,2.05,2.05,0,0,0-.19,1.05v1.94H54v-4Z" transform="translate(-0.93 -0.48)" fill="#fff" />
  <path d="M58.52,22.31h.93v.37a1.54,1.54,0,0,1,1.1-.48,1.42,1.42,0,0,1,1.1.44A1.85,1.85,0,0,1,62,23.87v2.46h-.93V24.09a1.46,1.46,0,0,0-.16-.82A.67.67,0,0,0,60.3,23a.73.73,0,0,0-.66.31,2.17,2.17,0,0,0-.19,1.05v1.94h-.93v-4Z" transform="translate(-0.93 -0.48)" fill="#fff" />
  <path d="M63.77,24.31a1.32,1.32,0,0,0,.32,1,1.12,1.12,0,0,0,.87.36,1.15,1.15,0,0,0,.87-.35,1.31,1.31,0,0,0,.33-.94,1.33,1.33,0,0,0-.33-.94A1.15,1.15,0,0,0,65,23a1.13,1.13,0,0,0-.86.35,1.31,1.31,0,0,0-.33.92Zm-1,0a2,2,0,0,1,.62-1.48A2.08,2.08,0,0,1,65,22.2a2.11,2.11,0,0,1,1.53.62,2.05,2.05,0,0,1,.62,1.51,2,2,0,0,1-.63,1.51,2.1,2.1,0,0,1-1.54.61,2.05,2.05,0,0,1-1.51-.62,2.08,2.08,0,0,1-.61-1.54Z" transform="translate(-0.93 -0.48)" fill="#fff" />
  <polygon points="67.47 21.84 68.51 24.1 69.55 21.84 70.6 21.84 68.51 26.14 66.43 21.84 67.47 21.84 67.47 21.84" fill="#fff" />
  <path d="M72.81,24.31a1.37,1.37,0,0,0,.31.94,1,1,0,0,0,.8.37,1.05,1.05,0,0,0,.83-.36,1.51,1.51,0,0,0,0-1.86,1,1,0,0,0-.82-.36,1,1,0,0,0-.8.36,1.32,1.32,0,0,0-.32.91Zm2.2-2H76v4H75v-.42a1.78,1.78,0,0,1-2.61-.06,2.26,2.26,0,0,1-.54-1.54,2.2,2.2,0,0,1,.54-1.51,1.74,1.74,0,0,1,1.35-.6,1.69,1.69,0,0,1,1.26.58v-.47Z" transform="translate(-0.93 -0.48)" fill="#fff" />
  <polygon points="77.22 22.7 77.22 25.86 76.29 25.86 76.29 22.7 75.89 22.7 75.89 21.84 76.29 21.84 76.29 20.36 77.22 20.36 77.22 21.84 77.94 21.84 77.94 22.7 77.22 22.7 77.22 22.7" fill="#fff" />
  <path d="M80.63,22.31v4H79.7v-4Zm-1.07-1.67a.62.62,0,0,1,.6-.6.57.57,0,0,1,.43.18.56.56,0,0,1,.18.42.58.58,0,0,1-.18.43.54.54,0,0,1-.42.18.61.61,0,0,1-.61-.61Z" transform="translate(-0.93 -0.48)" fill="#fff" />
  <path d="M82.42,24.31a1.32,1.32,0,0,0,.32,1,1.12,1.12,0,0,0,.87.36,1.15,1.15,0,0,0,.87-.35,1.31,1.31,0,0,0,.33-.94,1.33,1.33,0,0,0-.33-.94,1.15,1.15,0,0,0-.87-.35,1.13,1.13,0,0,0-.86.35,1.31,1.31,0,0,0-.33.92Zm-1,0a2,2,0,0,1,.62-1.48,2.08,2.08,0,0,1,1.52-.61,2.11,2.11,0,0,1,1.53.62,2.05,2.05,0,0,1,.62,1.51,2,2,0,0,1-.63,1.51,2.1,2.1,0,0,1-1.54.61,2,2,0,0,1-1.51-.62,2.08,2.08,0,0,1-.61-1.54Z" transform="translate(-0.93 -0.48)" fill="#fff" />
  <path d="M86.69,22.31h.93v.37a1.52,1.52,0,0,1,1.1-.48,1.39,1.39,0,0,1,1.09.44,1.79,1.79,0,0,1,.34,1.23v2.46h-.93V24.09a1.45,1.45,0,0,0-.17-.82.65.65,0,0,0-.58-.24.73.73,0,0,0-.66.31,2.05,2.05,0,0,0-.19,1.05v1.94h-.93v-4Z" transform="translate(-0.93 -0.48)" fill="#fff" />
  <polygon points="89.5 2.48 0 2.48 0 0 89.5 0 89.5 2.48 89.5 2.48" fill="#fff" />
  <text transform="translate(0.15 37.73)" font-size="8" fill="#fff" font-family="Aileron-Light, Aileron" font-weight="300" letter-spacing="1em">
    20
    <tspan x="24.96" y="0" font-size="8.61" letter-spacing="1em"></tspan>
    <tspan x="35.33" y="0" font-size="8.61" letter-spacing="1em">y</tspan>
    <tspan x="48.13" y="0" font-size="8.61" letter-spacing="1em">ears</tspan>
  </text>
</svg>
