<svg class="small-logo" xmlns="http://www.w3.org/2000/svg" viewBox="0 0 22.11 17.7">
  <path d="M5.61,5.58V6.81a2.84,2.84,0,0,0-1.85-.75A2.34,2.34,0,0,0,2,6.82a2.54,2.54,0,0,0-.73,1.85A2.49,2.49,0,0,0,2,10.49a2.41,2.41,0,0,0,1.78.74,2.14,2.14,0,0,0,.93-.18,2.76,2.76,0,0,0,.44-.24,3.75,3.75,0,0,0,.48-.36v1.24a3.67,3.67,0,0,1-1.86.51,3.46,3.46,0,0,1-2.51-1,3.39,3.39,0,0,1-1-2.49,3.49,3.49,0,0,1,.86-2.34A3.45,3.45,0,0,1,3.83,5.08a3.5,3.5,0,0,1,1.78.5Z" fill="#fff" />
  <polygon points="9.05 5.25 9.05 12.12 8.06 12.12 8.06 5.25 9.05 5.25 9.05 5.25" fill="#fff" />
  <path d="M15.39,8.5h2.8v.24a5,5,0,0,1-.18,1.4,3.13,3.13,0,0,1-3,2.15,3.25,3.25,0,0,1-2.44-1.06,3.64,3.64,0,0,1-1-2.57,3.58,3.58,0,0,1,1-2.59,3.46,3.46,0,0,1,4-.73,4.51,4.51,0,0,1,1.3,1.09l-.73.72a2.48,2.48,0,0,0-2-1.15,2.37,2.37,0,0,0-1.8.77,2.62,2.62,0,0,0-.73,1.89,2.52,2.52,0,0,0,.81,1.93,2.4,2.4,0,0,0,1.65.71,2,2,0,0,0,1.36-.53,1.9,1.9,0,0,0,.67-1.27H15.39v-1Z" fill="#fff" />
  <polygon points="21.72 5.16 21.72 12.03 20.73 12.03 20.73 5.16 21.72 5.16 21.72 5.16" fill="#fff" />
  <polygon points="21.93 1.9 0.18 1.9 0.18 0.18 21.93 0.18 21.93 1.9 21.93 1.9" fill="#fff" />
  <text transform="translate(0.6 17.52)" font-size="4.4" fill="#fff" font-family="Aileron-Thin, Aileron" font-weight="200" letter-spacing="0.99em">
    2
    <tspan x="6.76" y="0" letter-spacing="0.56em">0</tspan>
    <tspan x="11.61" y="0" letter-spacing="0.26em"></tspan>
    <tspan x="13.6" y="0" letter-spacing="1em">t</tspan>
    <tspan x="19.12" y="0" letter-spacing="0.56em">h</tspan>
  </text>
</svg>
