<?xml version="1.0" encoding="UTF-8"?>
<svg xmlns="http://www.w3.org/2000/svg" version="1.1" viewBox="0 0 1633.77 1150.51">
  <defs>
    <style>
      .cls-1 {
        fill: none;
      }

      .cls-3 {
        display: none;
      }
    </style>
  </defs>
  <g>
    <g id="Background" class="cls-3">
      <rect width="1633.77" height="1150.07"/>
    </g>
    <g id="Symbol">
      <g>
        <g>
          <path class="cls-2" d="M883.45,576.26c0,163.67-131.78,296.35-294.33,296.35s-294.33-132.68-294.33-296.35,131.78-296.35,294.33-296.35,294.33,132.68,294.33,296.35"/>
          <path class="cls-2" d="M1206.34,576.26c0,154.07-65.89,278.96-147.17,278.96s-147.17-124.9-147.17-278.96,65.89-278.96,147.17-278.96,147.17,124.9,147.17,278.96"/>
          <path class="cls-2" d="M1338.41,576.26c0,138.04-23.17,249.94-51.76,249.94s-51.76-111.9-51.76-249.94,23.17-249.94,51.76-249.94,51.76,111.9,51.76,249.94"/>
        </g>
        <path class="cls-1" d="M1633.77,0h-296.29v.25H296.29v-.25H0v1150.07h119.51v.44h1410.41v-.44h103.85V0ZM1337.48,296.54v557.67H296.29V296.54h1041.19Z"/>
      </g>
    </g>
  </g>
</svg>