<?xml version="1.0" encoding="utf-8"?>
<!-- Generator: Adobe Illustrator 29.7.1, SVG Export Plug-In . SVG Version: 9.03 Build 0)  -->
<svg version="1.0" id="Layer_1" xmlns="http://www.w3.org/2000/svg" xmlns:xlink="http://www.w3.org/1999/xlink" x="0px" y="0px"
	 viewBox="0 0 653.6 159.6" style="enable-background:new 0 0 653.6 159.6;" xml:space="preserve">
<style type="text/css">
	.st0{clip-path:url(#SVGID_00000111869925685034006010000005069464837976584600_);}
	.st1{clip-path:url(#SVGID_00000116217846729860544420000007525851805161247639_);}
	.st2{clip-path:url(#SVGID_00000016756845137957001410000016847290110226153347_);}
	.st3{clip-path:url(#SVGID_00000012452103469586002500000004407835771522686376_);}
	.st4{clip-path:url(#SVGID_00000072991123423961758730000017266051993231167360_);}
</style>
<g>
	<defs>
		<rect id="SVGID_1_" x="-73.2" y="-120" width="800" height="400"/>
	</defs>
	<clipPath id="SVGID_00000094590659309672050740000018262514457723020160_">
		<use xlink:href="#SVGID_1_"  style="overflow:visible;"/>
	</clipPath>
	<g style="clip-path:url(#SVGID_00000094590659309672050740000018262514457723020160_);">
		<defs>
			<rect id="SVGID_00000008144334293616548540000002830831418741610931_" x="-73.2" y="-120" width="800" height="400"/>
		</defs>
		<clipPath id="SVGID_00000090981334351358793040000004436505559765227145_">
			<use xlink:href="#SVGID_00000008144334293616548540000002830831418741610931_"  style="overflow:visible;"/>
		</clipPath>
		<path style="clip-path:url(#SVGID_00000090981334351358793040000004436505559765227145_);" d="M145,159.7h101.1v-19.1h-77.7
			c0.4-35.8,75.3-43.8,75.3-95.3c0-27.1-20.7-45.1-49.5-45.1c-35.3,0-49.5,29.8-49.5,29.8l16.2,10.9c0,0,11.1-20,31.8-20
			c16.4,0,28.2,10.4,28.2,26c0,36.9-76.8,44.9-76.8,100.8C143.9,151.5,144.4,155.5,145,159.7 M54.8,159.7h22V22h53.7V2.9H1.1V22
			h53.7V159.7z"/>
		<path style="clip-path:url(#SVGID_00000090981334351358793040000004436505559765227145_);" d="M396,79.9c0,35-26.5,63.4-59.2,63.4
			s-59.2-28.4-59.2-63.4s26.5-63.4,59.2-63.4S396,44.8,396,79.9 M412.5,79.9c0-43.5-33.9-78.8-75.7-78.8
			c-41.8,0-75.7,35.3-75.7,78.8s33.9,78.8,75.7,78.8C378.6,158.7,412.5,123.4,412.5,79.9"/>
	</g>
	<g style="clip-path:url(#SVGID_00000094590659309672050740000018262514457723020160_);">
		<defs>
			<path id="SVGID_00000080904552080054268660000006931271010244277641_" d="M285.4,79.9c0,31.4,23,56.9,51.4,56.9
				s51.4-25.5,51.4-56.9c0-31.4-23-56.9-51.4-56.9S285.4,48.4,285.4,79.9"/>
		</defs>
		<clipPath id="SVGID_00000085227824789802700270000013592409916431459229_">
			<use xlink:href="#SVGID_00000080904552080054268660000006931271010244277641_"  style="overflow:visible;"/>
		</clipPath>
		<path style="clip-path:url(#SVGID_00000085227824789802700270000013592409916431459229_);" d="M284.6,62.2c0-1.1,0.2-2.3,0.3-3.4
			c0.1-0.7,0.8-1.1,1.4-0.9c15.1,5.3,26.9,17.5,36.3,30c10.5,14.1,18.9,30.2,25.7,46.3c0.1,0.2,0.1,0.4,0.1,0.6
			c0,0.2-0.2,0.4-0.3,0.6c-4.4,4.2-8.4,8.8-11.9,13.8c-1.2,1.7-2.1,3.5-3.3,5.2c-0.2,0.2,0,0.5-0.6,0.3
			c-8.5-17.4-13.7-36.2-22.1-53.7c-1.4-2.9-2.7-5.9-4.5-8.6c-0.1-0.2-0.4-0.6-0.8-1.2c-0.7-1-2.3-0.2-1.9,1
			c2.3,6.4,5.5,12.5,7.9,18.8c6.1,16.1,9.8,33.2,18.3,48.3c0.2,0.3,0.2,0.7,0,1c-2.8,5.5-4.9,11.2-6.7,17.1
			c-0.4,1.2-0.6,2.5-0.9,3.7c-0.1,0.4,0.2,0.4-0.5,0.4c-1.8-3.7-4-7.3-6.1-10.8c-3.6-5.8-8.7-12.2-11.8-18.1
			C290.2,127.4,283.5,90.4,284.6,62.2"/>
		<g style="clip-path:url(#SVGID_00000085227824789802700270000013592409916431459229_);">
			<g>
				<defs>
					<rect id="SVGID_00000049192006630891679600000009961993261360055945_" x="278" y="32.5" width="33" height="35.7"/>
				</defs>
				<clipPath id="SVGID_00000172403380570581318920000004748080999316221344_">
					<use xlink:href="#SVGID_00000049192006630891679600000009961993261360055945_"  style="overflow:visible;"/>
				</clipPath>
				<path style="clip-path:url(#SVGID_00000172403380570581318920000004748080999316221344_);" d="M283.2,58.9
					c-0.5,0.1-0.8-0.5-0.5-0.9c2.3-2.7,4.8-5.3,7.5-7.4c1.2-0.9,2.5-1.7,3.6-2.7c0.2-0.2,0.8-0.8,0.9-1c0.1-0.2,0.1-0.4-0.2-0.3
					c-0.2,0-1.4,0.8-1.7,1c-4.4,2.7-8.7,6.4-12.1,10.3c-0.1,0.2-0.3,0.3-0.4,0.5c-0.2,0.3-0.6,0.3-0.8,0c0,0,0,0,0,0
					c-0.1-0.1-0.2-0.2-0.2-0.3c-0.1-0.1-0.1-0.2-0.1-0.3c0.1-2.2,0.3-4.4,0.8-6.6c0-0.1,0.1-0.2,0.1-0.3c5.1-5.6,13.2-11.7,21.1-8.4
					 M301.1,42.5c0.5,0.2,1,0.5,1.5,0.8c0.2,0.1,0.3,0.5,0.2,0.7c-3.6,7.1-10.1,12.4-17.8,14.5c-0.6,0.2-1.2,0.3-1.9,0.4"/>
			</g>
		</g>
		<path style="clip-path:url(#SVGID_00000085227824789802700270000013592409916431459229_);" d="M389.8,83.1c0.1-0.7,0.5-4.3,0.5-6
			c0-0.5-0.4-0.8-0.9-0.7c-1,0.2-2.1,0.5-3.1,0.8c-5,1.6-10.5,4.1-15.1,6.6c-11.7,6.3-22.5,14.5-32.6,23c-0.3,0.2-0.3,0.7-0.1,1
			l7.6,10.7c0.3,0.4,0.8,0.4,1.1,0.1c10-8.8,20-17.5,29.4-26.9c0.6-0.6,1.5,0,1.2,0.8c-0.8,2-2.8,3.8-4.2,5.3
			c-7.9,8.5-16.9,16.1-25.2,24.1l0,0.3c0,0.1,0,0.2,0.1,0.3c2.9,4.8,5.5,9.8,7.3,15.2c0.2,0.5,0.8,0.7,1.2,0.4
			c0.7-0.6,1.7-1.5,1.9-1.7C373.3,122.8,387,103,389.8,83.1"/>
	</g>
	<g style="clip-path:url(#SVGID_00000094590659309672050740000018262514457723020160_);">
		<defs>
			<rect id="SVGID_00000035490896689750391250000005229246298008405950_" x="-73.2" y="-120" width="800" height="400"/>
		</defs>
		<clipPath id="SVGID_00000034770047281400284690000007703500391366856872_">
			<use xlink:href="#SVGID_00000035490896689750391250000005229246298008405950_"  style="overflow:visible;"/>
		</clipPath>
		<path style="clip-path:url(#SVGID_00000034770047281400284690000007703500391366856872_);" d="M341.9,31.7c-0.1-0.2-0.7-1.5-1-2.1
			c-0.1-0.2-0.3-0.2-0.4-0.1c-0.3,0.3-0.6,0.6-0.9,0.8c-1.4,1.5-2.7,3.4-3.8,5.1c-2.7,4.3-4.8,9.1-6.5,13.9c-0.1,0.1,0,0.3,0.1,0.4
			l4.6,2.1c0.2,0.1,0.3,0,0.4-0.2c1.7-4.8,3.4-9.6,4.8-14.5c0.1-0.3,0.5-0.3,0.6,0c0.1,0.8-0.2,1.8-0.4,2.6c-1,4.3-2.6,8.6-3.9,12.8
			l0.1,0.1c0,0,0,0.1,0.1,0.1c1.9,1.1,3.7,2.2,5.3,3.7c0.2,0.1,0.4,0.1,0.5-0.1c0.1-0.3,0.3-0.8,0.3-0.9
			C343.9,48,344.7,38.9,341.9,31.7"/>
		<path style="clip-path:url(#SVGID_00000034770047281400284690000007703500391366856872_);" d="M338.5,100.1
			c-5.2-10-9.6-20.8-11.5-31.8c-0.7-3.7-1.2-8-1-11.8c0-0.4,0-1.2,0.1-1.5c0-0.2,0-0.2,0.2-0.3c0.6-0.2,6.4,2.5,7.3,3
			c7.5,3.9,14.7,9.6,20.8,15.5c3.3,3.1,6.4,6.5,9.3,10c0.2,0.2,0.1,0.6-0.2,0.7c-3.7,1.5-7.2,3.3-10.6,5.4c-0.2,0.1-0.4,0.1-0.6-0.1
			c-4.7-5.2-9.1-10.8-13.4-16.4l-4.8-6.7c-0.1-0.2-0.4-0.3-0.6-0.1c-0.2,0.1-0.3,0.4-0.1,0.6l16,24.5c0.1,0.2,0.1,0.5-0.1,0.6
			c-0.6,0.5-1.8,1.2-2.1,1.4c-2.8,2.1-5.4,4.6-7.9,7.1C339.1,100.5,338.7,100.4,338.5,100.1"/>
		<path style="clip-path:url(#SVGID_00000034770047281400284690000007703500391366856872_);" d="M315.1,46.6
			c3.1,6,5.7,12.4,6.9,19.1c0.4,2.2,0.7,4.8,0.6,7.1c0,0.2,0,0.7-0.1,0.9c0,0.1,0,0.1-0.1,0.2c-0.4,0.1-3.8-1.5-4.4-1.8
			c-4.5-2.3-8.8-5.8-12.5-9.3c-2-1.9-3.9-3.9-5.6-6c-0.1-0.1-0.1-0.4,0.1-0.4c2.2-0.9,4.3-2,6.3-3.2c0.1-0.1,0.3-0.1,0.4,0
			c2.8,3.1,5.4,6.5,8,9.8l2.9,4c0.1,0.1,0.3,0.2,0.4,0.1c0.1-0.1,0.2-0.3,0.1-0.4L308.6,52c-0.1-0.1-0.1-0.3,0.1-0.4
			c0.3-0.3,1.1-0.7,1.2-0.8c1.7-1.3,3.2-2.7,4.7-4.3C314.8,46.4,315,46.4,315.1,46.6"/>
		<path style="clip-path:url(#SVGID_00000034770047281400284690000007703500391366856872_);" d="M350.4,38.3c-0.2-0.1-0.5,0-0.5,0.2
			c-2.2,7.8-2.2,16.1-0.8,24c0,0.1,0.1,0.1,0.1,0.1c0.3,0.1,1,0.1,1.4,0.2c1.7,0.3,3.4,0.9,4.9,1.8c0.2,0.1,0.4,0.2,0.5,0.3
			c0.2,0.1,0.5,0,0.5-0.3c-0.1-6.7-1-13.5-3.9-19.5c-0.1-0.3,0.1-0.6,0.4-0.5c0.2,0.1,0.4,0.2,0.6,0.4c0.7,0.6,1.4,2.5,1.7,3.5
			c2.3,5.8,3.4,12.1,3.6,18.4c0,0.1,0,0.2,0.1,0.2c2.8,2.7,5,6,6.6,9.5c0.2,0.5,0.4,1.1,0.7,1.6c0,0.1,0,0.2,0.1,0.2
			c0.9-5.8,0.8-11.8-0.7-17.4C363.6,51.9,358,43.7,350.4,38.3"/>
		<path style="clip-path:url(#SVGID_00000034770047281400284690000007703500391366856872_);" d="M301.9,39.1
			c-0.1,0.2-0.1,0.4,0.2,0.5c7.7,2.6,16,3.1,23.9,2c0.1,0,0.1-0.1,0.1-0.1c0.1-0.3,0.2-1,0.2-1.4c0.4-1.7,1.1-3.3,2-4.8
			c0.1-0.2,0.2-0.3,0.4-0.5c0.2-0.2,0-0.5-0.3-0.5c-6.7-0.3-13.5,0.3-19.7,2.9c-0.3,0.1-0.6-0.2-0.4-0.4c0.1-0.2,0.3-0.4,0.4-0.6
			c0.7-0.7,2.6-1.2,3.6-1.6c6-2,12.3-2.8,18.5-2.6c0.1,0,0.2,0,0.2-0.1c2.8-2.7,6.2-4.7,9.8-6.1c0.5-0.2,1.2-0.4,1.7-0.6
			c0.1,0,0.2,0,0.2-0.1c-5.7-1.2-11.7-1.4-17.5-0.2C316.2,26.7,307.8,31.8,301.9,39.1"/>
		<path style="clip-path:url(#SVGID_00000034770047281400284690000007703500391366856872_);" d="M347.2,26.6c-0.2,0-0.3,0.2-0.2,0.4
			c2.7,6,6.9,11.1,11.6,15.2c0.1,0,0.1,0,0.1,0c0.2-0.1,0.6-0.5,0.8-0.6c1.1-0.7,2.3-1.1,3.5-1.4c0.1,0,0.3,0,0.5-0.1
			c0.2,0,0.3-0.3,0.1-0.4c-3.4-4.1-7.3-7.8-11.9-10c-0.2-0.1-0.2-0.4,0-0.5c0.2-0.1,0.4-0.1,0.5-0.1c0.7,0,2,0.9,2.7,1.2
			c4.1,2.4,7.9,5.7,11.1,9.5c0,0.1,0.1,0.1,0.2,0.1c2.8,0.2,5.6,1.1,8.3,2.5c0.4,0.2,0.8,0.5,1.2,0.7c0.1,0,0.1,0.1,0.2,0
			c-2.4-4-5.5-7.7-9.1-10.4C361,28.2,353.9,26.1,347.2,26.6"/>
		<path style="clip-path:url(#SVGID_00000034770047281400284690000007703500391366856872_);" d="M378.2,70.3c0.4,0.4,1.1,0,1-0.5
			c-0.6-3.8-1.4-7.7-2.8-11.3c-0.6-1.5-1.4-3-1.9-4.6c-0.1-0.3-0.3-1.2-0.3-1.4c0-0.3,0.2-0.4,0.4-0.2c0.2,0.2,0.9,1.6,1.1,1.9
			c2.6,5.1,4.5,11.1,5.5,16.7c0,0.2,0.1,0.5,0.1,0.7c0,0.4,0.4,0.6,0.8,0.5c0,0,0,0,0,0c0.1,0,0.3-0.1,0.4-0.2
			c0.1-0.1,0.2-0.1,0.2-0.2c1.2-2.2,2.2-4.4,3.1-6.7c0-0.1,0-0.2,0-0.3c-1.6-8.2-5.7-18.6-15-20.1 M370.8,44.6
			c-0.6-0.1-1.3-0.1-1.9-0.1c-0.3,0-0.6,0.2-0.6,0.5c-0.7,8.8,2.3,17.5,8.4,23.8c0.5,0.5,1,1,1.5,1.5"/>
		<path style="clip-path:url(#SVGID_00000034770047281400284690000007703500391366856872_);" d="M551.1,115.4v24.4h6.3
			c1.1-3.1,3.7-5.3,7.6-5.3c5.5,0,8.2,3.1,8.2,8.6c0,5.2-2.6,9.1-8.2,9.1c-4.5,0-7.5-2.3-8.4-5.9h-6.4c1,6.6,6,11.4,14.7,11.4
			c9.8,0,14.6-6.4,14.6-14.8c0-6.4-3.2-14.1-13.6-14.1c-3.8,0-7.2,1.7-8.8,3.8v-11.5h19.4v-5.8H551.1z M512.5,157.2h28.2v-5.5h-18.4
			c6.8-6.2,17.2-14,17.2-24.3c0-7.6-4.9-12.8-13.5-12.8c-7.5,0-13.4,4.5-13.6,13.6h6.4c0.2-4.8,2.7-8,7.3-8c4.9,0,6.8,3,6.8,7.4
			c0,8.3-10.5,15.9-20.5,24.7V157.2z M496.6,136.1c0,8.3-0.9,15.5-8.6,15.5s-8.6-7.2-8.6-15.5c0-7.9,0.9-15.3,8.6-15.3
			S496.6,128.2,496.6,136.1 M472.9,136.1c0,12.3,3.2,21.6,15.1,21.6c11.8,0,15.1-9.3,15.1-21.6c0-12.1-3.2-21.3-15.1-21.3
			C476.2,114.7,472.9,124,472.9,136.1 M436,157.2h28.2v-5.5h-18.4c6.8-6.2,17.2-14,17.2-24.3c0-7.6-4.9-12.8-13.5-12.8
			c-7.5,0-13.4,4.5-13.6,13.6h6.4c0.2-4.8,2.7-8,7.3-8c4.9,0,6.8,3,6.8,7.4c0,8.3-10.5,15.9-20.5,24.7V157.2z"/>
		<path style="clip-path:url(#SVGID_00000034770047281400284690000007703500391366856872_);" d="M641.4,87.8h-13.2l6.6-18.7
			L641.4,87.8z M646.2,101.4h7l-14.4-40.4h-7.7l-14.4,40.4h6.9l2.9-8.2h16.9L646.2,101.4z M569.1,81.2c0,12.1,9.2,20.6,20.6,20.6
			c8.4,0,15.7-4.2,18.7-12.1h-7.9c-2.1,4.3-6,6.3-10.8,6.3c-8,0-13.8-5.7-13.8-14.8s5.8-14.8,13.8-14.8c4.8,0,8.6,2,10.8,6.3h7.9
			c-3.1-7.9-10.3-12.1-18.7-12.1C578.3,60.6,569.1,69.1,569.1,81.2 M553.1,101.4h6.6V61.1h-6.6V101.4z M513.5,61.1v40.3h6.6V85.3h5
			l9.3,16.1h7.9l-10-16.7c6.8-1.7,9.3-6.8,9.3-11.5c0-6.6-4.7-12.1-14.3-12.1H513.5z M534.9,73.2c0,4-2.3,6.8-7.5,6.8h-7.3V66.5h7.3
			C532.6,66.5,534.9,69.1,534.9,73.2 M480.7,101.4h6.6V83.8h13.3v-5.4h-13.3V66.5h17.1v-5.4h-23.7V101.4z M459.9,87.8h-13.2
			l6.6-18.7L459.9,87.8z M464.6,101.4h7l-14.4-40.4h-7.7L435,101.4h6.9l2.9-8.2h16.9L464.6,101.4z"/>
		<path style="clip-path:url(#SVGID_00000034770047281400284690000007703500391366856872_);" d="M627.8,45.1h6.6V4.8h-6.6v17.3h-19
			V4.8h-6.6v40.3h6.6V27.5h19V45.1z M564.5,10.2h10.8v34.9h6.6V10.2h10.7V4.8h-28.1V10.2z M523.7,30.4c0,10.3,7.2,15.1,15.7,15.1
			c8.4,0,15.8-4.9,15.8-15.1V4.8h-6.6v25.7c0,6.3-3.5,9.2-9.2,9.2c-5.6,0-9.1-3-9.1-9.2V4.8h-6.6V30.4z M479.9,24.9
			c0-9.1,5.8-14.8,13.8-14.8c8,0,13.8,5.7,13.8,14.8c0,9.1-5.8,14.9-13.8,14.9C485.7,39.8,479.9,34,479.9,24.9 M514.3,24.9
			c0-12.1-9.1-20.6-20.6-20.6c-11.4,0-20.6,8.5-20.6,20.6c0,12.1,9.2,20.6,20.6,20.6C505.2,45.5,514.3,37,514.3,24.9 M464.6,33.7
			c0-14.7-21.3-9-21.3-18.2c0-3.9,3-5.7,6.8-5.6c4.2,0.1,6.6,2.6,6.8,5.3h7.3c-0.6-6.9-6-11-13.7-11c-8.2,0-13.9,4.4-13.9,11.5
			c0,14.8,21.4,8.5,21.4,18.3c0,3.4-2.6,5.9-7.2,5.9c-4.6,0-6.9-2.7-7.2-6h-7.1c0,7.1,6.2,11.5,14.3,11.5
			C459.7,45.5,464.6,39.7,464.6,33.7"/>
	</g>
</g>
</svg>
