<?xml version="1.0" encoding="UTF-8"?>
<svg viewBox="0 0 247 247" version="1.1" xmlns="http://www.w3.org/2000/svg" xmlns:xlink="http://www.w3.org/1999/xlink">
    <title>inner</title>
    <g id="V3" stroke="none" stroke-width="1" fill="none" fill-rule="evenodd">
        <path d="M242.909929,129.90514 C245.111285,130.092201 246.745643,132.045612 246.560369,134.268206 C241.814707,191.198451 199.057886,237.63153 143.439314,246.749148 C141.258731,247.106613 139.204004,245.611631 138.849954,243.41001 C138.495904,241.20839 139.976602,239.133841 142.157186,238.776376 C194.158892,230.251675 234.151354,186.820636 238.588554,133.590797 C238.773827,131.368204 240.708573,129.718079 242.909929,129.90514 Z M13.2995196,158.701158 C25.2614628,197.104787 56.317269,226.809675 95.0191315,236.718109 C97.1604986,237.266341 98.4562365,239.463439 97.9132431,241.625465 C97.3702497,243.787491 95.1941454,245.095729 93.0527783,244.547497 C51.6584653,233.949743 18.4611512,202.196502 5.66800378,161.124305 C5.00526398,158.996589 6.17638021,156.729295 8.2837651,156.060162 C10.39115,155.391028 12.6367797,156.573443 13.2995196,158.701158 Z M107.228728,4.06289384 C107.599766,6.26166064 106.13513,8.34780047 103.957373,8.72241755 C52.5738858,17.5613883 13.1225704,60.5134525 8.4632612,113.156297 C8.26663209,115.377896 6.32347965,117.01792 4.12310875,116.819394 C1.92273785,116.620868 0.298384175,114.658969 0.495013278,112.437371 C5.47826958,56.134435 47.6562573,10.2137447 102.613727,0.759978576 C104.791484,0.385361495 106.857691,1.86412703 107.228728,4.06289384 Z M150.608714,1.99786162 C192.849528,11.5510168 227.173501,43.0443076 240.755085,84.42199 C241.450029,86.539206 240.313449,88.8243467 238.216463,89.5259945 C236.119478,90.2276424 233.856172,89.0800976 233.161229,86.9628816 C220.461717,48.2725239 188.352455,18.811298 148.86006,9.87972343 C146.704341,9.39218742 145.348235,7.23254652 145.831113,5.05603048 C146.31399,2.87951444 148.452995,1.5103256 150.608714,1.99786162 Z" id="inner" fill="#FFFFFF" fill-rule="nonzero"></path>
    </g>
</svg>
