<svg class="fingerprint-icon" viewBox="0 0 278 280" version="1.1" xmlns="http://www.w3.org/2000/svg" xmlns:xlink="http://www.w3.org/1999/xlink">
  <title>Combined-Shape</title>
  <defs>
    <linearGradient x1="50%" y1="100%" x2="50%" y2="16.26%" id="linearGradient-1">
      <stop stop-color="#FFFFFF" stop-opacity="0" offset="0%"></stop>
      <stop stop-color="#FFFFFF" offset="100%"></stop>
    </linearGradient>
  </defs>
  <g id="V3" stroke="none" stroke-width="1" fill="none" fill-rule="evenodd">
    <path d="M84.9,267.9 C88.2,267.9 90.9,270.6 90.9,273.9 C90.9,277.2 88.2,279.9 84.9,279.9 C81.6,279.9 78.9,277.2 78.9,273.9 C78.9,270.6 81.6,267.9 84.9,267.9 Z M199.3,264.2 C202.6,264.2 205.3,266.9 205.3,270.2 C205.3,273.5 202.6,276.2 199.3,276.2 C196,276.2 193.3,273.5 193.3,270.2 C193.3,266.9 196,264.2 199.3,264.2 Z M143.5,248.2 C144.6,248.2 145.4,249 145.5,250.1 L145.5,250.2 L145.5,255.8 C149.6,256.8 152.7,260.6 152.7,265 C152.7,270.2 148.4,274.5 143.2,274.5 C138,274.5 133.7,270.2 133.7,265 C133.7,260.3 137.1,256.5 141.5,255.7 L141.5,250.2 C141.5,249.1 142.4,248.2 143.5,248.2 Z M162.9,175 C166.2,175.1 168.8,177.9 168.6,181.2 L168.6,182.1 C168.2,191.1 166.4,200.2 162.3,216.5 C160.2,224.9 157,234.3 152.3,244.6 C152.1,245 138.9,245 139,244.9 C144.5,233.2 148.5,222.5 150.7,213.7 L151.6,210.1 C155,196.2 156.4,188.4 156.7,180.8 C156.8,177.6 159.5,175 162.7,175 L162.9,175 L162.9,175 Z M144.3,136 C147.5,136 150.2,138.6 150.3,141.8 L150.3,143.1 L150.3,143.1 L150.5,146.8 C151.1,160 150.6,173.5 147.9,191.6 C145.2,210 138.3,232 129.5,244.2 C129.3,244.4 116.9,241.9 117.1,241.7 C127.1,227.9 133.4,208.1 136.1,189.9 L136.4,187.9 C138.7,172 139.1,159.9 138.6,148.2 L138.4,143.4 L138.4,142.1 L138.4,142.1 C138.3,138.7 140.9,136 144.3,136 Z M178.9,213.1 C182.1,213.8 184.2,216.9 183.6,220.2 C182.5,225.5 180.6,232.6 178.3,239 C178.2,239.4 163.7,243.3 163.9,243 C167.3,234.1 170.2,224.9 171.8,217.8 C172.5,214.6 175.6,212.5 178.9,213.1 Z M123.9,166 C127.2,166.1 129.8,168.9 129.7,172.2 C129.5,180 127.3,194.1 123.9,205.8 C121.2,214.9 117.7,224.3 108.3,239.1 C108.3,239.1 96.7,234.5 97,234.1 C104.8,221 110,210.6 112.4,202.4 C115.4,192.2 117.4,179.6 117.7,172.7 L117.7,171.9 C117.8,168.7 120.4,166.1 123.6,166.1 L123.9,166 Z M222.6,216.8 L222.7,216.9 L226.3,220.5 C227.8,219.6 229.5,219.1 231.3,219.1 C236.5,219.1 240.8,223.4 240.8,228.6 C240.8,233.8 236.5,238.1 231.3,238.1 C226.1,238.1 221.8,233.8 221.8,228.6 C221.8,226.6 222.4,224.8 223.4,223.3 L219.9,219.8 C219.1,219 219.1,217.8 219.9,217 C220.6,216.1 221.8,216.1 222.6,216.8 Z M67.1,216.9 C67.8,217.6 67.9,218.8 67.2,219.6 L67.1,219.7 L63.3,223.5 C64.2,225 64.7,226.7 64.7,228.5 C64.7,233.7 60.4,238 55.2,238 C50,238 45.7,233.7 45.7,228.5 C45.7,223.3 50,219 55.2,219 C57.2,219 59,219.6 60.5,220.6 L64.3,216.9 C65.1,216.1 66.4,216.1 67.1,216.9 Z M206.8,126.3 C208.4,140.4 208.8,153.9 208.3,172.7 C207.9,186.9 205.4,208 201.6,227.2 C201.4,228 187.4,235.4 187.5,235 C192.4,214.3 196,188.3 196.4,172.4 L196.5,169.2 C196.8,152.5 196.4,140.3 195,127.6 C194.5,124.4 196.9,121.4 200.2,121 C203.5,120.6 206.5,123 206.8,126.3 Z M100.3,192.7 C103.3,193.8 104.9,197.1 104,200.2 L101.5,207 C101.3,207.5 101.1,208 101,208.3 L101,208.4 C100.4,209.9 99.9,211.2 99.4,212.4 C99.1,213.2 98.7,213.9 98.3,214.8 L97.8,215.8 C95,221.2 91.8,226.8 89.6,230.2 C89.3,230.6 79.5,223.7 79.7,223.5 C81.7,220.4 84.9,214.7 87.6,209.5 C87.9,208.9 88.2,208.3 88.5,207.6 C88.9,206.7 89.3,205.7 89.7,204.6 L90.3,203.1 C90.9,201 92.4,196.8 92.6,196.3 C93.7,193.2 97.2,191.6 100.3,192.7 Z M227.8,132.1 L227.9,133 C228.4,140.5 228.7,153.2 228.8,164.6 L228.8,166.2 L228.7,169.6 C228.5,183.6 227.2,194.2 225.4,205.8 C225.3,207.1 220.5,211.8 211.1,220.1 C214.5,205.8 216,184.7 216.7,167.7 L216.8,166 L216.8,163.3 C216.7,152.3 216.4,140.3 215.9,133.5 L215.9,133.1 C215.6,129.6 218.1,126.8 221.4,126.5 C224.7,126.3 227.6,128.8 227.8,132.1 Z M88.3,118.2 C91.5,119.1 93.3,122.5 92.4,125.6 C90.4,132.4 89.6,137.7 89.4,143.8 L89.4,149.5 L89.4,149.5 L89.5,156.7 L89.5,160.1 L89.5,160.1 C89.5,180.5 84.4,196.5 72.2,217.4 C72,217.7 63.2,209 63.5,208.5 C72.6,191.7 77.4,177.7 77.5,160.9 L77.5,159.5 C77.5,158.1 77.5,156.7 77.4,154.6 L77.3,149.4 L77.3,143.7 C77.7,136.4 78.7,130.1 80.9,122.3 C81.8,119.1 85.2,117.3 88.3,118.2 Z M269.2,192 C272.5,192 275.2,194.7 275.2,198 C275.2,201.3 272.5,204 269.2,204 C265.9,204 263.2,201.3 263.2,198 C263.2,194.7 265.9,192 269.2,192 Z M6,191.5 C9.3,191.5 12,194.2 12,197.5 C12,200.8 9.3,203.5 6,203.5 C2.7,203.5 0,200.8 0,197.5 C0,194.2 2.7,191.5 6,191.5 Z M64.7,151 C68,151 70.7,153.7 70.7,157 C70.7,171.7 66.9,185.1 57.7,200.9 C57.6,201.1 50,190.1 50.4,189.2 C55.7,177.6 58.7,167.8 58.7,157 C58.7,153.7 61.4,151 64.7,151 Z M151.8,97.1 C173.1,101.3 188.6,119.8 188.6,141.5 L188.6,151.8 C188.5,174.9 188.2,183.9 186.9,192 C186.4,195.3 183.3,197.5 180,197 C176.8,196.5 174.6,193.5 175,190.3 L175.2,189.1 C176.4,181.1 176.6,170.4 176.6,141.6 C176.6,125.8 165.4,112.3 149.9,109.1 L149.4,109 C146.3,108.2 144.2,105.1 144.8,101.8 C145.4,98.5 148.6,96.4 151.8,97.1 Z M135.3,101.9 C136.4,104.9 135,108.3 132,109.5 L131.8,109.6 C118.9,114.4 110.1,126.7 109.9,140.7 L109.9,156.3 C109.9,161.2 109.9,164 109.6,167.5 C109.4,171.3 109,175 108.5,178.8 C108,182.1 105,184.4 101.7,183.9 C98.4,183.4 96.1,180.4 96.6,177.1 C97.1,173.6 97.4,170.3 97.6,166.9 L97.7,165.2 C97.8,162.4 97.9,159.6 97.9,154.9 L97.8,142.2 L97.8,141.2 C97.9,122 109.9,105 127.6,98.4 C130.7,97.2 134.2,98.8 135.3,101.9 Z M203.2,54.1 C231.5,73.8 248.8,106.1 248.8,141.4 C248.8,150.3 247.7,159.1 245.6,167.5 C244.8,170.7 241.5,172.7 238.3,171.8 C235.1,171 233.1,167.7 234,164.5 C235.9,157 236.9,149.2 236.9,141.3 C236.9,110 221.6,81.4 196.5,63.9 C193.6,62 192.9,58.3 194.8,55.6 C196.7,52.9 200.4,52.2 203.2,54.1 Z M64,80.1 C66.7,82 67.5,85.7 65.6,88.4 C55.2,103.9 49.6,122.1 49.6,141.3 C49.6,148.6 50.4,155.8 52,162.7 C52.7,165.9 50.7,169.1 47.5,169.9 C44.3,170.7 41.1,168.6 40.3,165.4 C38.5,157.5 37.6,149.5 37.6,141.3 C37.7,119.7 44,99.1 55.7,81.7 C57.5,78.9 61.3,78.2 64,80.1 Z M143.2,115 C157.1,115 168.5,126.2 168.7,140.1 L168.7,160 C168.7,163.3 166,166 162.7,166 C159.5,166 156.8,163.4 156.7,160.2 L156.7,140.5 C156.7,133 150.7,127 143.2,127 C135.7,127 129.7,133 129.7,140.5 C129.7,141.2 129.8,141.9 129.9,142.6 L130,143.1 C130.6,146.4 128.5,149.5 125.3,150.1 C122,150.7 118.9,148.6 118.3,145.4 C118,143.8 117.8,142.1 117.8,140.4 C117.7,126.4 129.1,115 143.2,115 Z M267.7,131 C272.9,131 277.2,135.3 277.2,140.5 C277.2,145.7 272.9,150 267.7,150 C263.1,150 259.3,146.8 258.4,142.5 L253.2,142.5 C252.1,142.5 251.2,141.6 251.2,140.5 C251.2,139.4 252,138.6 253.1,138.5 L253.2,138.5 L258.4,138.5 C259.3,134.2 263.1,131 267.7,131 Z M18.7,131 C23.3,131 27.1,134.2 28,138.5 L33.7,138.5 C34.8,138.5 35.7,139.4 35.7,140.5 C35.7,141.6 34.9,142.4 33.8,142.5 L33.7,142.5 L28,142.5 C27.1,146.8 23.3,150 18.7,150 C13.5,150 9.2,145.7 9.2,140.5 C9.2,135.3 13.5,131 18.7,131 Z M134.6,61.9 C135.2,65.1 133,68.3 129.8,68.9 C97.8,74.8 73.4,101.7 70.7,134.5 C70.4,137.8 67.5,140.3 64.2,140 C60.9,139.7 58.4,136.8 58.7,133.5 C61.8,95.3 90.3,63.9 127.6,57.1 C130.9,56.5 134,58.7 134.6,61.9 Z M160.9,58.1 C189.1,64.3 212.2,84.7 222.2,111.9 C223.3,115 221.8,118.5 218.6,119.6 C215.5,120.7 212,119.2 210.9,116 C202.3,92.6 182.4,75.1 158.2,69.8 C155.2,69.1 153.1,65.9 153.8,62.7 C154.5,59.5 157.7,57.4 160.9,58.1 Z M143.3,76 C161.1,76 177.7,83.1 190,95.5 C192.3,97.9 192.3,101.7 190,104 C187.7,106.3 183.8,106.3 181.5,104 C171.5,93.9 157.9,88.1 143.3,88.1 C125.7,88.1 109.6,96.6 99.6,110.6 C97.7,113.3 93.9,113.9 91.2,112 C88.5,110.1 87.9,106.3 89.8,103.6 C102,86.4 121.8,76 143.3,76 Z M269.5,77.5 C272.8,77.5 275.5,80.2 275.5,83.5 C275.5,86.8 272.8,89.5 269.5,89.5 C266.2,89.5 263.5,86.8 263.5,83.5 C263.5,80.2 266.2,77.5 269.5,77.5 Z M6.2,77 C9.5,77 12.2,79.7 12.2,83 C12.2,86.3 9.5,89 6.2,89 C2.9,89 0.2,86.3 0.2,83 C0.2,79.7 2.9,77 6.2,77 Z M143.7,35 C153.5,35 163.1,36.3 172.3,39 C175.5,39.9 177.3,43.2 176.4,46.4 C175.5,49.6 172.2,51.4 169,50.5 C160.8,48.2 152.3,47 143.7,47 C119.7,47 97.1,56.2 79.8,72.4 C77.4,74.7 73.6,74.5 71.3,72.1 C69,69.7 69.2,65.9 71.6,63.6 C91.1,45.3 116.6,35 143.7,35 Z M55.2,43 C60.4,43 64.7,47.3 64.7,52.5 C64.7,54.3 64.2,56.1 63.3,57.5 L67.1,61.3 C67.9,62.1 67.9,63.3 67.1,64.1 C66.4,64.8 65.2,64.9 64.4,64.2 L64.3,64.1 L60.5,60.4 C59,61.4 57.2,62 55.2,62 C50,62 45.7,57.7 45.7,52.5 C45.7,47.3 50,43 55.2,43 Z M231.3,43 C236.5,43 240.8,47.3 240.8,52.5 C240.8,57.7 236.5,62 231.3,62 C229.5,62 227.7,61.5 226.3,60.6 L222.7,64.2 C221.9,65 220.7,65 219.9,64.2 C219.2,63.5 219.1,62.3 219.8,61.5 L219.9,61.4 L223.4,57.9 C222.4,56.4 221.8,54.6 221.8,52.6 C221.8,47.3 226.1,43 231.3,43 Z M143.2,6.5 C148.4,6.5 152.7,10.8 152.7,16 C152.7,20.5 149.6,24.2 145.5,25.2 L145.5,30.8 C145.5,31.9 144.6,32.8 143.5,32.8 C142.4,32.8 141.6,32 141.5,30.9 L141.5,30.8 L141.5,25.3 C137.1,24.5 133.7,20.6 133.7,16 C133.7,10.8 138,6.5 143.2,6.5 Z M190.6,1.1 C193.9,1.1 196.6,3.8 196.6,7.1 C196.6,10.4 193.9,13.1 190.6,13.1 C187.3,13.1 184.6,10.4 184.6,7.1 C184.6,3.8 187.3,1.1 190.6,1.1 Z M82.2,0 C85.5,0 88.2,2.7 88.2,6 C88.2,9.3 85.5,12 82.2,12 C78.9,12 76.2,9.3 76.2,6 C76.2,2.7 78.9,0 82.2,0 Z" id="Combined-Shape" fill="url(#linearGradient-1)" fill-rule="nonzero"></path>
  </g>
</svg>
