<?xml version="1.0" encoding="UTF-8"?>
<svg viewBox="0 0 276 276" version="1.1" xmlns="http://www.w3.org/2000/svg" xmlns:xlink="http://www.w3.org/1999/xlink">
    <title>outer</title>
    <g id="V3" stroke="none" stroke-width="1" fill="none" fill-rule="evenodd">
        <path d="M223.843976,241.01665 C225.205637,242.756241 224.899265,245.270302 223.159674,246.631962 C206.624446,259.574879 187.30645,268.582562 166.77607,272.973288 C136.84487,279.374519 105.599882,275.735387 77.5065082,262.033333 C75.5209473,261.06491 74.6963939,258.670233 75.6648167,256.684672 C76.6332394,254.699111 79.0279164,253.874558 81.0134774,254.842981 C107.48503,267.75402 136.90549,271.180648 165.102986,265.150195 C184.44876,261.012814 202.652082,252.524887 218.228664,240.332348 C219.968255,238.970687 222.482315,239.27706 223.843976,241.01665 Z M12.9351532,89.620861 C15.0183635,90.3560684 16.1111358,92.6408474 15.3759284,94.7240577 C10.5138826,108.500666 8,123.075817 8,138 C8,180.347745 28.3881278,219.274648 62.1111368,243.562141 C63.9037543,244.853194 64.3103528,247.353003 63.0192999,249.145621 C61.7282471,250.938238 59.2284383,251.344837 57.4358208,250.053784 C21.6469793,224.278466 2.16715534e-12,182.948048 2.16715534e-12,138 C2.16715534e-12,122.165751 2.66912675,106.690516 7.83195649,92.0616363 C8.56716386,89.9784259 10.8519428,88.8856536 12.9351532,89.620861 Z M262.610902,187.544993 C264.638023,188.423103 265.569481,190.778257 264.691371,192.805378 C258.642021,206.770337 250.310048,219.633261 240.070038,230.879647 C238.582737,232.513119 236.05285,232.631614 234.419379,231.144312 C232.785907,229.657011 232.667413,227.127124 234.154714,225.493653 C243.803249,214.89687 251.652753,202.778785 257.350517,189.625462 C258.228627,187.598341 260.583781,186.666884 262.610902,187.544993 Z M209.410727,19.8883114 C250.419297,44.732577 276.003759,89.1586972 276.003759,138 C276.003759,150.744177 274.275019,163.262502 270.901011,175.305925 C270.305058,177.433161 268.097477,178.674512 265.97024,178.078559 C263.843004,177.482606 262.601653,175.275025 263.197606,173.147788 C266.375281,161.80517 268.003759,150.012873 268.003759,138 C268.003759,91.9857613 243.905118,50.1396941 205.265462,26.7305901 C203.376019,25.5859068 202.772272,23.1262614 203.916955,21.2368183 C205.061639,19.3473752 207.521284,18.7436281 209.410727,19.8883114 Z M37.485832,49.2917664 C39.1842769,50.7044164 39.4159594,53.2264572 38.0033094,54.9249021 C30.7120801,63.6912284 24.5961008,73.3774632 19.8306398,83.7376716 C18.9074658,85.7446705 16.5320913,86.6232843 14.5250923,85.7001102 C12.5180934,84.7769362 11.6394796,82.4015617 12.5626536,80.3945627 C17.6220851,69.3952565 24.1141723,59.1133577 31.8526964,49.8092438 C33.2653464,48.1107989 35.7873871,47.8791164 37.485832,49.2917664 Z M138.00188,-2.03215222e-12 C155.34111,-2.03215222e-12 172.244028,3.20084509 188.064944,9.36216736 C190.123487,10.1638497 191.142375,12.4825207 190.340692,14.541064 C189.53901,16.5996073 187.220339,17.6184945 185.161796,16.8168121 C170.26268,11.0144773 154.343927,8 138.00188,8 C104.237247,8 72.5119837,20.9208767 48.5143491,43.7010721 C46.9121394,45.2219992 44.3803368,45.1561065 42.8594098,43.5538968 C41.3384827,41.951687 41.4043754,39.4198844 43.0065851,37.8989574 C68.476366,13.7213001 102.166948,-2.03215222e-12 138.00188,-2.03215222e-12 Z" id="outer" fill="#FFFFFF" fill-rule="nonzero"></path>
    </g>
</svg>
